<?xml version="1.0" standalone="no"?>
<!DOCTYPE svg PUBLIC "-//W3C//DTD SVG 1.1//EN" "http://www.w3.org/Graphics/SVG/1.1/DTD/svg11.dtd" >
<svg xmlns="http://www.w3.org/2000/svg" xmlns:xlink="http://www.w3.org/1999/xlink" version="1.1">
<metadata>
Created by FontForge 20201107 at Wed Nov 26 09:32:01 2014
 By Jimmy Wärting
Copyright (c) 2014 by Branum Design LLC. All rights reserved.
</metadata>
<defs>
<font id="MotorBlock" horiz-adv-x="900" >
  <font-face 
    font-family="MotorBlock"
    font-weight="400"
    font-stretch="normal"
    units-per-em="1000"
    panose-1="0 0 0 0 0 0 0 0 0 0"
    ascent="750"
    descent="-250"
    x-height="640"
    cap-height="800"
    bbox="-1 -202 954 1001"
    underline-thickness="50"
    underline-position="-100"
    unicode-range="U+0020-20AC"
  />
<missing-glyph horiz-adv-x="500" 
 />
    <glyph glyph-name=".notdef" horiz-adv-x="500" 
 />
    <glyph glyph-name="B" unicode="B" 
d="M601 798h1v0l199 -200v-100v-200v-300h-200h-399h-200v300v500h179h21v0h399v0v0zM601 598h-399v-100h399v100v0zM202 298v-100h399v100h-399v0z" />
    <glyph glyph-name="C" unicode="C" 
d="M200 600v198h402l200 -200h-600v0v-400h600v-200h-600h-200v800l198 -198v0z" />
    <glyph glyph-name="A" unicode="A" 
d="M600 300h-400v-300h-200v300v500l200 -200v-100h400v100v0v0h-400v200h400h200v-200v-100v-700l-200 200v0v300v0z" />
    <glyph glyph-name="D" unicode="D" 
d="M200 800h400v0v0v0v0l200 -200v-600h-200h-400h-200v800h180h20v0zM600 200v400h-400v-400h400v0z" />
    <glyph glyph-name="E" unicode="E" 
d="M200 200h600v-200h-600h-200v300v300v200h800v-200h-600v-100h600v-200h-600v-100v0z" />
    <glyph glyph-name="F" unicode="F" 
d="M-1 600v200h801v-200h-601v-100h601v-200h-601v-301h-200v301v300v0z" />
    <glyph glyph-name="G" unicode="G" 
d="M600 198v101h-190v200h391v-200v0v-101v-200h-201v0h-400h-200v801h150v0h50h400l201 -200h-601v-401h400v0z" />
    <glyph glyph-name="H" unicode="H" 
d="M201 299v-301h-200v301v500h200v-300h400v300l201 -200v-100v-200v-301h-201v301h-400v0z" />
    <glyph glyph-name="I" unicode="I" horiz-adv-x="300" 
d="M-1 -1v801h201v-801h-201v0z" />
    <glyph glyph-name="J" unicode="J" 
d="M0 6v0v493l200 -201v-99h400v601h201v-601v0v-200h-801v7v0z" />
    <glyph glyph-name="K" unicode="K" 
d="M307 300h-107v-301l-200 201v600h200v-300h107l301 300h193v-103l-298 -297l298 -298v-103h-193l-301 301v0z" />
    <glyph glyph-name="L" unicode="L" 
d="M0 199v601h200v-601h601v-200h-801v200v0v0z" />
    <glyph glyph-name="M" unicode="M" 
d="M199 601v-601h-200v601v200h300h300h201v-200v-601h-201v601h-100v-601h-200v601h-100v0z" />
    <glyph glyph-name="N" unicode="N" 
d="M200 599v-601h-200v801h179h21v0h400v0v0v0v0l201 -200v-601h-201v601h-400v0z" />
    <glyph glyph-name="O" unicode="O" 
d="M599 600h-400v200h400h201v-601v-200h-601h-200v801l200 -200v-401h400v401v0z" />
    <glyph glyph-name="P" unicode="P" 
d="M199 499h400v100h-400v201h400v0h201v0v-301v-200h-601v-300v0v-201l-200 201v0v300v200v100v0v201l200 -201v0v-100v0z" />
    <glyph glyph-name="Q" unicode="Q" 
d="M697 -1l98 -98v-102h-193l-201 200h-202h-200v801l200 -201v-400h400v401h-400v200h400h201v-601v-200h-103v0z" />
    <glyph glyph-name="R" unicode="R" 
d="M199 299v-300v0v-200l-200 200v0v300v200v100v0v201l200 -201v0v-100h400v101h-400v200h400v0h201v0v-301v-200h-198l198 -197v-103h-193l-301 300h-107v0z" />
    <glyph glyph-name="S" unicode="S" 
d="M599 300h-600v22v278v200h200v0h601v-200h-601v-100h601v-23v-278v-200h-801v200h600v101v0z" />
    <glyph glyph-name="T" unicode="T" horiz-adv-x="860" 
d="M443 601v-601h-200v601h-242v200h242h559l-201 -200h-158v0z" />
    <glyph glyph-name="U" unicode="U" 
d="M-1 149v0v50v401l200 200v-601h400v601h201v-601v-200h-801v150v0z" />
    <glyph glyph-name="V" unicode="V" 
d="M604 7l-259 292v0l-343 385v116h193l267 -300v0l142 -160v460v0v0h200v-801v0v0v0h-193v0h-7v8v0z" />
    <glyph glyph-name="W" unicode="W" 
d="M199 -1h-200v801h200v-601h100v601h200v-601h100v601h201v-601v-200v0h-201h-100h-300v0z" />
    <glyph glyph-name="X" unicode="X" 
d="M551 400l253 -285v-116h-193l-208 235l-208 -235h-193v116l253 285l-253 284v116h193l208 -234l208 234h193v-116l-253 -284v0z" />
    <glyph glyph-name="Y" unicode="Y" 
d="M500 345v-346h-201v348l-300 338v116h193l208 -235l208 235h193v-116l-301 -340v0z" />
    <glyph glyph-name="Z" unicode="Z" 
d="M372 199h431v-200h-801v1h-1v115l343 385v0l88 100h-430v200h608v0h193v-115l-342 -386v0l-89 -100v0z" />
    <glyph glyph-name="a" unicode="a" horiz-adv-x="720" 
d="M480 241h-320v-240h-160v240v400l160 -161v-79h320v79v0v1h-320v160h320h160v-161v-79v-560l-160 160v0v240v0z" />
    <glyph glyph-name="b" unicode="b" horiz-adv-x="720" 
d="M480 640v0v0l160 -160v-80v-159v-240h-160h-320h-159v240v399h143h16v0h320v0v0zM480 480h-320v-80h320v80v0zM160 241v-80h320v80h-320v0z" />
    <glyph glyph-name="c" unicode="c" horiz-adv-x="720" 
d="M158 482v158h322l160 -160h-480v0v-319h480v-160h-480h-160v639l158 -158v0z" />
    <glyph glyph-name="d" unicode="d" horiz-adv-x="720" 
d="M160 640h320v0v0v0v0l160 -161v-479h-160h-320h-160v640h144h16v0zM480 160v320h-320v-320h320v0z" />
    <glyph glyph-name="e" unicode="e" horiz-adv-x="720" 
d="M160 160h480v-160h-480h-160v240v240v160h640v-160h-480v-80h480v-160h-480v-80v0z" />
    <glyph glyph-name="f" unicode="f" horiz-adv-x="720" 
d="M0 480v161h640v-161h-480v-80h480v-160h-480v-240h-160v240v240v0z" />
    <glyph glyph-name="g" unicode="g" horiz-adv-x="720" 
d="M482 161v80h-153v160h313v-160v0v-80v-160h-160v0h-320h-160v641h120v0h40h320l160 -161h-480v-320h320v0z" />
    <glyph glyph-name="h" unicode="h" horiz-adv-x="720" 
d="M162 238v-240h-160v240v401h160v-241h320v241l160 -161v-80v-160v-240h-160v240h-320v0z" />
    <glyph glyph-name="i" unicode="i" horiz-adv-x="220" 
d="M0 -1v641h160v-641h-160v0z" />
    <glyph glyph-name="j" unicode="j" horiz-adv-x="720" 
d="M0 4v0v394l160 -160v-79h320v481h160v-481v0v-160h-640v5v0z" />
    <glyph glyph-name="k" unicode="k" horiz-adv-x="720" 
d="M246 238h-86v-240l-160 160v481h160v-241h86l240 241h154v-83l-238 -238l238 -238v-82h-154l-240 240v0z" />
    <glyph glyph-name="l" unicode="l" horiz-adv-x="720" 
d="M0 159v481h160v-481h480v-160h-640v160v0v0z" />
    <glyph glyph-name="m" unicode="m" horiz-adv-x="720" 
d="M162 480v-480h-160v480v161h240h240h160v-161v-480h-160v480h-80v-480h-160v480h-80v0z" />
    <glyph glyph-name="n" unicode="n" horiz-adv-x="720" 
d="M162 478v-480h-160v641h143h17v0h320v0v0v0v0l160 -161v-480h-160v480h-320v0z" />
    <glyph glyph-name="o" unicode="o" horiz-adv-x="720" 
d="M480 479h-320v161h320h160v-481v-160h-480h-160v641l160 -161v-320h320v320v0z" />
    <glyph glyph-name="p" unicode="p" horiz-adv-x="720" 
d="M160 401h320v80h-320v160h320v0h160v0v-240v-160h-480v-240v0v-161l-160 161v0v240v160v80v0v160l160 -160v0v-80v0z" />
    <glyph glyph-name="q" unicode="q" horiz-adv-x="720" 
d="M558 0l78 -78v-82h-154l-160 160h-162h-160v640l160 -160v-320h320v320h-320v160h320h160v-480v-160h-82v0z" />
    <glyph glyph-name="r" unicode="r" horiz-adv-x="720" 
d="M160 240v-240v0v-160l-160 160v0v240v160v80v0v160l160 -160v0v-80h320v80h-320v160h320v0h160v0v-240v-160h-158l158 -158v-82h-154l-240 240h-86v0z" />
    <glyph glyph-name="s" unicode="s" horiz-adv-x="720" 
d="M480 239h-480v19v221v161h160v0h480v-161h-480v-80h480v-18v-222v-160h-640v160h480v80v0z" />
    <glyph glyph-name="t" unicode="t" horiz-adv-x="680" 
d="M354 479v-480h-160v480h-194v161h194h446l-160 -161h-126v0z" />
    <glyph glyph-name="u" unicode="u" horiz-adv-x="720" 
d="M2 119v0v40v320l160 161v-481h320v481h160v-481v-160h-640v120v0z" />
    <glyph glyph-name="v" unicode="v" horiz-adv-x="720" 
d="M484 6l-208 233v0l-274 308v93h154l214 -240v0l114 -128v368v-1v1h160v-641v0v0v0h-155v0h-5v7v0z" />
    <glyph glyph-name="w" unicode="w" horiz-adv-x="720" 
d="M160 -1h-160v641h160v-481h80v481h160v-481h80v481h160v-481v-160v0h-160h-80h-240v0z" />
    <glyph glyph-name="x" unicode="x" horiz-adv-x="720" 
d="M441 320l203 -227v-93h-154l-167 187l-167 -187h-154v93l203 227l-203 228v93h154l167 -188l167 188h154v-93l-203 -228v0z" />
    <glyph glyph-name="y" unicode="y" horiz-adv-x="720" 
d="M402 276v-277h-160v278l-240 270v93h154l167 -187l167 187h154v-93l-242 -271v0z" />
    <glyph glyph-name="z" unicode="z" horiz-adv-x="720" 
d="M297 160h345v-160h-640v0h-1v93l274 308v0l71 79h-344v160h486l1 1h154v-93l-274 -308v0l-72 -80v0z" />
    <glyph glyph-name="braceleft" unicode="{" horiz-adv-x="1020" 
d="M544 797q63 0 109 -21.5t81 -62.5q26 -31 42 -75t16 -98q0 -60 -19 -108t-51.5 -81.5t-76.5 -51.5t-94 -18h-13q30 44 30 100q0 34 -11 64.5t-29.5 55.5t-43 42t-52.5 25q38 16 64 56t26 91q0 46 -21 82h43zM2 43h9l6 -22l6 22h8l6 -22l6 22h10l-11 -35h-9l-6 23l-6 -23
h-9zM53 43h10l6 -22l6 22h8l6 -22l6 22h10l-11 -35h-9l-6 23l-7 -23h-9zM105 43h10l5 -22l7 22h8l6 -22l6 22h9l-10 -35h-9l-6 23l-7 -23h-9zM158 18h10v-10h-10v10zM187 15q8 0 8 11t-8 11t-8 -11t8 -11zM170 57h9v-18q4 6 11 6q5 0 10 -5t5 -14t-5 -14t-11 -5q-5 0 -10 5
v-4h-9v49zM207 43h9v-5q1 6 9 6h2v-8h-2q-3 0 -6 -3q-3 -2 -3 -9v-16h-10zM247 27l-4 -2l-4 -1q-5 -2 -5.5 -3t-0.5 -2q0 -5 6 -5q8 0 8 8v5zM247 12q-3 -5 -10 -5t-10 3.5t-3 7.5q0 5 3 8q1 1 3 2t8 2l6 1q3 0 3 3q0 4 -6 4q-7 0 -7 -5h-8q-1 5 3 8.5t12 3.5q15 0 15 -14
v-19l2 -4h-10q0 1 -0.5 2t-0.5 2zM260 43h9v-4q4 6 10 6q12 0 12 -12v-25h-9v22q0 6 -6 6q-3 0 -6 -3q0 -1 -0.5 -2t-0.5 -3v-20h-9v35zM315 12q-3 -5 -10 -5q-6 0 -9 3t-3 9v1v23h9v-21q0 -6 6 -6q7 0 7 8v19h10v-35h-9zM326 43h10v-4q3 6 10 6q6 0 10 -7q3 7 11 7
q11 0 11 -12v-25h-9v22q0 6 -6 6t-6 -7v-21h-9v21q0 1 -0.5 1.5t-0.5 1.5v1q0 3 -5 3q-6 0 -6 -7v-21h-10v35zM398 15q7 0 7 11t-8 11t-8 -11t9 -11zM405 12q-3 -5 -10 -5q-6 0 -11 5q-4 5 -4 14t4.5 14t10.5 5q7 0 10 -5v17h10v-49h-10v4zM442 30q-1 7 -8 7q-6 0 -8 -7h16z
M426 23q0 -8 8 -8q5 0 8 4l9 -1q-2 -11 -17 -11q-8 0 -13 5t-5 14q0 6 4 12.5t14 6.5t14 -7t4 -15h-26zM462 20q0 -6 7 -6t7 4q0 3 -5 4l-8 2q-3 0 -6 3t-3 6q0 5 3.5 8.5t11.5 3.5q7 0 10 -3q5 -3 5 -9h-8q0 5 -7 5q-6 0 -6 -3t3 -3l10 -3q6 -1 7 -4q2 -2 2 -6
q0 -5 -3.5 -8.5t-11.5 -3.5q-17 0 -17 13h9zM487 57h9v-8h-9v8zM487 44h9v-36h-9v36zM516 18q8 0 8 9q0 10 -8 10t-8 -10q0 -9 8 -9zM510 7q0 -4 6 -4q8 0 8 8v4q-2 -6 -10 -6q-16 0 -16 18t16 18q6 0 8 -2.5t2 -3.5l1 5l9 -1v-32q0 -7 -3 -10q-4 -6 -15 -6q-8 0 -12 4
q-3 3 -4 8h10zM536 43h9v-4q2 6 10 6q12 0 12 -12v-25h-9v22q0 6 -6 6q-3 0 -6 -3q0 -1 -0.5 -2t-0.5 -3v-20h-9v35zM569 18h10v-10h-10v10zM615 21q-1 -10 -9 -13q-2 -1 -7 -1q-7 0 -11 3q-7 5 -7 16q0 7 3 12q5 7 15 7q14 0 16 -13l-9 -1q-2 6 -7 6q-8 0 -8 -11t8 -11
q3 0 4 1q3 1 3 5h9zM635 14q9 0 9 12q0 11 -9 11t-9 -11q0 -12 9 -12zM635 7q-18 0 -18 19t18 19q19 0 19 -19t-19 -19zM655 43h9l1 -4q3 6 9 6q7 0 11 -7q3 7 11 7q11 0 11 -12v-25h-9v22q0 6 -6 6t-6 -7v-21h-10v21v4q-2 3 -5 3q-6 0 -6 -7v-21h-10v35zM810 8q0 8 3.5 12
t7.5 7l7 5q2 2 4.5 4t2.5 7q0 7 -8 7q-7 0 -8 -10h-9v1q0 17 18 17q17 0 17 -16q0 -7 -4 -10.5t-7 -5.5l-8 -5l-4 -4h24v-9h-36zM867 15q4 0 7.5 3.5t3.5 14.5t-3.5 14.5t-7.5 3.5q-10 0 -10 -18q0 -7 1 -10t2 -5q3 -3 7 -3zM867 7q-8 0 -14.5 6t-6.5 20t6.5 20t14.5 6
t14.5 -6.5t6.5 -19.5q0 -14 -6.5 -20t-14.5 -6zM901 42h-12v6q4 0 8 2q5 3 6 7h8v-49h-10v34zM935 27v19l-15 -19h15zM912 29l23 28h10v-30h7v-8h-7v-11h-10v11h-23v10zM781 29q0 -5 -3.5 -7.5t-7.5 -2.5q-13 0 -13 14q0 5 2 9.5t10 4.5q6 0 9 -3l3 -6h-6q0 5 -5 5
q-8 0 -8 -10q0 -9 8 -9q3 0 5 2q0 1 0.5 1.5t0.5 1.5h5zM769 60q11 0 19 -8t8 -19t-8 -19t-19 -8t-19 8t-8 19t8 19t19 8zM769 52q-8 0 -13.5 -5.5t-5.5 -13.5t5.5 -14t13.5 -6t14 6t6 14t-6 13.5t-14 5.5zM550 116q7 0 13 6.5t6 21.5t-6 21t-14 6t-14 -6t-6 -22
q0 -14 6 -20.5t14 -6.5h1zM654 153q-2 9 -7.5 13.5t-12.5 4.5t-12.5 -5t-7.5 -13h40zM511 170q11 20 33 20q18 0 25 -13v45h24v-60q4 11 14 19.5t28 8.5q25 0 35 -17t10 -37h-66q2 -22 22 -22q12 0 18 12l23 -2q-1 2 -1 4h22q2 -16 20 -16q10 0 13 4t3 6q0 3 -2 6t-10 5
l-19 4q-8 2 -11.5 4t-5.5 4q-7 9 -7 17q0 11 9 20t28 9q10 0 16 -2t11 -5q12 -10 12 -23l-21 -1q0 5 -4.5 9.5t-13.5 4.5t-12 -3t-3 -6q0 -5 8 -8l25 -6q8 -2 12 -4t6 -5q6 -8 6 -16q0 -12 -10 -21.5t-30 -9.5q-17 0 -27.5 7.5t-13.5 18.5q-4 -11 -14.5 -18.5t-27.5 -7.5
q-31 0 -42 29v-26h-23l-1 10q-10 -13 -26 -13q-17 0 -27 13q-2 2 -2 3v-16h-24v56q0 15 -14 15q-16 0 -16 -18v-53h-24v53q0 9 -1 10q-4 8 -12 8q-16 0 -16 -20l-1 -51h-24l1 89h23l1 -12q7 15 24 15q9 0 16 -4.5t11 -11.5q8 16 27 16q18 0 26 -17zM826 121q8 0 14 6.5
t6 18.5q0 11 -6 17.5t-15 6.5q-8 0 -14 -6.5t-6 -17.5q0 -12 6 -18.5t15 -6.5zM783 98h-24v89h24v-22q11 25 37 25q14 0 19 -5t7 -8v-1l1 11h23v-83q0 -10 -1.5 -14.5t-4.5 -9.5q-5 -5 -14 -10t-24 -5q-23 0 -32 11q-8 6 -9 17l25 1q2 -10 16 -10q20 0 20 21v9
q-2 -5 -8.5 -9t-17.5 -4q-26 0 -37 26v-29zM874 187h23l1 -10q7 13 25 13q14 0 22.5 -8t8.5 -21v-63h-24v55q0 16 -14 16q-10 0 -15 -8q-3 -5 -3 -13v-50h-24v89zM46 113q8 0 14 6.5t6 20.5q0 16 -6 22t-14 6t-14 -6.5t-6 -20.5q0 -15 6 -21.5t14 -6.5zM189 142l-4 -2t-6 -2
l-10 -3q-11 -4 -14 -7t-3 -6q0 -5 3.5 -8.5t11.5 -3.5q21 0 21 21zM191 95q-1 2 -3 10q-8 -13 -25 -13t-25.5 8.5t-8.5 19.5t8 19q3 2 8.5 5t20.5 5l13 3q9 1 9 8q0 3 -3.5 6.5t-12.5 3.5t-13 -4t-4 -9h-21v2q0 4 1 6q-8 0 -15 -7q-3 -3 -5 -8t-2 -16v-39h-24v27
q-5 -15 -15 -22.5t-22 -7.5q-16 0 -25 12l-2 -9h-23v124h24v-45q4 5 10 9t16 4q12 0 22 -8t15 -22v27h23l1 -14q5 16 22 16h5v-11q10 12 32 12t31 -9t9 -25v-49q0 -5 3 -8v88l24 -1l1 -10q2 5 8 9.5t16 4.5q14 0 22.5 -8.5t8.5 -21.5v-62h-24v55q0 15 -14 15q-8 0 -15 -7
q-3 -5 -3 -13v-50h-24h-24zM355 105q-10 -13 -25 -13q-13 0 -23 8q-4 4 -6 9t-2 14v61h24v-53q0 -17 14 -17q8 0 13 5t5 15v50h23v-89h-22zM326 600h-84v197h98q28 0 48.5 -17t31.5 -42q14 -30 4 -65q-9 -33 -36.5 -53t-61.5 -20zM342 280h-100v232h118q33 0 58 -20t38 -49
q16 -38 5 -77t-44 -62.5t-75 -23.5z" />
    <glyph glyph-name="bar" unicode="|" horiz-adv-x="1020" 
d="M544 794q63 0 109 -21.5t81 -62.5q26 -31 42 -75t16 -98q0 -60 -19 -108t-51.5 -81.5t-76.5 -51.5t-94 -18h-13q30 44 30 100q0 34 -11 64.5t-29.5 55.5t-43 42t-52.5 25q38 16 64 56t26 91q0 46 -21 82h43zM2 40h9l6 -22l6 22h8l6 -22l6 22h10l-11 -35h-9l-6 23l-6 -23
h-9zM53 40h10l6 -22l6 22h8l6 -22l6 22h10l-11 -35h-9l-6 23l-7 -23h-9zM105 40h10l5 -22l7 22h8l6 -22l6 22h9l-10 -35h-9l-6 23l-7 -23h-9zM158 15h10v-10h-10v10zM187 12q8 0 8 11t-8 11t-8 -11t8 -11zM170 54h9v-18q4 6 11 6q5 0 10 -5t5 -14t-5 -14t-11 -5q-5 0 -10 5
v-4h-9v49zM207 40h9v-5q1 6 9 6h2v-8h-2q-3 0 -6 -3q-3 -2 -3 -9v-16h-10zM247 24l-4 -2l-4 -1q-5 -2 -5.5 -3t-0.5 -2q0 -5 6 -5q8 0 8 8v5zM247 9q-3 -5 -10 -5t-10 3.5t-3 7.5q0 5 3 8q1 1 3 2t8 2l6 1q3 0 3 3q0 4 -6 4q-7 0 -7 -5h-8q-1 5 3 8.5t12 3.5q15 0 15 -14
v-19l2 -4h-10q0 1 -0.5 2t-0.5 2zM260 40h9v-4q4 6 10 6q12 0 12 -12v-25h-9v22q0 6 -6 6q-3 0 -6 -3q0 -1 -0.5 -2t-0.5 -3v-20h-9v35zM315 9q-3 -5 -10 -5q-6 0 -9 3t-3 9v1v23h9v-21q0 -6 6 -6q7 0 7 8v19h10v-35h-9zM326 40h10v-4q3 6 10 6q6 0 10 -7q3 7 11 7
q11 0 11 -12v-25h-9v22q0 6 -6 6t-6 -7v-21h-9v21q0 1 -0.5 1.5t-0.5 1.5v1q0 3 -5 3q-6 0 -6 -7v-21h-10v35zM398 12q7 0 7 11t-8 11t-8 -11t9 -11zM405 9q-3 -5 -10 -5q-6 0 -11 5q-4 5 -4 14t4.5 14t10.5 5q7 0 10 -5v17h10v-49h-10v4zM442 27q-1 7 -8 7q-6 0 -8 -7h16z
M426 20q0 -8 8 -8q5 0 8 4l9 -1q-2 -11 -17 -11q-8 0 -13 5t-5 14q0 6 4 12.5t14 6.5t14 -7t4 -15h-26zM462 17q0 -6 7 -6t7 4q0 3 -5 4l-8 2q-3 0 -6 3t-3 6q0 5 3.5 8.5t11.5 3.5q7 0 10 -3q5 -3 5 -9h-8q0 5 -7 5q-6 0 -6 -3t3 -3l10 -3q6 -1 7 -4q2 -2 2 -6
q0 -5 -3.5 -8.5t-11.5 -3.5q-17 0 -17 13h9zM487 54h9v-8h-9v8zM487 41h9v-36h-9v36zM516 15q8 0 8 9q0 10 -8 10t-8 -10q0 -9 8 -9zM510 4q0 -4 6 -4q8 0 8 8v4q-2 -6 -10 -6q-16 0 -16 18t16 18q6 0 8 -2.5t2 -3.5l1 5l9 -1v-32q0 -7 -3 -10q-4 -6 -15 -6q-8 0 -12 4
q-3 3 -4 8h10zM536 40h9v-4q2 6 10 6q12 0 12 -12v-25h-9v22q0 6 -6 6q-3 0 -6 -3q0 -1 -0.5 -2t-0.5 -3v-20h-9v35zM569 15h10v-10h-10v10zM615 18q-1 -10 -9 -13q-2 -1 -7 -1q-7 0 -11 3q-7 5 -7 16q0 7 3 12q5 7 15 7q14 0 16 -13l-9 -1q-2 6 -7 6q-8 0 -8 -11t8 -11
q3 0 4 1q3 1 3 5h9zM635 11q9 0 9 12q0 11 -9 11t-9 -11q0 -12 9 -12zM635 4q-18 0 -18 19t18 19q19 0 19 -19t-19 -19zM655 40h9l1 -4q3 6 9 6q7 0 11 -7q3 7 11 7q11 0 11 -12v-25h-9v22q0 6 -6 6t-6 -7v-21h-10v21v4q-2 3 -5 3q-6 0 -6 -7v-21h-10v35zM810 5q0 8 3.5 12
t7.5 7l7 5q2 2 4.5 4t2.5 7q0 7 -8 7q-7 0 -8 -10h-9v1q0 17 18 17q17 0 17 -16q0 -7 -4 -10.5t-7 -5.5l-8 -5l-4 -4h24v-9h-36zM867 12q4 0 7.5 3.5t3.5 14.5t-3.5 14.5t-7.5 3.5q-10 0 -10 -18q0 -7 1 -10t2 -5q3 -3 7 -3zM867 4q-8 0 -14.5 6t-6.5 20t6.5 20t14.5 6
t14.5 -6.5t6.5 -19.5q0 -14 -6.5 -20t-14.5 -6zM901 39h-12v6q4 0 8 2q5 3 6 7h8v-49h-10v34zM935 24v19l-15 -19h15zM912 26l23 28h10v-30h7v-8h-7v-11h-10v11h-23v10zM781 26q0 -5 -3.5 -7.5t-7.5 -2.5q-13 0 -13 14q0 5 2 9.5t10 4.5q6 0 9 -3l3 -6h-6q0 5 -5 5
q-8 0 -8 -10q0 -9 8 -9q3 0 5 2q0 1 0.5 1.5t0.5 1.5h5zM769 57q11 0 19 -8t8 -19t-8 -19t-19 -8t-19 8t-8 19t8 19t19 8zM769 49q-8 0 -13.5 -5.5t-5.5 -13.5t5.5 -14t13.5 -6t14 6t6 14t-6 13.5t-14 5.5zM550 113q7 0 13 6.5t6 21.5t-6 21t-14 6t-14 -6t-6 -22
q0 -14 6 -20.5t14 -6.5h1zM654 150q-2 9 -7.5 13.5t-12.5 4.5t-12.5 -5t-7.5 -13h40zM511 167q11 20 33 20q18 0 25 -13v45h24v-60q4 11 14 19.5t28 8.5q25 0 35 -17t10 -37h-66q2 -22 22 -22q12 0 18 12l23 -2q-1 2 -1 4h22q2 -16 20 -16q10 0 13 4t3 6q0 3 -2 6t-10 5
l-19 4q-8 2 -11.5 4t-5.5 4q-7 9 -7 17q0 11 9 20t28 9q10 0 16 -2t11 -5q12 -10 12 -23l-21 -1q0 5 -4.5 9.5t-13.5 4.5t-12 -3t-3 -6q0 -5 8 -8l25 -6q8 -2 12 -4t6 -5q6 -8 6 -16q0 -12 -10 -21.5t-30 -9.5q-17 0 -27.5 7.5t-13.5 18.5q-4 -11 -14.5 -18.5t-27.5 -7.5
q-31 0 -42 29v-26h-23l-1 10q-10 -13 -26 -13q-17 0 -27 13q-2 2 -2 3v-16h-24v56q0 15 -14 15q-16 0 -16 -18v-53h-24v53q0 9 -1 10q-4 8 -12 8q-16 0 -16 -20l-1 -51h-24l1 89h23l1 -12q7 15 24 15q9 0 16 -4.5t11 -11.5q8 16 27 16q18 0 26 -17zM826 118q8 0 14 6.5
t6 18.5q0 11 -6 17.5t-15 6.5q-8 0 -14 -6.5t-6 -17.5q0 -12 6 -18.5t15 -6.5zM783 95h-24v89h24v-22q11 25 37 25q14 0 19 -5t7 -8v-1l1 11h23v-83q0 -10 -1.5 -14.5t-4.5 -9.5q-5 -5 -14 -10t-24 -5q-23 0 -32 11q-8 6 -9 17l25 1q2 -10 16 -10q20 0 20 21v9
q-2 -5 -8.5 -9t-17.5 -4q-26 0 -37 26v-29zM874 184h23l1 -10q7 13 25 13q14 0 22.5 -8t8.5 -21v-63h-24v55q0 16 -14 16q-10 0 -15 -8q-3 -5 -3 -13v-50h-24v89zM46 110q8 0 14 6.5t6 20.5q0 16 -6 22t-14 6t-14 -6.5t-6 -20.5q0 -15 6 -21.5t14 -6.5zM189 139l-4 -2t-6 -2
l-10 -3q-11 -4 -14 -7t-3 -6q0 -5 3.5 -8.5t11.5 -3.5q21 0 21 21zM191 92q-1 2 -3 10q-8 -13 -25 -13t-25.5 8.5t-8.5 19.5t8 19q3 2 8.5 5t20.5 5l13 3q9 1 9 8q0 3 -3.5 6.5t-12.5 3.5t-13 -4t-4 -9h-21v2q0 4 1 6q-8 0 -15 -7q-3 -3 -5 -8t-2 -16v-39h-24v27
q-5 -15 -15 -22.5t-22 -7.5q-16 0 -25 12l-2 -9h-23v124h24v-45q4 5 10 9t16 4q12 0 22 -8t15 -22v27h23l1 -14q5 16 22 16h5v-11q10 12 32 12t31 -9t9 -25v-49q0 -5 3 -8v88l24 -1l1 -10q2 5 8 9.5t16 4.5q14 0 22.5 -8.5t8.5 -21.5v-62h-24v55q0 15 -14 15q-8 0 -15 -7
q-3 -5 -3 -13v-50h-24h-24zM355 102q-10 -13 -25 -13q-13 0 -23 8q-4 4 -6 9t-2 14v61h24v-53q0 -17 14 -17q8 0 13 5t5 15v50h23v-89h-22zM326 597h-84v197h98q28 0 48.5 -17t31.5 -42q14 -30 4 -65q-9 -33 -36.5 -53t-61.5 -20zM342 277h-100v232h118q33 0 58 -20t38 -49
q16 -38 5 -77t-44 -62.5t-75 -23.5z" />
    <glyph glyph-name="braceright" unicode="}" horiz-adv-x="1020" 
d="M544 794q63 0 109 -21.5t81 -62.5q26 -31 42 -75t16 -98q0 -60 -19 -108t-51.5 -81.5t-76.5 -51.5t-94 -18h-13q30 44 30 100q0 34 -11 64.5t-29.5 55.5t-43 42t-52.5 25q38 16 64 56t26 91q0 46 -21 82h43zM2 40h9l6 -22l6 22h8l6 -22l6 22h10l-11 -35h-9l-6 23l-6 -23
h-9zM53 40h10l6 -22l6 22h8l6 -22l6 22h10l-11 -35h-9l-6 23l-7 -23h-9zM105 40h10l5 -22l7 22h8l6 -22l6 22h9l-10 -35h-9l-6 23l-7 -23h-9zM158 15h10v-10h-10v10zM187 12q8 0 8 11t-8 11t-8 -11t8 -11zM170 54h9v-18q4 6 11 6q5 0 10 -5t5 -14t-5 -14t-11 -5q-5 0 -10 5
v-4h-9v49zM207 40h9v-5q1 6 9 6h2v-8h-2q-3 0 -6 -3q-3 -2 -3 -9v-16h-10zM247 24l-4 -2l-4 -1q-5 -2 -5.5 -3t-0.5 -2q0 -5 6 -5q8 0 8 8v5zM247 9q-3 -5 -10 -5t-10 3.5t-3 7.5q0 5 3 8q1 1 3 2t8 2l6 1q3 0 3 3q0 4 -6 4q-7 0 -7 -5h-8q-1 5 3 8.5t12 3.5q15 0 15 -14
v-19l2 -4h-10q0 1 -0.5 2t-0.5 2zM260 40h9v-4q4 6 10 6q12 0 12 -12v-25h-9v22q0 6 -6 6q-3 0 -6 -3q0 -1 -0.5 -2t-0.5 -3v-20h-9v35zM315 9q-3 -5 -10 -5q-6 0 -9 3t-3 9v1v23h9v-21q0 -6 6 -6q7 0 7 8v19h10v-35h-9zM326 40h10v-4q3 6 10 6q6 0 10 -7q3 7 11 7
q11 0 11 -12v-25h-9v22q0 6 -6 6t-6 -7v-21h-9v21q0 1 -0.5 1.5t-0.5 1.5v1q0 3 -5 3q-6 0 -6 -7v-21h-10v35zM398 12q7 0 7 11t-8 11t-8 -11t9 -11zM405 9q-3 -5 -10 -5q-6 0 -11 5q-4 5 -4 14t4.5 14t10.5 5q7 0 10 -5v17h10v-49h-10v4zM442 27q-1 7 -8 7q-6 0 -8 -7h16z
M426 20q0 -8 8 -8q5 0 8 4l9 -1q-2 -11 -17 -11q-8 0 -13 5t-5 14q0 6 4 12.5t14 6.5t14 -7t4 -15h-26zM462 17q0 -6 7 -6t7 4q0 3 -5 4l-8 2q-3 0 -6 3t-3 6q0 5 3.5 8.5t11.5 3.5q7 0 10 -3q5 -3 5 -9h-8q0 5 -7 5q-6 0 -6 -3t3 -3l10 -3q6 -1 7 -4q2 -2 2 -6
q0 -5 -3.5 -8.5t-11.5 -3.5q-17 0 -17 13h9zM487 54h9v-8h-9v8zM487 41h9v-36h-9v36zM516 15q8 0 8 9q0 10 -8 10t-8 -10q0 -9 8 -9zM510 4q0 -4 6 -4q8 0 8 8v4q-2 -6 -10 -6q-16 0 -16 18t16 18q6 0 8 -2.5t2 -3.5l1 5l9 -1v-32q0 -7 -3 -10q-4 -6 -15 -6q-8 0 -12 4
q-3 3 -4 8h10zM536 40h9v-4q2 6 10 6q12 0 12 -12v-25h-9v22q0 6 -6 6q-3 0 -6 -3q0 -1 -0.5 -2t-0.5 -3v-20h-9v35zM569 15h10v-10h-10v10zM615 18q-1 -10 -9 -13q-2 -1 -7 -1q-7 0 -11 3q-7 5 -7 16q0 7 3 12q5 7 15 7q14 0 16 -13l-9 -1q-2 6 -7 6q-8 0 -8 -11t8 -11
q3 0 4 1q3 1 3 5h9zM635 11q9 0 9 12q0 11 -9 11t-9 -11q0 -12 9 -12zM635 4q-18 0 -18 19t18 19q19 0 19 -19t-19 -19zM655 40h9l1 -4q3 6 9 6q7 0 11 -7q3 7 11 7q11 0 11 -12v-25h-9v22q0 6 -6 6t-6 -7v-21h-10v21v4q-2 3 -5 3q-6 0 -6 -7v-21h-10v35zM810 5q0 8 3.5 12
t7.5 7l7 5q2 2 4.5 4t2.5 7q0 7 -8 7q-7 0 -8 -10h-9v1q0 17 18 17q17 0 17 -16q0 -7 -4 -10.5t-7 -5.5l-8 -5l-4 -4h24v-9h-36zM867 12q4 0 7.5 3.5t3.5 14.5t-3.5 14.5t-7.5 3.5q-10 0 -10 -18q0 -7 1 -10t2 -5q3 -3 7 -3zM867 4q-8 0 -14.5 6t-6.5 20t6.5 20t14.5 6
t14.5 -6.5t6.5 -19.5q0 -14 -6.5 -20t-14.5 -6zM901 39h-12v6q4 0 8 2q5 3 6 7h8v-49h-10v34zM935 24v19l-15 -19h15zM912 26l23 28h10v-30h7v-8h-7v-11h-10v11h-23v10zM781 26q0 -5 -3.5 -7.5t-7.5 -2.5q-13 0 -13 14q0 5 2 9.5t10 4.5q6 0 9 -3l3 -6h-6q0 5 -5 5
q-8 0 -8 -10q0 -9 8 -9q3 0 5 2q0 1 0.5 1.5t0.5 1.5h5zM769 57q11 0 19 -8t8 -19t-8 -19t-19 -8t-19 8t-8 19t8 19t19 8zM769 49q-8 0 -13.5 -5.5t-5.5 -13.5t5.5 -14t13.5 -6t14 6t6 14t-6 13.5t-14 5.5zM550 113q7 0 13 6.5t6 21.5t-6 21t-14 6t-14 -6t-6 -22
q0 -14 6 -20.5t14 -6.5h1zM654 150q-2 9 -7.5 13.5t-12.5 4.5t-12.5 -5t-7.5 -13h40zM511 167q11 20 33 20q18 0 25 -13v45h24v-60q4 11 14 19.5t28 8.5q25 0 35 -17t10 -37h-66q2 -22 22 -22q12 0 18 12l23 -2q-1 2 -1 4h22q2 -16 20 -16q10 0 13 4t3 6q0 3 -2 6t-10 5
l-19 4q-8 2 -11.5 4t-5.5 4q-7 9 -7 17q0 11 9 20t28 9q10 0 16 -2t11 -5q12 -10 12 -23l-21 -1q0 5 -4.5 9.5t-13.5 4.5t-12 -3t-3 -6q0 -5 8 -8l25 -6q8 -2 12 -4t6 -5q6 -8 6 -16q0 -12 -10 -21.5t-30 -9.5q-17 0 -27.5 7.5t-13.5 18.5q-4 -11 -14.5 -18.5t-27.5 -7.5
q-31 0 -42 29v-26h-23l-1 10q-10 -13 -26 -13q-17 0 -27 13q-2 2 -2 3v-16h-24v56q0 15 -14 15q-16 0 -16 -18v-53h-24v53q0 9 -1 10q-4 8 -12 8q-16 0 -16 -20l-1 -51h-24l1 89h23l1 -12q7 15 24 15q9 0 16 -4.5t11 -11.5q8 16 27 16q18 0 26 -17zM826 118q8 0 14 6.5
t6 18.5q0 11 -6 17.5t-15 6.5q-8 0 -14 -6.5t-6 -17.5q0 -12 6 -18.5t15 -6.5zM783 95h-24v89h24v-22q11 25 37 25q14 0 19 -5t7 -8v-1l1 11h23v-83q0 -10 -1.5 -14.5t-4.5 -9.5q-5 -5 -14 -10t-24 -5q-23 0 -32 11q-8 6 -9 17l25 1q2 -10 16 -10q20 0 20 21v9
q-2 -5 -8.5 -9t-17.5 -4q-26 0 -37 26v-29zM874 184h23l1 -10q7 13 25 13q14 0 22.5 -8t8.5 -21v-63h-24v55q0 16 -14 16q-10 0 -15 -8q-3 -5 -3 -13v-50h-24v89zM46 110q8 0 14 6.5t6 20.5q0 16 -6 22t-14 6t-14 -6.5t-6 -20.5q0 -15 6 -21.5t14 -6.5zM189 139l-4 -2t-6 -2
l-10 -3q-11 -4 -14 -7t-3 -6q0 -5 3.5 -8.5t11.5 -3.5q21 0 21 21zM191 92q-1 2 -3 10q-8 -13 -25 -13t-25.5 8.5t-8.5 19.5t8 19q3 2 8.5 5t20.5 5l13 3q9 1 9 8q0 3 -3.5 6.5t-12.5 3.5t-13 -4t-4 -9h-21v2q0 4 1 6q-8 0 -15 -7q-3 -3 -5 -8t-2 -16v-39h-24v27
q-5 -15 -15 -22.5t-22 -7.5q-16 0 -25 12l-2 -9h-23v124h24v-45q4 5 10 9t16 4q12 0 22 -8t15 -22v27h23l1 -14q5 16 22 16h5v-11q10 12 32 12t31 -9t9 -25v-49q0 -5 3 -8v88l24 -1l1 -10q2 5 8 9.5t16 4.5q14 0 22.5 -8.5t8.5 -21.5v-62h-24v55q0 15 -14 15q-8 0 -15 -7
q-3 -5 -3 -13v-50h-24h-24zM355 102q-10 -13 -25 -13q-13 0 -23 8q-4 4 -6 9t-2 14v61h24v-53q0 -17 14 -17q8 0 13 5t5 15v50h23v-89h-22zM326 597h-84v197h98q28 0 48.5 -17t31.5 -42q14 -30 4 -65q-9 -33 -36.5 -53t-61.5 -20zM342 277h-100v232h118q33 0 58 -20t38 -49
q16 -38 5 -77t-44 -62.5t-75 -23.5z" />
    <glyph glyph-name="asciitilde" unicode="~" horiz-adv-x="1020" 
d="M544 794q63 0 109 -21.5t81 -62.5q26 -31 42 -75t16 -98q0 -60 -19 -108t-51.5 -81.5t-76.5 -51.5t-94 -18h-13q30 44 30 100q0 34 -11 64.5t-29.5 55.5t-43 42t-52.5 25q38 16 64 56t26 91q0 46 -21 82h43zM2 40h9l6 -22l6 22h8l6 -22l6 22h10l-11 -35h-9l-6 23l-6 -23
h-9zM53 40h10l6 -22l6 22h8l6 -22l6 22h10l-11 -35h-9l-6 23l-7 -23h-9zM105 40h10l5 -22l7 22h8l6 -22l6 22h9l-10 -35h-9l-6 23l-7 -23h-9zM158 15h10v-10h-10v10zM187 12q8 0 8 11t-8 11t-8 -11t8 -11zM170 54h9v-18q4 6 11 6q5 0 10 -5t5 -14t-5 -14t-11 -5q-5 0 -10 5
v-4h-9v49zM207 40h9v-5q1 6 9 6h2v-8h-2q-3 0 -6 -3q-3 -2 -3 -9v-16h-10zM247 24l-4 -2l-4 -1q-5 -2 -5.5 -3t-0.5 -2q0 -5 6 -5q8 0 8 8v5zM247 9q-3 -5 -10 -5t-10 3.5t-3 7.5q0 5 3 8q1 1 3 2t8 2l6 1q3 0 3 3q0 4 -6 4q-7 0 -7 -5h-8q-1 5 3 8.5t12 3.5q15 0 15 -14
v-19l2 -4h-10q0 1 -0.5 2t-0.5 2zM260 40h9v-4q4 6 10 6q12 0 12 -12v-25h-9v22q0 6 -6 6q-3 0 -6 -3q0 -1 -0.5 -2t-0.5 -3v-20h-9v35zM315 9q-3 -5 -10 -5q-6 0 -9 3t-3 9v1v23h9v-21q0 -6 6 -6q7 0 7 8v19h10v-35h-9zM326 40h10v-4q3 6 10 6q6 0 10 -7q3 7 11 7
q11 0 11 -12v-25h-9v22q0 6 -6 6t-6 -7v-21h-9v21q0 1 -0.5 1.5t-0.5 1.5v1q0 3 -5 3q-6 0 -6 -7v-21h-10v35zM398 12q7 0 7 11t-8 11t-8 -11t9 -11zM405 9q-3 -5 -10 -5q-6 0 -11 5q-4 5 -4 14t4.5 14t10.5 5q7 0 10 -5v17h10v-49h-10v4zM442 27q-1 7 -8 7q-6 0 -8 -7h16z
M426 20q0 -8 8 -8q5 0 8 4l9 -1q-2 -11 -17 -11q-8 0 -13 5t-5 14q0 6 4 12.5t14 6.5t14 -7t4 -15h-26zM462 17q0 -6 7 -6t7 4q0 3 -5 4l-8 2q-3 0 -6 3t-3 6q0 5 3.5 8.5t11.5 3.5q7 0 10 -3q5 -3 5 -9h-8q0 5 -7 5q-6 0 -6 -3t3 -3l10 -3q6 -1 7 -4q2 -2 2 -6
q0 -5 -3.5 -8.5t-11.5 -3.5q-17 0 -17 13h9zM487 54h9v-8h-9v8zM487 41h9v-36h-9v36zM516 15q8 0 8 9q0 10 -8 10t-8 -10q0 -9 8 -9zM510 4q0 -4 6 -4q8 0 8 8v4q-2 -6 -10 -6q-16 0 -16 18t16 18q6 0 8 -2.5t2 -3.5l1 5l9 -1v-32q0 -7 -3 -10q-4 -6 -15 -6q-8 0 -12 4
q-3 3 -4 8h10zM536 40h9v-4q2 6 10 6q12 0 12 -12v-25h-9v22q0 6 -6 6q-3 0 -6 -3q0 -1 -0.5 -2t-0.5 -3v-20h-9v35zM569 15h10v-10h-10v10zM615 18q-1 -10 -9 -13q-2 -1 -7 -1q-7 0 -11 3q-7 5 -7 16q0 7 3 12q5 7 15 7q14 0 16 -13l-9 -1q-2 6 -7 6q-8 0 -8 -11t8 -11
q3 0 4 1q3 1 3 5h9zM635 11q9 0 9 12q0 11 -9 11t-9 -11q0 -12 9 -12zM635 4q-18 0 -18 19t18 19q19 0 19 -19t-19 -19zM655 40h9l1 -4q3 6 9 6q7 0 11 -7q3 7 11 7q11 0 11 -12v-25h-9v22q0 6 -6 6t-6 -7v-21h-10v21v4q-2 3 -5 3q-6 0 -6 -7v-21h-10v35zM810 5q0 8 3.5 12
t7.5 7l7 5q2 2 4.5 4t2.5 7q0 7 -8 7q-7 0 -8 -10h-9v1q0 17 18 17q17 0 17 -16q0 -7 -4 -10.5t-7 -5.5l-8 -5l-4 -4h24v-9h-36zM867 12q4 0 7.5 3.5t3.5 14.5t-3.5 14.5t-7.5 3.5q-10 0 -10 -18q0 -7 1 -10t2 -5q3 -3 7 -3zM867 4q-8 0 -14.5 6t-6.5 20t6.5 20t14.5 6
t14.5 -6.5t6.5 -19.5q0 -14 -6.5 -20t-14.5 -6zM901 39h-12v6q4 0 8 2q5 3 6 7h8v-49h-10v34zM935 24v19l-15 -19h15zM912 26l23 28h10v-30h7v-8h-7v-11h-10v11h-23v10zM781 26q0 -5 -3.5 -7.5t-7.5 -2.5q-13 0 -13 14q0 5 2 9.5t10 4.5q6 0 9 -3l3 -6h-6q0 5 -5 5
q-8 0 -8 -10q0 -9 8 -9q3 0 5 2q0 1 0.5 1.5t0.5 1.5h5zM769 57q11 0 19 -8t8 -19t-8 -19t-19 -8t-19 8t-8 19t8 19t19 8zM769 49q-8 0 -13.5 -5.5t-5.5 -13.5t5.5 -14t13.5 -6t14 6t6 14t-6 13.5t-14 5.5zM550 113q7 0 13 6.5t6 21.5t-6 21t-14 6t-14 -6t-6 -22
q0 -14 6 -20.5t14 -6.5h1zM654 150q-2 9 -7.5 13.5t-12.5 4.5t-12.5 -5t-7.5 -13h40zM511 167q11 20 33 20q18 0 25 -13v45h24v-60q4 11 14 19.5t28 8.5q25 0 35 -17t10 -37h-66q2 -22 22 -22q12 0 18 12l23 -2q-1 2 -1 4h22q2 -16 20 -16q10 0 13 4t3 6q0 3 -2 6t-10 5
l-19 4q-8 2 -11.5 4t-5.5 4q-7 9 -7 17q0 11 9 20t28 9q10 0 16 -2t11 -5q12 -10 12 -23l-21 -1q0 5 -4.5 9.5t-13.5 4.5t-12 -3t-3 -6q0 -5 8 -8l25 -6q8 -2 12 -4t6 -5q6 -8 6 -16q0 -12 -10 -21.5t-30 -9.5q-17 0 -27.5 7.5t-13.5 18.5q-4 -11 -14.5 -18.5t-27.5 -7.5
q-31 0 -42 29v-26h-23l-1 10q-10 -13 -26 -13q-17 0 -27 13q-2 2 -2 3v-16h-24v56q0 15 -14 15q-16 0 -16 -18v-53h-24v53q0 9 -1 10q-4 8 -12 8q-16 0 -16 -20l-1 -51h-24l1 89h23l1 -12q7 15 24 15q9 0 16 -4.5t11 -11.5q8 16 27 16q18 0 26 -17zM826 118q8 0 14 6.5
t6 18.5q0 11 -6 17.5t-15 6.5q-8 0 -14 -6.5t-6 -17.5q0 -12 6 -18.5t15 -6.5zM783 95h-24v89h24v-22q11 25 37 25q14 0 19 -5t7 -8v-1l1 11h23v-83q0 -10 -1.5 -14.5t-4.5 -9.5q-5 -5 -14 -10t-24 -5q-23 0 -32 11q-8 6 -9 17l25 1q2 -10 16 -10q20 0 20 21v9
q-2 -5 -8.5 -9t-17.5 -4q-26 0 -37 26v-29zM874 184h23l1 -10q7 13 25 13q14 0 22.5 -8t8.5 -21v-63h-24v55q0 16 -14 16q-10 0 -15 -8q-3 -5 -3 -13v-50h-24v89zM46 110q8 0 14 6.5t6 20.5q0 16 -6 22t-14 6t-14 -6.5t-6 -20.5q0 -15 6 -21.5t14 -6.5zM189 139l-4 -2t-6 -2
l-10 -3q-11 -4 -14 -7t-3 -6q0 -5 3.5 -8.5t11.5 -3.5q21 0 21 21zM191 92q-1 2 -3 10q-8 -13 -25 -13t-25.5 8.5t-8.5 19.5t8 19q3 2 8.5 5t20.5 5l13 3q9 1 9 8q0 3 -3.5 6.5t-12.5 3.5t-13 -4t-4 -9h-21v2q0 4 1 6q-8 0 -15 -7q-3 -3 -5 -8t-2 -16v-39h-24v27
q-5 -15 -15 -22.5t-22 -7.5q-16 0 -25 12l-2 -9h-23v124h24v-45q4 5 10 9t16 4q12 0 22 -8t15 -22v27h23l1 -14q5 16 22 16h5v-11q10 12 32 12t31 -9t9 -25v-49q0 -5 3 -8v88l24 -1l1 -10q2 5 8 9.5t16 4.5q14 0 22.5 -8.5t8.5 -21.5v-62h-24v55q0 15 -14 15q-8 0 -15 -7
q-3 -5 -3 -13v-50h-24h-24zM355 102q-10 -13 -25 -13q-13 0 -23 8q-4 4 -6 9t-2 14v61h24v-53q0 -17 14 -17q8 0 13 5t5 15v50h23v-89h-22zM326 597h-84v197h98q28 0 48.5 -17t31.5 -42q14 -30 4 -65q-9 -33 -36.5 -53t-61.5 -20zM342 277h-100v232h118q33 0 58 -20t38 -49
q16 -38 5 -77t-44 -62.5t-75 -23.5z" />
    <glyph glyph-name="Euro" unicode="&#x20ac;" horiz-adv-x="1020" 
d="M544 794q63 0 109 -21.5t81 -62.5q26 -31 42 -75t16 -98q0 -60 -19 -108t-51.5 -81.5t-76.5 -51.5t-94 -18h-13q30 44 30 100q0 34 -11 64.5t-29.5 55.5t-43 42t-52.5 25q38 16 64 56t26 91q0 46 -21 82h43zM2 40h9l6 -22l6 22h8l6 -22l6 22h10l-11 -35h-9l-6 23l-6 -23
h-9zM53 40h10l6 -22l6 22h8l6 -22l6 22h10l-11 -35h-9l-6 23l-7 -23h-9zM105 40h10l5 -22l7 22h8l6 -22l6 22h9l-10 -35h-9l-6 23l-7 -23h-9zM158 15h10v-10h-10v10zM187 12q8 0 8 11t-8 11t-8 -11t8 -11zM170 54h9v-18q4 6 11 6q5 0 10 -5t5 -14t-5 -14t-11 -5q-5 0 -10 5
v-4h-9v49zM207 40h9v-5q1 6 9 6h2v-8h-2q-3 0 -6 -3q-3 -2 -3 -9v-16h-10zM247 24l-4 -2l-4 -1q-5 -2 -5.5 -3t-0.5 -2q0 -5 6 -5q8 0 8 8v5zM247 9q-3 -5 -10 -5t-10 3.5t-3 7.5q0 5 3 8q1 1 3 2t8 2l6 1q3 0 3 3q0 4 -6 4q-7 0 -7 -5h-8q-1 5 3 8.5t12 3.5q15 0 15 -14
v-19l2 -4h-10q0 1 -0.5 2t-0.5 2zM260 40h9v-4q4 6 10 6q12 0 12 -12v-25h-9v22q0 6 -6 6q-3 0 -6 -3q0 -1 -0.5 -2t-0.5 -3v-20h-9v35zM315 9q-3 -5 -10 -5q-6 0 -9 3t-3 9v1v23h9v-21q0 -6 6 -6q7 0 7 8v19h10v-35h-9zM326 40h10v-4q3 6 10 6q6 0 10 -7q3 7 11 7
q11 0 11 -12v-25h-9v22q0 6 -6 6t-6 -7v-21h-9v21q0 1 -0.5 1.5t-0.5 1.5v1q0 3 -5 3q-6 0 -6 -7v-21h-10v35zM398 12q7 0 7 11t-8 11t-8 -11t9 -11zM405 9q-3 -5 -10 -5q-6 0 -11 5q-4 5 -4 14t4.5 14t10.5 5q7 0 10 -5v17h10v-49h-10v4zM442 27q-1 7 -8 7q-6 0 -8 -7h16z
M426 20q0 -8 8 -8q5 0 8 4l9 -1q-2 -11 -17 -11q-8 0 -13 5t-5 14q0 6 4 12.5t14 6.5t14 -7t4 -15h-26zM462 17q0 -6 7 -6t7 4q0 3 -5 4l-8 2q-3 0 -6 3t-3 6q0 5 3.5 8.5t11.5 3.5q7 0 10 -3q5 -3 5 -9h-8q0 5 -7 5q-6 0 -6 -3t3 -3l10 -3q6 -1 7 -4q2 -2 2 -6
q0 -5 -3.5 -8.5t-11.5 -3.5q-17 0 -17 13h9zM487 54h9v-8h-9v8zM487 41h9v-36h-9v36zM516 15q8 0 8 9q0 10 -8 10t-8 -10q0 -9 8 -9zM510 4q0 -4 6 -4q8 0 8 8v4q-2 -6 -10 -6q-16 0 -16 18t16 18q6 0 8 -2.5t2 -3.5l1 5l9 -1v-32q0 -7 -3 -10q-4 -6 -15 -6q-8 0 -12 4
q-3 3 -4 8h10zM536 40h9v-4q2 6 10 6q12 0 12 -12v-25h-9v22q0 6 -6 6q-3 0 -6 -3q0 -1 -0.5 -2t-0.5 -3v-20h-9v35zM569 15h10v-10h-10v10zM615 18q-1 -10 -9 -13q-2 -1 -7 -1q-7 0 -11 3q-7 5 -7 16q0 7 3 12q5 7 15 7q14 0 16 -13l-9 -1q-2 6 -7 6q-8 0 -8 -11t8 -11
q3 0 4 1q3 1 3 5h9zM635 11q9 0 9 12q0 11 -9 11t-9 -11q0 -12 9 -12zM635 4q-18 0 -18 19t18 19q19 0 19 -19t-19 -19zM655 40h9l1 -4q3 6 9 6q7 0 11 -7q3 7 11 7q11 0 11 -12v-25h-9v22q0 6 -6 6t-6 -7v-21h-10v21v4q-2 3 -5 3q-6 0 -6 -7v-21h-10v35zM810 5q0 8 3.5 12
t7.5 7l7 5q2 2 4.5 4t2.5 7q0 7 -8 7q-7 0 -8 -10h-9v1q0 17 18 17q17 0 17 -16q0 -7 -4 -10.5t-7 -5.5l-8 -5l-4 -4h24v-9h-36zM867 12q4 0 7.5 3.5t3.5 14.5t-3.5 14.5t-7.5 3.5q-10 0 -10 -18q0 -7 1 -10t2 -5q3 -3 7 -3zM867 4q-8 0 -14.5 6t-6.5 20t6.5 20t14.5 6
t14.5 -6.5t6.5 -19.5q0 -14 -6.5 -20t-14.5 -6zM901 39h-12v6q4 0 8 2q5 3 6 7h8v-49h-10v34zM935 24v19l-15 -19h15zM912 26l23 28h10v-30h7v-8h-7v-11h-10v11h-23v10zM781 26q0 -5 -3.5 -7.5t-7.5 -2.5q-13 0 -13 14q0 5 2 9.5t10 4.5q6 0 9 -3l3 -6h-6q0 5 -5 5
q-8 0 -8 -10q0 -9 8 -9q3 0 5 2q0 1 0.5 1.5t0.5 1.5h5zM769 57q11 0 19 -8t8 -19t-8 -19t-19 -8t-19 8t-8 19t8 19t19 8zM769 49q-8 0 -13.5 -5.5t-5.5 -13.5t5.5 -14t13.5 -6t14 6t6 14t-6 13.5t-14 5.5zM550 113q7 0 13 6.5t6 21.5t-6 21t-14 6t-14 -6t-6 -22
q0 -14 6 -20.5t14 -6.5h1zM654 150q-2 9 -7.5 13.5t-12.5 4.5t-12.5 -5t-7.5 -13h40zM511 167q11 20 33 20q18 0 25 -13v45h24v-60q4 11 14 19.5t28 8.5q25 0 35 -17t10 -37h-66q2 -22 22 -22q12 0 18 12l23 -2q-1 2 -1 4h22q2 -16 20 -16q10 0 13 4t3 6q0 3 -2 6t-10 5
l-19 4q-8 2 -11.5 4t-5.5 4q-7 9 -7 17q0 11 9 20t28 9q10 0 16 -2t11 -5q12 -10 12 -23l-21 -1q0 5 -4.5 9.5t-13.5 4.5t-12 -3t-3 -6q0 -5 8 -8l25 -6q8 -2 12 -4t6 -5q6 -8 6 -16q0 -12 -10 -21.5t-30 -9.5q-17 0 -27.5 7.5t-13.5 18.5q-4 -11 -14.5 -18.5t-27.5 -7.5
q-31 0 -42 29v-26h-23l-1 10q-10 -13 -26 -13q-17 0 -27 13q-2 2 -2 3v-16h-24v56q0 15 -14 15q-16 0 -16 -18v-53h-24v53q0 9 -1 10q-4 8 -12 8q-16 0 -16 -20l-1 -51h-24l1 89h23l1 -12q7 15 24 15q9 0 16 -4.5t11 -11.5q8 16 27 16q18 0 26 -17zM826 118q8 0 14 6.5
t6 18.5q0 11 -6 17.5t-15 6.5q-8 0 -14 -6.5t-6 -17.5q0 -12 6 -18.5t15 -6.5zM783 95h-24v89h24v-22q11 25 37 25q14 0 19 -5t7 -8v-1l1 11h23v-83q0 -10 -1.5 -14.5t-4.5 -9.5q-5 -5 -14 -10t-24 -5q-23 0 -32 11q-8 6 -9 17l25 1q2 -10 16 -10q20 0 20 21v9
q-2 -5 -8.5 -9t-17.5 -4q-26 0 -37 26v-29zM874 184h23l1 -10q7 13 25 13q14 0 22.5 -8t8.5 -21v-63h-24v55q0 16 -14 16q-10 0 -15 -8q-3 -5 -3 -13v-50h-24v89zM46 110q8 0 14 6.5t6 20.5q0 16 -6 22t-14 6t-14 -6.5t-6 -20.5q0 -15 6 -21.5t14 -6.5zM189 139l-4 -2t-6 -2
l-10 -3q-11 -4 -14 -7t-3 -6q0 -5 3.5 -8.5t11.5 -3.5q21 0 21 21zM191 92q-1 2 -3 10q-8 -13 -25 -13t-25.5 8.5t-8.5 19.5t8 19q3 2 8.5 5t20.5 5l13 3q9 1 9 8q0 3 -3.5 6.5t-12.5 3.5t-13 -4t-4 -9h-21v2q0 4 1 6q-8 0 -15 -7q-3 -3 -5 -8t-2 -16v-39h-24v27
q-5 -15 -15 -22.5t-22 -7.5q-16 0 -25 12l-2 -9h-23v124h24v-45q4 5 10 9t16 4q12 0 22 -8t15 -22v27h23l1 -14q5 16 22 16h5v-11q10 12 32 12t31 -9t9 -25v-49q0 -5 3 -8v88l24 -1l1 -10q2 5 8 9.5t16 4.5q14 0 22.5 -8.5t8.5 -21.5v-62h-24v55q0 15 -14 15q-8 0 -15 -7
q-3 -5 -3 -13v-50h-24h-24zM355 102q-10 -13 -25 -13q-13 0 -23 8q-4 4 -6 9t-2 14v61h24v-53q0 -17 14 -17q8 0 13 5t5 15v50h23v-89h-22zM326 597h-84v197h98q28 0 48.5 -17t31.5 -42q14 -30 4 -65q-9 -33 -36.5 -53t-61.5 -20zM342 277h-100v232h118q33 0 58 -20t38 -49
q16 -38 5 -77t-44 -62.5t-75 -23.5z" />
    <glyph glyph-name="florin" unicode="&#x192;" horiz-adv-x="1020" 
d="M544 794q63 0 109 -21.5t81 -62.5q26 -31 42 -75t16 -98q0 -60 -19 -108t-51.5 -81.5t-76.5 -51.5t-94 -18h-13q30 44 30 100q0 34 -11 64.5t-29.5 55.5t-43 42t-52.5 25q38 16 64 56t26 91q0 46 -21 82h43zM2 40h9l6 -22l6 22h8l6 -22l6 22h10l-11 -35h-9l-6 23l-6 -23
h-9zM53 40h10l6 -22l6 22h8l6 -22l6 22h10l-11 -35h-9l-6 23l-7 -23h-9zM105 40h10l5 -22l7 22h8l6 -22l6 22h9l-10 -35h-9l-6 23l-7 -23h-9zM158 15h10v-10h-10v10zM187 12q8 0 8 11t-8 11t-8 -11t8 -11zM170 54h9v-18q4 6 11 6q5 0 10 -5t5 -14t-5 -14t-11 -5q-5 0 -10 5
v-4h-9v49zM207 40h9v-5q1 6 9 6h2v-8h-2q-3 0 -6 -3q-3 -2 -3 -9v-16h-10zM247 24l-4 -2l-4 -1q-5 -2 -5.5 -3t-0.5 -2q0 -5 6 -5q8 0 8 8v5zM247 9q-3 -5 -10 -5t-10 3.5t-3 7.5q0 5 3 8q1 1 3 2t8 2l6 1q3 0 3 3q0 4 -6 4q-7 0 -7 -5h-8q-1 5 3 8.5t12 3.5q15 0 15 -14
v-19l2 -4h-10q0 1 -0.5 2t-0.5 2zM260 40h9v-4q4 6 10 6q12 0 12 -12v-25h-9v22q0 6 -6 6q-3 0 -6 -3q0 -1 -0.5 -2t-0.5 -3v-20h-9v35zM315 9q-3 -5 -10 -5q-6 0 -9 3t-3 9v1v23h9v-21q0 -6 6 -6q7 0 7 8v19h10v-35h-9zM326 40h10v-4q3 6 10 6q6 0 10 -7q3 7 11 7
q11 0 11 -12v-25h-9v22q0 6 -6 6t-6 -7v-21h-9v21q0 1 -0.5 1.5t-0.5 1.5v1q0 3 -5 3q-6 0 -6 -7v-21h-10v35zM398 12q7 0 7 11t-8 11t-8 -11t9 -11zM405 9q-3 -5 -10 -5q-6 0 -11 5q-4 5 -4 14t4.5 14t10.5 5q7 0 10 -5v17h10v-49h-10v4zM442 27q-1 7 -8 7q-6 0 -8 -7h16z
M426 20q0 -8 8 -8q5 0 8 4l9 -1q-2 -11 -17 -11q-8 0 -13 5t-5 14q0 6 4 12.5t14 6.5t14 -7t4 -15h-26zM462 17q0 -6 7 -6t7 4q0 3 -5 4l-8 2q-3 0 -6 3t-3 6q0 5 3.5 8.5t11.5 3.5q7 0 10 -3q5 -3 5 -9h-8q0 5 -7 5q-6 0 -6 -3t3 -3l10 -3q6 -1 7 -4q2 -2 2 -6
q0 -5 -3.5 -8.5t-11.5 -3.5q-17 0 -17 13h9zM487 54h9v-8h-9v8zM487 41h9v-36h-9v36zM516 15q8 0 8 9q0 10 -8 10t-8 -10q0 -9 8 -9zM510 4q0 -4 6 -4q8 0 8 8v4q-2 -6 -10 -6q-16 0 -16 18t16 18q6 0 8 -2.5t2 -3.5l1 5l9 -1v-32q0 -7 -3 -10q-4 -6 -15 -6q-8 0 -12 4
q-3 3 -4 8h10zM536 40h9v-4q2 6 10 6q12 0 12 -12v-25h-9v22q0 6 -6 6q-3 0 -6 -3q0 -1 -0.5 -2t-0.5 -3v-20h-9v35zM569 15h10v-10h-10v10zM615 18q-1 -10 -9 -13q-2 -1 -7 -1q-7 0 -11 3q-7 5 -7 16q0 7 3 12q5 7 15 7q14 0 16 -13l-9 -1q-2 6 -7 6q-8 0 -8 -11t8 -11
q3 0 4 1q3 1 3 5h9zM635 11q9 0 9 12q0 11 -9 11t-9 -11q0 -12 9 -12zM635 4q-18 0 -18 19t18 19q19 0 19 -19t-19 -19zM655 40h9l1 -4q3 6 9 6q7 0 11 -7q3 7 11 7q11 0 11 -12v-25h-9v22q0 6 -6 6t-6 -7v-21h-10v21v4q-2 3 -5 3q-6 0 -6 -7v-21h-10v35zM810 5q0 8 3.5 12
t7.5 7l7 5q2 2 4.5 4t2.5 7q0 7 -8 7q-7 0 -8 -10h-9v1q0 17 18 17q17 0 17 -16q0 -7 -4 -10.5t-7 -5.5l-8 -5l-4 -4h24v-9h-36zM867 12q4 0 7.5 3.5t3.5 14.5t-3.5 14.5t-7.5 3.5q-10 0 -10 -18q0 -7 1 -10t2 -5q3 -3 7 -3zM867 4q-8 0 -14.5 6t-6.5 20t6.5 20t14.5 6
t14.5 -6.5t6.5 -19.5q0 -14 -6.5 -20t-14.5 -6zM901 39h-12v6q4 0 8 2q5 3 6 7h8v-49h-10v34zM935 24v19l-15 -19h15zM912 26l23 28h10v-30h7v-8h-7v-11h-10v11h-23v10zM781 26q0 -5 -3.5 -7.5t-7.5 -2.5q-13 0 -13 14q0 5 2 9.5t10 4.5q6 0 9 -3l3 -6h-6q0 5 -5 5
q-8 0 -8 -10q0 -9 8 -9q3 0 5 2q0 1 0.5 1.5t0.5 1.5h5zM769 57q11 0 19 -8t8 -19t-8 -19t-19 -8t-19 8t-8 19t8 19t19 8zM769 49q-8 0 -13.5 -5.5t-5.5 -13.5t5.5 -14t13.5 -6t14 6t6 14t-6 13.5t-14 5.5zM550 113q7 0 13 6.5t6 21.5t-6 21t-14 6t-14 -6t-6 -22
q0 -14 6 -20.5t14 -6.5h1zM654 150q-2 9 -7.5 13.5t-12.5 4.5t-12.5 -5t-7.5 -13h40zM511 167q11 20 33 20q18 0 25 -13v45h24v-60q4 11 14 19.5t28 8.5q25 0 35 -17t10 -37h-66q2 -22 22 -22q12 0 18 12l23 -2q-1 2 -1 4h22q2 -16 20 -16q10 0 13 4t3 6q0 3 -2 6t-10 5
l-19 4q-8 2 -11.5 4t-5.5 4q-7 9 -7 17q0 11 9 20t28 9q10 0 16 -2t11 -5q12 -10 12 -23l-21 -1q0 5 -4.5 9.5t-13.5 4.5t-12 -3t-3 -6q0 -5 8 -8l25 -6q8 -2 12 -4t6 -5q6 -8 6 -16q0 -12 -10 -21.5t-30 -9.5q-17 0 -27.5 7.5t-13.5 18.5q-4 -11 -14.5 -18.5t-27.5 -7.5
q-31 0 -42 29v-26h-23l-1 10q-10 -13 -26 -13q-17 0 -27 13q-2 2 -2 3v-16h-24v56q0 15 -14 15q-16 0 -16 -18v-53h-24v53q0 9 -1 10q-4 8 -12 8q-16 0 -16 -20l-1 -51h-24l1 89h23l1 -12q7 15 24 15q9 0 16 -4.5t11 -11.5q8 16 27 16q18 0 26 -17zM826 118q8 0 14 6.5
t6 18.5q0 11 -6 17.5t-15 6.5q-8 0 -14 -6.5t-6 -17.5q0 -12 6 -18.5t15 -6.5zM783 95h-24v89h24v-22q11 25 37 25q14 0 19 -5t7 -8v-1l1 11h23v-83q0 -10 -1.5 -14.5t-4.5 -9.5q-5 -5 -14 -10t-24 -5q-23 0 -32 11q-8 6 -9 17l25 1q2 -10 16 -10q20 0 20 21v9
q-2 -5 -8.5 -9t-17.5 -4q-26 0 -37 26v-29zM874 184h23l1 -10q7 13 25 13q14 0 22.5 -8t8.5 -21v-63h-24v55q0 16 -14 16q-10 0 -15 -8q-3 -5 -3 -13v-50h-24v89zM46 110q8 0 14 6.5t6 20.5q0 16 -6 22t-14 6t-14 -6.5t-6 -20.5q0 -15 6 -21.5t14 -6.5zM189 139l-4 -2t-6 -2
l-10 -3q-11 -4 -14 -7t-3 -6q0 -5 3.5 -8.5t11.5 -3.5q21 0 21 21zM191 92q-1 2 -3 10q-8 -13 -25 -13t-25.5 8.5t-8.5 19.5t8 19q3 2 8.5 5t20.5 5l13 3q9 1 9 8q0 3 -3.5 6.5t-12.5 3.5t-13 -4t-4 -9h-21v2q0 4 1 6q-8 0 -15 -7q-3 -3 -5 -8t-2 -16v-39h-24v27
q-5 -15 -15 -22.5t-22 -7.5q-16 0 -25 12l-2 -9h-23v124h24v-45q4 5 10 9t16 4q12 0 22 -8t15 -22v27h23l1 -14q5 16 22 16h5v-11q10 12 32 12t31 -9t9 -25v-49q0 -5 3 -8v88l24 -1l1 -10q2 5 8 9.5t16 4.5q14 0 22.5 -8.5t8.5 -21.5v-62h-24v55q0 15 -14 15q-8 0 -15 -7
q-3 -5 -3 -13v-50h-24h-24zM355 102q-10 -13 -25 -13q-13 0 -23 8q-4 4 -6 9t-2 14v61h24v-53q0 -17 14 -17q8 0 13 5t5 15v50h23v-89h-22zM326 597h-84v197h98q28 0 48.5 -17t31.5 -42q14 -30 4 -65q-9 -33 -36.5 -53t-61.5 -20zM342 277h-100v232h118q33 0 58 -20t38 -49
q16 -38 5 -77t-44 -62.5t-75 -23.5z" />
    <glyph glyph-name="copyright" unicode="&#xa9;" horiz-adv-x="1020" 
d="M544 794q63 0 109 -21.5t81 -62.5q26 -31 42 -75t16 -98q0 -60 -19 -108t-51.5 -81.5t-76.5 -51.5t-94 -18h-13q30 44 30 100q0 34 -11 64.5t-29.5 55.5t-43 42t-52.5 25q38 16 64 56t26 91q0 46 -21 82h43zM2 40h9l6 -22l6 22h8l6 -22l6 22h10l-11 -35h-9l-6 23l-6 -23
h-9zM53 40h10l6 -22l6 22h8l6 -22l6 22h10l-11 -35h-9l-6 23l-7 -23h-9zM105 40h10l5 -22l7 22h8l6 -22l6 22h9l-10 -35h-9l-6 23l-7 -23h-9zM158 15h10v-10h-10v10zM187 12q8 0 8 11t-8 11t-8 -11t8 -11zM170 54h9v-18q4 6 11 6q5 0 10 -5t5 -14t-5 -14t-11 -5q-5 0 -10 5
v-4h-9v49zM207 40h9v-5q1 6 9 6h2v-8h-2q-3 0 -6 -3q-3 -2 -3 -9v-16h-10zM247 24l-4 -2l-4 -1q-5 -2 -5.5 -3t-0.5 -2q0 -5 6 -5q8 0 8 8v5zM247 9q-3 -5 -10 -5t-10 3.5t-3 7.5q0 5 3 8q1 1 3 2t8 2l6 1q3 0 3 3q0 4 -6 4q-7 0 -7 -5h-8q-1 5 3 8.5t12 3.5q15 0 15 -14
v-19l2 -4h-10q0 1 -0.5 2t-0.5 2zM260 40h9v-4q4 6 10 6q12 0 12 -12v-25h-9v22q0 6 -6 6q-3 0 -6 -3q0 -1 -0.5 -2t-0.5 -3v-20h-9v35zM315 9q-3 -5 -10 -5q-6 0 -9 3t-3 9v1v23h9v-21q0 -6 6 -6q7 0 7 8v19h10v-35h-9zM326 40h10v-4q3 6 10 6q6 0 10 -7q3 7 11 7
q11 0 11 -12v-25h-9v22q0 6 -6 6t-6 -7v-21h-9v21q0 1 -0.5 1.5t-0.5 1.5v1q0 3 -5 3q-6 0 -6 -7v-21h-10v35zM398 12q7 0 7 11t-8 11t-8 -11t9 -11zM405 9q-3 -5 -10 -5q-6 0 -11 5q-4 5 -4 14t4.5 14t10.5 5q7 0 10 -5v17h10v-49h-10v4zM442 27q-1 7 -8 7q-6 0 -8 -7h16z
M426 20q0 -8 8 -8q5 0 8 4l9 -1q-2 -11 -17 -11q-8 0 -13 5t-5 14q0 6 4 12.5t14 6.5t14 -7t4 -15h-26zM462 17q0 -6 7 -6t7 4q0 3 -5 4l-8 2q-3 0 -6 3t-3 6q0 5 3.5 8.5t11.5 3.5q7 0 10 -3q5 -3 5 -9h-8q0 5 -7 5q-6 0 -6 -3t3 -3l10 -3q6 -1 7 -4q2 -2 2 -6
q0 -5 -3.5 -8.5t-11.5 -3.5q-17 0 -17 13h9zM487 54h9v-8h-9v8zM487 41h9v-36h-9v36zM516 15q8 0 8 9q0 10 -8 10t-8 -10q0 -9 8 -9zM510 4q0 -4 6 -4q8 0 8 8v4q-2 -6 -10 -6q-16 0 -16 18t16 18q6 0 8 -2.5t2 -3.5l1 5l9 -1v-32q0 -7 -3 -10q-4 -6 -15 -6q-8 0 -12 4
q-3 3 -4 8h10zM536 40h9v-4q2 6 10 6q12 0 12 -12v-25h-9v22q0 6 -6 6q-3 0 -6 -3q0 -1 -0.5 -2t-0.5 -3v-20h-9v35zM569 15h10v-10h-10v10zM615 18q-1 -10 -9 -13q-2 -1 -7 -1q-7 0 -11 3q-7 5 -7 16q0 7 3 12q5 7 15 7q14 0 16 -13l-9 -1q-2 6 -7 6q-8 0 -8 -11t8 -11
q3 0 4 1q3 1 3 5h9zM635 11q9 0 9 12q0 11 -9 11t-9 -11q0 -12 9 -12zM635 4q-18 0 -18 19t18 19q19 0 19 -19t-19 -19zM655 40h9l1 -4q3 6 9 6q7 0 11 -7q3 7 11 7q11 0 11 -12v-25h-9v22q0 6 -6 6t-6 -7v-21h-10v21v4q-2 3 -5 3q-6 0 -6 -7v-21h-10v35zM810 5q0 8 3.5 12
t7.5 7l7 5q2 2 4.5 4t2.5 7q0 7 -8 7q-7 0 -8 -10h-9v1q0 17 18 17q17 0 17 -16q0 -7 -4 -10.5t-7 -5.5l-8 -5l-4 -4h24v-9h-36zM867 12q4 0 7.5 3.5t3.5 14.5t-3.5 14.5t-7.5 3.5q-10 0 -10 -18q0 -7 1 -10t2 -5q3 -3 7 -3zM867 4q-8 0 -14.5 6t-6.5 20t6.5 20t14.5 6
t14.5 -6.5t6.5 -19.5q0 -14 -6.5 -20t-14.5 -6zM901 39h-12v6q4 0 8 2q5 3 6 7h8v-49h-10v34zM935 24v19l-15 -19h15zM912 26l23 28h10v-30h7v-8h-7v-11h-10v11h-23v10zM781 26q0 -5 -3.5 -7.5t-7.5 -2.5q-13 0 -13 14q0 5 2 9.5t10 4.5q6 0 9 -3l3 -6h-6q0 5 -5 5
q-8 0 -8 -10q0 -9 8 -9q3 0 5 2q0 1 0.5 1.5t0.5 1.5h5zM769 57q11 0 19 -8t8 -19t-8 -19t-19 -8t-19 8t-8 19t8 19t19 8zM769 49q-8 0 -13.5 -5.5t-5.5 -13.5t5.5 -14t13.5 -6t14 6t6 14t-6 13.5t-14 5.5zM550 113q7 0 13 6.5t6 21.5t-6 21t-14 6t-14 -6t-6 -22
q0 -14 6 -20.5t14 -6.5h1zM654 150q-2 9 -7.5 13.5t-12.5 4.5t-12.5 -5t-7.5 -13h40zM511 167q11 20 33 20q18 0 25 -13v45h24v-60q4 11 14 19.5t28 8.5q25 0 35 -17t10 -37h-66q2 -22 22 -22q12 0 18 12l23 -2q-1 2 -1 4h22q2 -16 20 -16q10 0 13 4t3 6q0 3 -2 6t-10 5
l-19 4q-8 2 -11.5 4t-5.5 4q-7 9 -7 17q0 11 9 20t28 9q10 0 16 -2t11 -5q12 -10 12 -23l-21 -1q0 5 -4.5 9.5t-13.5 4.5t-12 -3t-3 -6q0 -5 8 -8l25 -6q8 -2 12 -4t6 -5q6 -8 6 -16q0 -12 -10 -21.5t-30 -9.5q-17 0 -27.5 7.5t-13.5 18.5q-4 -11 -14.5 -18.5t-27.5 -7.5
q-31 0 -42 29v-26h-23l-1 10q-10 -13 -26 -13q-17 0 -27 13q-2 2 -2 3v-16h-24v56q0 15 -14 15q-16 0 -16 -18v-53h-24v53q0 9 -1 10q-4 8 -12 8q-16 0 -16 -20l-1 -51h-24l1 89h23l1 -12q7 15 24 15q9 0 16 -4.5t11 -11.5q8 16 27 16q18 0 26 -17zM826 118q8 0 14 6.5
t6 18.5q0 11 -6 17.5t-15 6.5q-8 0 -14 -6.5t-6 -17.5q0 -12 6 -18.5t15 -6.5zM783 95h-24v89h24v-22q11 25 37 25q14 0 19 -5t7 -8v-1l1 11h23v-83q0 -10 -1.5 -14.5t-4.5 -9.5q-5 -5 -14 -10t-24 -5q-23 0 -32 11q-8 6 -9 17l25 1q2 -10 16 -10q20 0 20 21v9
q-2 -5 -8.5 -9t-17.5 -4q-26 0 -37 26v-29zM874 184h23l1 -10q7 13 25 13q14 0 22.5 -8t8.5 -21v-63h-24v55q0 16 -14 16q-10 0 -15 -8q-3 -5 -3 -13v-50h-24v89zM46 110q8 0 14 6.5t6 20.5q0 16 -6 22t-14 6t-14 -6.5t-6 -20.5q0 -15 6 -21.5t14 -6.5zM189 139l-4 -2t-6 -2
l-10 -3q-11 -4 -14 -7t-3 -6q0 -5 3.5 -8.5t11.5 -3.5q21 0 21 21zM191 92q-1 2 -3 10q-8 -13 -25 -13t-25.5 8.5t-8.5 19.5t8 19q3 2 8.5 5t20.5 5l13 3q9 1 9 8q0 3 -3.5 6.5t-12.5 3.5t-13 -4t-4 -9h-21v2q0 4 1 6q-8 0 -15 -7q-3 -3 -5 -8t-2 -16v-39h-24v27
q-5 -15 -15 -22.5t-22 -7.5q-16 0 -25 12l-2 -9h-23v124h24v-45q4 5 10 9t16 4q12 0 22 -8t15 -22v27h23l1 -14q5 16 22 16h5v-11q10 12 32 12t31 -9t9 -25v-49q0 -5 3 -8v88l24 -1l1 -10q2 5 8 9.5t16 4.5q14 0 22.5 -8.5t8.5 -21.5v-62h-24v55q0 15 -14 15q-8 0 -15 -7
q-3 -5 -3 -13v-50h-24h-24zM355 102q-10 -13 -25 -13q-13 0 -23 8q-4 4 -6 9t-2 14v61h24v-53q0 -17 14 -17q8 0 13 5t5 15v50h23v-89h-22zM326 597h-84v197h98q28 0 48.5 -17t31.5 -42q14 -30 4 -65q-9 -33 -36.5 -53t-61.5 -20zM342 277h-100v232h118q33 0 58 -20t38 -49
q16 -38 5 -77t-44 -62.5t-75 -23.5z" />
    <glyph glyph-name="registered" unicode="&#xae;" horiz-adv-x="1020" 
d="M544 794q63 0 109 -21.5t81 -62.5q26 -31 42 -75t16 -98q0 -60 -19 -108t-51.5 -81.5t-76.5 -51.5t-94 -18h-13q30 44 30 100q0 34 -11 64.5t-29.5 55.5t-43 42t-52.5 25q38 16 64 56t26 91q0 46 -21 82h43zM2 40h9l6 -22l6 22h8l6 -22l6 22h10l-11 -35h-9l-6 23l-6 -23
h-9zM53 40h10l6 -22l6 22h8l6 -22l6 22h10l-11 -35h-9l-6 23l-7 -23h-9zM105 40h10l5 -22l7 22h8l6 -22l6 22h9l-10 -35h-9l-6 23l-7 -23h-9zM158 15h10v-10h-10v10zM187 12q8 0 8 11t-8 11t-8 -11t8 -11zM170 54h9v-18q4 6 11 6q5 0 10 -5t5 -14t-5 -14t-11 -5q-5 0 -10 5
v-4h-9v49zM207 40h9v-5q1 6 9 6h2v-8h-2q-3 0 -6 -3q-3 -2 -3 -9v-16h-10zM247 24l-4 -2l-4 -1q-5 -2 -5.5 -3t-0.5 -2q0 -5 6 -5q8 0 8 8v5zM247 9q-3 -5 -10 -5t-10 3.5t-3 7.5q0 5 3 8q1 1 3 2t8 2l6 1q3 0 3 3q0 4 -6 4q-7 0 -7 -5h-8q-1 5 3 8.5t12 3.5q15 0 15 -14
v-19l2 -4h-10q0 1 -0.5 2t-0.5 2zM260 40h9v-4q4 6 10 6q12 0 12 -12v-25h-9v22q0 6 -6 6q-3 0 -6 -3q0 -1 -0.5 -2t-0.5 -3v-20h-9v35zM315 9q-3 -5 -10 -5q-6 0 -9 3t-3 9v1v23h9v-21q0 -6 6 -6q7 0 7 8v19h10v-35h-9zM326 40h10v-4q3 6 10 6q6 0 10 -7q3 7 11 7
q11 0 11 -12v-25h-9v22q0 6 -6 6t-6 -7v-21h-9v21q0 1 -0.5 1.5t-0.5 1.5v1q0 3 -5 3q-6 0 -6 -7v-21h-10v35zM398 12q7 0 7 11t-8 11t-8 -11t9 -11zM405 9q-3 -5 -10 -5q-6 0 -11 5q-4 5 -4 14t4.5 14t10.5 5q7 0 10 -5v17h10v-49h-10v4zM442 27q-1 7 -8 7q-6 0 -8 -7h16z
M426 20q0 -8 8 -8q5 0 8 4l9 -1q-2 -11 -17 -11q-8 0 -13 5t-5 14q0 6 4 12.5t14 6.5t14 -7t4 -15h-26zM462 17q0 -6 7 -6t7 4q0 3 -5 4l-8 2q-3 0 -6 3t-3 6q0 5 3.5 8.5t11.5 3.5q7 0 10 -3q5 -3 5 -9h-8q0 5 -7 5q-6 0 -6 -3t3 -3l10 -3q6 -1 7 -4q2 -2 2 -6
q0 -5 -3.5 -8.5t-11.5 -3.5q-17 0 -17 13h9zM487 54h9v-8h-9v8zM487 41h9v-36h-9v36zM516 15q8 0 8 9q0 10 -8 10t-8 -10q0 -9 8 -9zM510 4q0 -4 6 -4q8 0 8 8v4q-2 -6 -10 -6q-16 0 -16 18t16 18q6 0 8 -2.5t2 -3.5l1 5l9 -1v-32q0 -7 -3 -10q-4 -6 -15 -6q-8 0 -12 4
q-3 3 -4 8h10zM536 40h9v-4q2 6 10 6q12 0 12 -12v-25h-9v22q0 6 -6 6q-3 0 -6 -3q0 -1 -0.5 -2t-0.5 -3v-20h-9v35zM569 15h10v-10h-10v10zM615 18q-1 -10 -9 -13q-2 -1 -7 -1q-7 0 -11 3q-7 5 -7 16q0 7 3 12q5 7 15 7q14 0 16 -13l-9 -1q-2 6 -7 6q-8 0 -8 -11t8 -11
q3 0 4 1q3 1 3 5h9zM635 11q9 0 9 12q0 11 -9 11t-9 -11q0 -12 9 -12zM635 4q-18 0 -18 19t18 19q19 0 19 -19t-19 -19zM655 40h9l1 -4q3 6 9 6q7 0 11 -7q3 7 11 7q11 0 11 -12v-25h-9v22q0 6 -6 6t-6 -7v-21h-10v21v4q-2 3 -5 3q-6 0 -6 -7v-21h-10v35zM810 5q0 8 3.5 12
t7.5 7l7 5q2 2 4.5 4t2.5 7q0 7 -8 7q-7 0 -8 -10h-9v1q0 17 18 17q17 0 17 -16q0 -7 -4 -10.5t-7 -5.5l-8 -5l-4 -4h24v-9h-36zM867 12q4 0 7.5 3.5t3.5 14.5t-3.5 14.5t-7.5 3.5q-10 0 -10 -18q0 -7 1 -10t2 -5q3 -3 7 -3zM867 4q-8 0 -14.5 6t-6.5 20t6.5 20t14.5 6
t14.5 -6.5t6.5 -19.5q0 -14 -6.5 -20t-14.5 -6zM901 39h-12v6q4 0 8 2q5 3 6 7h8v-49h-10v34zM935 24v19l-15 -19h15zM912 26l23 28h10v-30h7v-8h-7v-11h-10v11h-23v10zM781 26q0 -5 -3.5 -7.5t-7.5 -2.5q-13 0 -13 14q0 5 2 9.5t10 4.5q6 0 9 -3l3 -6h-6q0 5 -5 5
q-8 0 -8 -10q0 -9 8 -9q3 0 5 2q0 1 0.5 1.5t0.5 1.5h5zM769 57q11 0 19 -8t8 -19t-8 -19t-19 -8t-19 8t-8 19t8 19t19 8zM769 49q-8 0 -13.5 -5.5t-5.5 -13.5t5.5 -14t13.5 -6t14 6t6 14t-6 13.5t-14 5.5zM550 113q7 0 13 6.5t6 21.5t-6 21t-14 6t-14 -6t-6 -22
q0 -14 6 -20.5t14 -6.5h1zM654 150q-2 9 -7.5 13.5t-12.5 4.5t-12.5 -5t-7.5 -13h40zM511 167q11 20 33 20q18 0 25 -13v45h24v-60q4 11 14 19.5t28 8.5q25 0 35 -17t10 -37h-66q2 -22 22 -22q12 0 18 12l23 -2q-1 2 -1 4h22q2 -16 20 -16q10 0 13 4t3 6q0 3 -2 6t-10 5
l-19 4q-8 2 -11.5 4t-5.5 4q-7 9 -7 17q0 11 9 20t28 9q10 0 16 -2t11 -5q12 -10 12 -23l-21 -1q0 5 -4.5 9.5t-13.5 4.5t-12 -3t-3 -6q0 -5 8 -8l25 -6q8 -2 12 -4t6 -5q6 -8 6 -16q0 -12 -10 -21.5t-30 -9.5q-17 0 -27.5 7.5t-13.5 18.5q-4 -11 -14.5 -18.5t-27.5 -7.5
q-31 0 -42 29v-26h-23l-1 10q-10 -13 -26 -13q-17 0 -27 13q-2 2 -2 3v-16h-24v56q0 15 -14 15q-16 0 -16 -18v-53h-24v53q0 9 -1 10q-4 8 -12 8q-16 0 -16 -20l-1 -51h-24l1 89h23l1 -12q7 15 24 15q9 0 16 -4.5t11 -11.5q8 16 27 16q18 0 26 -17zM826 118q8 0 14 6.5
t6 18.5q0 11 -6 17.5t-15 6.5q-8 0 -14 -6.5t-6 -17.5q0 -12 6 -18.5t15 -6.5zM783 95h-24v89h24v-22q11 25 37 25q14 0 19 -5t7 -8v-1l1 11h23v-83q0 -10 -1.5 -14.5t-4.5 -9.5q-5 -5 -14 -10t-24 -5q-23 0 -32 11q-8 6 -9 17l25 1q2 -10 16 -10q20 0 20 21v9
q-2 -5 -8.5 -9t-17.5 -4q-26 0 -37 26v-29zM874 184h23l1 -10q7 13 25 13q14 0 22.5 -8t8.5 -21v-63h-24v55q0 16 -14 16q-10 0 -15 -8q-3 -5 -3 -13v-50h-24v89zM46 110q8 0 14 6.5t6 20.5q0 16 -6 22t-14 6t-14 -6.5t-6 -20.5q0 -15 6 -21.5t14 -6.5zM189 139l-4 -2t-6 -2
l-10 -3q-11 -4 -14 -7t-3 -6q0 -5 3.5 -8.5t11.5 -3.5q21 0 21 21zM191 92q-1 2 -3 10q-8 -13 -25 -13t-25.5 8.5t-8.5 19.5t8 19q3 2 8.5 5t20.5 5l13 3q9 1 9 8q0 3 -3.5 6.5t-12.5 3.5t-13 -4t-4 -9h-21v2q0 4 1 6q-8 0 -15 -7q-3 -3 -5 -8t-2 -16v-39h-24v27
q-5 -15 -15 -22.5t-22 -7.5q-16 0 -25 12l-2 -9h-23v124h24v-45q4 5 10 9t16 4q12 0 22 -8t15 -22v27h23l1 -14q5 16 22 16h5v-11q10 12 32 12t31 -9t9 -25v-49q0 -5 3 -8v88l24 -1l1 -10q2 5 8 9.5t16 4.5q14 0 22.5 -8.5t8.5 -21.5v-62h-24v55q0 15 -14 15q-8 0 -15 -7
q-3 -5 -3 -13v-50h-24h-24zM355 102q-10 -13 -25 -13q-13 0 -23 8q-4 4 -6 9t-2 14v61h24v-53q0 -17 14 -17q8 0 13 5t5 15v50h23v-89h-22zM326 597h-84v197h98q28 0 48.5 -17t31.5 -42q14 -30 4 -65q-9 -33 -36.5 -53t-61.5 -20zM342 277h-100v232h118q33 0 58 -20t38 -49
q16 -38 5 -77t-44 -62.5t-75 -23.5z" />
    <glyph glyph-name="bracketleft" unicode="[" horiz-adv-x="1020" 
d="M544 794q63 0 109 -21.5t81 -62.5q26 -31 42 -75t16 -98q0 -60 -19 -108t-51.5 -81.5t-76.5 -51.5t-94 -18h-13q30 44 30 100q0 34 -11 64.5t-29.5 55.5t-43 42t-52.5 25q38 16 64 56t26 91q0 46 -21 82h43zM2 40h9l6 -22l6 22h8l6 -22l6 22h10l-11 -35h-9l-6 23l-6 -23
h-9zM53 40h10l6 -22l6 22h8l6 -22l6 22h10l-11 -35h-9l-6 23l-7 -23h-9zM105 40h10l5 -22l7 22h8l6 -22l6 22h9l-10 -35h-9l-6 23l-7 -23h-9zM158 15h10v-10h-10v10zM187 12q8 0 8 11t-8 11t-8 -11t8 -11zM170 54h9v-18q4 6 11 6q5 0 10 -5t5 -14t-5 -14t-11 -5q-5 0 -10 5
v-4h-9v49zM207 40h9v-5q1 6 9 6h2v-8h-2q-3 0 -6 -3q-3 -2 -3 -9v-16h-10zM247 24l-4 -2l-4 -1q-5 -2 -5.5 -3t-0.5 -2q0 -5 6 -5q8 0 8 8v5zM247 9q-3 -5 -10 -5t-10 3.5t-3 7.5q0 5 3 8q1 1 3 2t8 2l6 1q3 0 3 3q0 4 -6 4q-7 0 -7 -5h-8q-1 5 3 8.5t12 3.5q15 0 15 -14
v-19l2 -4h-10q0 1 -0.5 2t-0.5 2zM260 40h9v-4q4 6 10 6q12 0 12 -12v-25h-9v22q0 6 -6 6q-3 0 -6 -3q0 -1 -0.5 -2t-0.5 -3v-20h-9v35zM315 9q-3 -5 -10 -5q-6 0 -9 3t-3 9v1v23h9v-21q0 -6 6 -6q7 0 7 8v19h10v-35h-9zM326 40h10v-4q3 6 10 6q6 0 10 -7q3 7 11 7
q11 0 11 -12v-25h-9v22q0 6 -6 6t-6 -7v-21h-9v21q0 1 -0.5 1.5t-0.5 1.5v1q0 3 -5 3q-6 0 -6 -7v-21h-10v35zM398 12q7 0 7 11t-8 11t-8 -11t9 -11zM405 9q-3 -5 -10 -5q-6 0 -11 5q-4 5 -4 14t4.5 14t10.5 5q7 0 10 -5v17h10v-49h-10v4zM442 27q-1 7 -8 7q-6 0 -8 -7h16z
M426 20q0 -8 8 -8q5 0 8 4l9 -1q-2 -11 -17 -11q-8 0 -13 5t-5 14q0 6 4 12.5t14 6.5t14 -7t4 -15h-26zM462 17q0 -6 7 -6t7 4q0 3 -5 4l-8 2q-3 0 -6 3t-3 6q0 5 3.5 8.5t11.5 3.5q7 0 10 -3q5 -3 5 -9h-8q0 5 -7 5q-6 0 -6 -3t3 -3l10 -3q6 -1 7 -4q2 -2 2 -6
q0 -5 -3.5 -8.5t-11.5 -3.5q-17 0 -17 13h9zM487 54h9v-8h-9v8zM487 41h9v-36h-9v36zM516 15q8 0 8 9q0 10 -8 10t-8 -10q0 -9 8 -9zM510 4q0 -4 6 -4q8 0 8 8v4q-2 -6 -10 -6q-16 0 -16 18t16 18q6 0 8 -2.5t2 -3.5l1 5l9 -1v-32q0 -7 -3 -10q-4 -6 -15 -6q-8 0 -12 4
q-3 3 -4 8h10zM536 40h9v-4q2 6 10 6q12 0 12 -12v-25h-9v22q0 6 -6 6q-3 0 -6 -3q0 -1 -0.5 -2t-0.5 -3v-20h-9v35zM569 15h10v-10h-10v10zM615 18q-1 -10 -9 -13q-2 -1 -7 -1q-7 0 -11 3q-7 5 -7 16q0 7 3 12q5 7 15 7q14 0 16 -13l-9 -1q-2 6 -7 6q-8 0 -8 -11t8 -11
q3 0 4 1q3 1 3 5h9zM635 11q9 0 9 12q0 11 -9 11t-9 -11q0 -12 9 -12zM635 4q-18 0 -18 19t18 19q19 0 19 -19t-19 -19zM655 40h9l1 -4q3 6 9 6q7 0 11 -7q3 7 11 7q11 0 11 -12v-25h-9v22q0 6 -6 6t-6 -7v-21h-10v21v4q-2 3 -5 3q-6 0 -6 -7v-21h-10v35zM810 5q0 8 3.5 12
t7.5 7l7 5q2 2 4.5 4t2.5 7q0 7 -8 7q-7 0 -8 -10h-9v1q0 17 18 17q17 0 17 -16q0 -7 -4 -10.5t-7 -5.5l-8 -5l-4 -4h24v-9h-36zM867 12q4 0 7.5 3.5t3.5 14.5t-3.5 14.5t-7.5 3.5q-10 0 -10 -18q0 -7 1 -10t2 -5q3 -3 7 -3zM867 4q-8 0 -14.5 6t-6.5 20t6.5 20t14.5 6
t14.5 -6.5t6.5 -19.5q0 -14 -6.5 -20t-14.5 -6zM901 39h-12v6q4 0 8 2q5 3 6 7h8v-49h-10v34zM935 24v19l-15 -19h15zM912 26l23 28h10v-30h7v-8h-7v-11h-10v11h-23v10zM781 26q0 -5 -3.5 -7.5t-7.5 -2.5q-13 0 -13 14q0 5 2 9.5t10 4.5q6 0 9 -3l3 -6h-6q0 5 -5 5
q-8 0 -8 -10q0 -9 8 -9q3 0 5 2q0 1 0.5 1.5t0.5 1.5h5zM769 57q11 0 19 -8t8 -19t-8 -19t-19 -8t-19 8t-8 19t8 19t19 8zM769 49q-8 0 -13.5 -5.5t-5.5 -13.5t5.5 -14t13.5 -6t14 6t6 14t-6 13.5t-14 5.5zM550 113q7 0 13 6.5t6 21.5t-6 21t-14 6t-14 -6t-6 -22
q0 -14 6 -20.5t14 -6.5h1zM654 150q-2 9 -7.5 13.5t-12.5 4.5t-12.5 -5t-7.5 -13h40zM511 167q11 20 33 20q18 0 25 -13v45h24v-60q4 11 14 19.5t28 8.5q25 0 35 -17t10 -37h-66q2 -22 22 -22q12 0 18 12l23 -2q-1 2 -1 4h22q2 -16 20 -16q10 0 13 4t3 6q0 3 -2 6t-10 5
l-19 4q-8 2 -11.5 4t-5.5 4q-7 9 -7 17q0 11 9 20t28 9q10 0 16 -2t11 -5q12 -10 12 -23l-21 -1q0 5 -4.5 9.5t-13.5 4.5t-12 -3t-3 -6q0 -5 8 -8l25 -6q8 -2 12 -4t6 -5q6 -8 6 -16q0 -12 -10 -21.5t-30 -9.5q-17 0 -27.5 7.5t-13.5 18.5q-4 -11 -14.5 -18.5t-27.5 -7.5
q-31 0 -42 29v-26h-23l-1 10q-10 -13 -26 -13q-17 0 -27 13q-2 2 -2 3v-16h-24v56q0 15 -14 15q-16 0 -16 -18v-53h-24v53q0 9 -1 10q-4 8 -12 8q-16 0 -16 -20l-1 -51h-24l1 89h23l1 -12q7 15 24 15q9 0 16 -4.5t11 -11.5q8 16 27 16q18 0 26 -17zM826 118q8 0 14 6.5
t6 18.5q0 11 -6 17.5t-15 6.5q-8 0 -14 -6.5t-6 -17.5q0 -12 6 -18.5t15 -6.5zM783 95h-24v89h24v-22q11 25 37 25q14 0 19 -5t7 -8v-1l1 11h23v-83q0 -10 -1.5 -14.5t-4.5 -9.5q-5 -5 -14 -10t-24 -5q-23 0 -32 11q-8 6 -9 17l25 1q2 -10 16 -10q20 0 20 21v9
q-2 -5 -8.5 -9t-17.5 -4q-26 0 -37 26v-29zM874 184h23l1 -10q7 13 25 13q14 0 22.5 -8t8.5 -21v-63h-24v55q0 16 -14 16q-10 0 -15 -8q-3 -5 -3 -13v-50h-24v89zM46 110q8 0 14 6.5t6 20.5q0 16 -6 22t-14 6t-14 -6.5t-6 -20.5q0 -15 6 -21.5t14 -6.5zM189 139l-4 -2t-6 -2
l-10 -3q-11 -4 -14 -7t-3 -6q0 -5 3.5 -8.5t11.5 -3.5q21 0 21 21zM191 92q-1 2 -3 10q-8 -13 -25 -13t-25.5 8.5t-8.5 19.5t8 19q3 2 8.5 5t20.5 5l13 3q9 1 9 8q0 3 -3.5 6.5t-12.5 3.5t-13 -4t-4 -9h-21v2q0 4 1 6q-8 0 -15 -7q-3 -3 -5 -8t-2 -16v-39h-24v27
q-5 -15 -15 -22.5t-22 -7.5q-16 0 -25 12l-2 -9h-23v124h24v-45q4 5 10 9t16 4q12 0 22 -8t15 -22v27h23l1 -14q5 16 22 16h5v-11q10 12 32 12t31 -9t9 -25v-49q0 -5 3 -8v88l24 -1l1 -10q2 5 8 9.5t16 4.5q14 0 22.5 -8.5t8.5 -21.5v-62h-24v55q0 15 -14 15q-8 0 -15 -7
q-3 -5 -3 -13v-50h-24h-24zM355 102q-10 -13 -25 -13q-13 0 -23 8q-4 4 -6 9t-2 14v61h24v-53q0 -17 14 -17q8 0 13 5t5 15v50h23v-89h-22zM326 597h-84v197h98q28 0 48.5 -17t31.5 -42q14 -30 4 -65q-9 -33 -36.5 -53t-61.5 -20zM342 277h-100v232h118q33 0 58 -20t38 -49
q16 -38 5 -77t-44 -62.5t-75 -23.5z" />
    <glyph glyph-name="backslash" unicode="\" horiz-adv-x="1020" 
d="M544 794q63 0 109 -21.5t81 -62.5q26 -31 42 -75t16 -98q0 -60 -19 -108t-51.5 -81.5t-76.5 -51.5t-94 -18h-13q30 44 30 100q0 34 -11 64.5t-29.5 55.5t-43 42t-52.5 25q38 16 64 56t26 91q0 46 -21 82h43zM2 40h9l6 -22l6 22h8l6 -22l6 22h10l-11 -35h-9l-6 23l-6 -23
h-9zM53 40h10l6 -22l6 22h8l6 -22l6 22h10l-11 -35h-9l-6 23l-7 -23h-9zM105 40h10l5 -22l7 22h8l6 -22l6 22h9l-10 -35h-9l-6 23l-7 -23h-9zM158 15h10v-10h-10v10zM187 12q8 0 8 11t-8 11t-8 -11t8 -11zM170 54h9v-18q4 6 11 6q5 0 10 -5t5 -14t-5 -14t-11 -5q-5 0 -10 5
v-4h-9v49zM207 40h9v-5q1 6 9 6h2v-8h-2q-3 0 -6 -3q-3 -2 -3 -9v-16h-10zM247 24l-4 -2l-4 -1q-5 -2 -5.5 -3t-0.5 -2q0 -5 6 -5q8 0 8 8v5zM247 9q-3 -5 -10 -5t-10 3.5t-3 7.5q0 5 3 8q1 1 3 2t8 2l6 1q3 0 3 3q0 4 -6 4q-7 0 -7 -5h-8q-1 5 3 8.5t12 3.5q15 0 15 -14
v-19l2 -4h-10q0 1 -0.5 2t-0.5 2zM260 40h9v-4q4 6 10 6q12 0 12 -12v-25h-9v22q0 6 -6 6q-3 0 -6 -3q0 -1 -0.5 -2t-0.5 -3v-20h-9v35zM315 9q-3 -5 -10 -5q-6 0 -9 3t-3 9v1v23h9v-21q0 -6 6 -6q7 0 7 8v19h10v-35h-9zM326 40h10v-4q3 6 10 6q6 0 10 -7q3 7 11 7
q11 0 11 -12v-25h-9v22q0 6 -6 6t-6 -7v-21h-9v21q0 1 -0.5 1.5t-0.5 1.5v1q0 3 -5 3q-6 0 -6 -7v-21h-10v35zM398 12q7 0 7 11t-8 11t-8 -11t9 -11zM405 9q-3 -5 -10 -5q-6 0 -11 5q-4 5 -4 14t4.5 14t10.5 5q7 0 10 -5v17h10v-49h-10v4zM442 27q-1 7 -8 7q-6 0 -8 -7h16z
M426 20q0 -8 8 -8q5 0 8 4l9 -1q-2 -11 -17 -11q-8 0 -13 5t-5 14q0 6 4 12.5t14 6.5t14 -7t4 -15h-26zM462 17q0 -6 7 -6t7 4q0 3 -5 4l-8 2q-3 0 -6 3t-3 6q0 5 3.5 8.5t11.5 3.5q7 0 10 -3q5 -3 5 -9h-8q0 5 -7 5q-6 0 -6 -3t3 -3l10 -3q6 -1 7 -4q2 -2 2 -6
q0 -5 -3.5 -8.5t-11.5 -3.5q-17 0 -17 13h9zM487 54h9v-8h-9v8zM487 41h9v-36h-9v36zM516 15q8 0 8 9q0 10 -8 10t-8 -10q0 -9 8 -9zM510 4q0 -4 6 -4q8 0 8 8v4q-2 -6 -10 -6q-16 0 -16 18t16 18q6 0 8 -2.5t2 -3.5l1 5l9 -1v-32q0 -7 -3 -10q-4 -6 -15 -6q-8 0 -12 4
q-3 3 -4 8h10zM536 40h9v-4q2 6 10 6q12 0 12 -12v-25h-9v22q0 6 -6 6q-3 0 -6 -3q0 -1 -0.5 -2t-0.5 -3v-20h-9v35zM569 15h10v-10h-10v10zM615 18q-1 -10 -9 -13q-2 -1 -7 -1q-7 0 -11 3q-7 5 -7 16q0 7 3 12q5 7 15 7q14 0 16 -13l-9 -1q-2 6 -7 6q-8 0 -8 -11t8 -11
q3 0 4 1q3 1 3 5h9zM635 11q9 0 9 12q0 11 -9 11t-9 -11q0 -12 9 -12zM635 4q-18 0 -18 19t18 19q19 0 19 -19t-19 -19zM655 40h9l1 -4q3 6 9 6q7 0 11 -7q3 7 11 7q11 0 11 -12v-25h-9v22q0 6 -6 6t-6 -7v-21h-10v21v4q-2 3 -5 3q-6 0 -6 -7v-21h-10v35zM810 5q0 8 3.5 12
t7.5 7l7 5q2 2 4.5 4t2.5 7q0 7 -8 7q-7 0 -8 -10h-9v1q0 17 18 17q17 0 17 -16q0 -7 -4 -10.5t-7 -5.5l-8 -5l-4 -4h24v-9h-36zM867 12q4 0 7.5 3.5t3.5 14.5t-3.5 14.5t-7.5 3.5q-10 0 -10 -18q0 -7 1 -10t2 -5q3 -3 7 -3zM867 4q-8 0 -14.5 6t-6.5 20t6.5 20t14.5 6
t14.5 -6.5t6.5 -19.5q0 -14 -6.5 -20t-14.5 -6zM901 39h-12v6q4 0 8 2q5 3 6 7h8v-49h-10v34zM935 24v19l-15 -19h15zM912 26l23 28h10v-30h7v-8h-7v-11h-10v11h-23v10zM781 26q0 -5 -3.5 -7.5t-7.5 -2.5q-13 0 -13 14q0 5 2 9.5t10 4.5q6 0 9 -3l3 -6h-6q0 5 -5 5
q-8 0 -8 -10q0 -9 8 -9q3 0 5 2q0 1 0.5 1.5t0.5 1.5h5zM769 57q11 0 19 -8t8 -19t-8 -19t-19 -8t-19 8t-8 19t8 19t19 8zM769 49q-8 0 -13.5 -5.5t-5.5 -13.5t5.5 -14t13.5 -6t14 6t6 14t-6 13.5t-14 5.5zM550 113q7 0 13 6.5t6 21.5t-6 21t-14 6t-14 -6t-6 -22
q0 -14 6 -20.5t14 -6.5h1zM654 150q-2 9 -7.5 13.5t-12.5 4.5t-12.5 -5t-7.5 -13h40zM511 167q11 20 33 20q18 0 25 -13v45h24v-60q4 11 14 19.5t28 8.5q25 0 35 -17t10 -37h-66q2 -22 22 -22q12 0 18 12l23 -2q-1 2 -1 4h22q2 -16 20 -16q10 0 13 4t3 6q0 3 -2 6t-10 5
l-19 4q-8 2 -11.5 4t-5.5 4q-7 9 -7 17q0 11 9 20t28 9q10 0 16 -2t11 -5q12 -10 12 -23l-21 -1q0 5 -4.5 9.5t-13.5 4.5t-12 -3t-3 -6q0 -5 8 -8l25 -6q8 -2 12 -4t6 -5q6 -8 6 -16q0 -12 -10 -21.5t-30 -9.5q-17 0 -27.5 7.5t-13.5 18.5q-4 -11 -14.5 -18.5t-27.5 -7.5
q-31 0 -42 29v-26h-23l-1 10q-10 -13 -26 -13q-17 0 -27 13q-2 2 -2 3v-16h-24v56q0 15 -14 15q-16 0 -16 -18v-53h-24v53q0 9 -1 10q-4 8 -12 8q-16 0 -16 -20l-1 -51h-24l1 89h23l1 -12q7 15 24 15q9 0 16 -4.5t11 -11.5q8 16 27 16q18 0 26 -17zM826 118q8 0 14 6.5
t6 18.5q0 11 -6 17.5t-15 6.5q-8 0 -14 -6.5t-6 -17.5q0 -12 6 -18.5t15 -6.5zM783 95h-24v89h24v-22q11 25 37 25q14 0 19 -5t7 -8v-1l1 11h23v-83q0 -10 -1.5 -14.5t-4.5 -9.5q-5 -5 -14 -10t-24 -5q-23 0 -32 11q-8 6 -9 17l25 1q2 -10 16 -10q20 0 20 21v9
q-2 -5 -8.5 -9t-17.5 -4q-26 0 -37 26v-29zM874 184h23l1 -10q7 13 25 13q14 0 22.5 -8t8.5 -21v-63h-24v55q0 16 -14 16q-10 0 -15 -8q-3 -5 -3 -13v-50h-24v89zM46 110q8 0 14 6.5t6 20.5q0 16 -6 22t-14 6t-14 -6.5t-6 -20.5q0 -15 6 -21.5t14 -6.5zM189 139l-4 -2t-6 -2
l-10 -3q-11 -4 -14 -7t-3 -6q0 -5 3.5 -8.5t11.5 -3.5q21 0 21 21zM191 92q-1 2 -3 10q-8 -13 -25 -13t-25.5 8.5t-8.5 19.5t8 19q3 2 8.5 5t20.5 5l13 3q9 1 9 8q0 3 -3.5 6.5t-12.5 3.5t-13 -4t-4 -9h-21v2q0 4 1 6q-8 0 -15 -7q-3 -3 -5 -8t-2 -16v-39h-24v27
q-5 -15 -15 -22.5t-22 -7.5q-16 0 -25 12l-2 -9h-23v124h24v-45q4 5 10 9t16 4q12 0 22 -8t15 -22v27h23l1 -14q5 16 22 16h5v-11q10 12 32 12t31 -9t9 -25v-49q0 -5 3 -8v88l24 -1l1 -10q2 5 8 9.5t16 4.5q14 0 22.5 -8.5t8.5 -21.5v-62h-24v55q0 15 -14 15q-8 0 -15 -7
q-3 -5 -3 -13v-50h-24h-24zM355 102q-10 -13 -25 -13q-13 0 -23 8q-4 4 -6 9t-2 14v61h24v-53q0 -17 14 -17q8 0 13 5t5 15v50h23v-89h-22zM326 597h-84v197h98q28 0 48.5 -17t31.5 -42q14 -30 4 -65q-9 -33 -36.5 -53t-61.5 -20zM342 277h-100v232h118q33 0 58 -20t38 -49
q16 -38 5 -77t-44 -62.5t-75 -23.5z" />
    <glyph glyph-name="bracketright" unicode="]" horiz-adv-x="1020" 
d="M544 794q63 0 109 -21.5t81 -62.5q26 -31 42 -75t16 -98q0 -60 -19 -108t-51.5 -81.5t-76.5 -51.5t-94 -18h-13q30 44 30 100q0 34 -11 64.5t-29.5 55.5t-43 42t-52.5 25q38 16 64 56t26 91q0 46 -21 82h43zM2 40h9l6 -22l6 22h8l6 -22l6 22h10l-11 -35h-9l-6 23l-6 -23
h-9zM53 40h10l6 -22l6 22h8l6 -22l6 22h10l-11 -35h-9l-6 23l-7 -23h-9zM105 40h10l5 -22l7 22h8l6 -22l6 22h9l-10 -35h-9l-6 23l-7 -23h-9zM158 15h10v-10h-10v10zM187 12q8 0 8 11t-8 11t-8 -11t8 -11zM170 54h9v-18q4 6 11 6q5 0 10 -5t5 -14t-5 -14t-11 -5q-5 0 -10 5
v-4h-9v49zM207 40h9v-5q1 6 9 6h2v-8h-2q-3 0 -6 -3q-3 -2 -3 -9v-16h-10zM247 24l-4 -2l-4 -1q-5 -2 -5.5 -3t-0.5 -2q0 -5 6 -5q8 0 8 8v5zM247 9q-3 -5 -10 -5t-10 3.5t-3 7.5q0 5 3 8q1 1 3 2t8 2l6 1q3 0 3 3q0 4 -6 4q-7 0 -7 -5h-8q-1 5 3 8.5t12 3.5q15 0 15 -14
v-19l2 -4h-10q0 1 -0.5 2t-0.5 2zM260 40h9v-4q4 6 10 6q12 0 12 -12v-25h-9v22q0 6 -6 6q-3 0 -6 -3q0 -1 -0.5 -2t-0.5 -3v-20h-9v35zM315 9q-3 -5 -10 -5q-6 0 -9 3t-3 9v1v23h9v-21q0 -6 6 -6q7 0 7 8v19h10v-35h-9zM326 40h10v-4q3 6 10 6q6 0 10 -7q3 7 11 7
q11 0 11 -12v-25h-9v22q0 6 -6 6t-6 -7v-21h-9v21q0 1 -0.5 1.5t-0.5 1.5v1q0 3 -5 3q-6 0 -6 -7v-21h-10v35zM398 12q7 0 7 11t-8 11t-8 -11t9 -11zM405 9q-3 -5 -10 -5q-6 0 -11 5q-4 5 -4 14t4.5 14t10.5 5q7 0 10 -5v17h10v-49h-10v4zM442 27q-1 7 -8 7q-6 0 -8 -7h16z
M426 20q0 -8 8 -8q5 0 8 4l9 -1q-2 -11 -17 -11q-8 0 -13 5t-5 14q0 6 4 12.5t14 6.5t14 -7t4 -15h-26zM462 17q0 -6 7 -6t7 4q0 3 -5 4l-8 2q-3 0 -6 3t-3 6q0 5 3.5 8.5t11.5 3.5q7 0 10 -3q5 -3 5 -9h-8q0 5 -7 5q-6 0 -6 -3t3 -3l10 -3q6 -1 7 -4q2 -2 2 -6
q0 -5 -3.5 -8.5t-11.5 -3.5q-17 0 -17 13h9zM487 54h9v-8h-9v8zM487 41h9v-36h-9v36zM516 15q8 0 8 9q0 10 -8 10t-8 -10q0 -9 8 -9zM510 4q0 -4 6 -4q8 0 8 8v4q-2 -6 -10 -6q-16 0 -16 18t16 18q6 0 8 -2.5t2 -3.5l1 5l9 -1v-32q0 -7 -3 -10q-4 -6 -15 -6q-8 0 -12 4
q-3 3 -4 8h10zM536 40h9v-4q2 6 10 6q12 0 12 -12v-25h-9v22q0 6 -6 6q-3 0 -6 -3q0 -1 -0.5 -2t-0.5 -3v-20h-9v35zM569 15h10v-10h-10v10zM615 18q-1 -10 -9 -13q-2 -1 -7 -1q-7 0 -11 3q-7 5 -7 16q0 7 3 12q5 7 15 7q14 0 16 -13l-9 -1q-2 6 -7 6q-8 0 -8 -11t8 -11
q3 0 4 1q3 1 3 5h9zM635 11q9 0 9 12q0 11 -9 11t-9 -11q0 -12 9 -12zM635 4q-18 0 -18 19t18 19q19 0 19 -19t-19 -19zM655 40h9l1 -4q3 6 9 6q7 0 11 -7q3 7 11 7q11 0 11 -12v-25h-9v22q0 6 -6 6t-6 -7v-21h-10v21v4q-2 3 -5 3q-6 0 -6 -7v-21h-10v35zM810 5q0 8 3.5 12
t7.5 7l7 5q2 2 4.5 4t2.5 7q0 7 -8 7q-7 0 -8 -10h-9v1q0 17 18 17q17 0 17 -16q0 -7 -4 -10.5t-7 -5.5l-8 -5l-4 -4h24v-9h-36zM867 12q4 0 7.5 3.5t3.5 14.5t-3.5 14.5t-7.5 3.5q-10 0 -10 -18q0 -7 1 -10t2 -5q3 -3 7 -3zM867 4q-8 0 -14.5 6t-6.5 20t6.5 20t14.5 6
t14.5 -6.5t6.5 -19.5q0 -14 -6.5 -20t-14.5 -6zM901 39h-12v6q4 0 8 2q5 3 6 7h8v-49h-10v34zM935 24v19l-15 -19h15zM912 26l23 28h10v-30h7v-8h-7v-11h-10v11h-23v10zM781 26q0 -5 -3.5 -7.5t-7.5 -2.5q-13 0 -13 14q0 5 2 9.5t10 4.5q6 0 9 -3l3 -6h-6q0 5 -5 5
q-8 0 -8 -10q0 -9 8 -9q3 0 5 2q0 1 0.5 1.5t0.5 1.5h5zM769 57q11 0 19 -8t8 -19t-8 -19t-19 -8t-19 8t-8 19t8 19t19 8zM769 49q-8 0 -13.5 -5.5t-5.5 -13.5t5.5 -14t13.5 -6t14 6t6 14t-6 13.5t-14 5.5zM550 113q7 0 13 6.5t6 21.5t-6 21t-14 6t-14 -6t-6 -22
q0 -14 6 -20.5t14 -6.5h1zM654 150q-2 9 -7.5 13.5t-12.5 4.5t-12.5 -5t-7.5 -13h40zM511 167q11 20 33 20q18 0 25 -13v45h24v-60q4 11 14 19.5t28 8.5q25 0 35 -17t10 -37h-66q2 -22 22 -22q12 0 18 12l23 -2q-1 2 -1 4h22q2 -16 20 -16q10 0 13 4t3 6q0 3 -2 6t-10 5
l-19 4q-8 2 -11.5 4t-5.5 4q-7 9 -7 17q0 11 9 20t28 9q10 0 16 -2t11 -5q12 -10 12 -23l-21 -1q0 5 -4.5 9.5t-13.5 4.5t-12 -3t-3 -6q0 -5 8 -8l25 -6q8 -2 12 -4t6 -5q6 -8 6 -16q0 -12 -10 -21.5t-30 -9.5q-17 0 -27.5 7.5t-13.5 18.5q-4 -11 -14.5 -18.5t-27.5 -7.5
q-31 0 -42 29v-26h-23l-1 10q-10 -13 -26 -13q-17 0 -27 13q-2 2 -2 3v-16h-24v56q0 15 -14 15q-16 0 -16 -18v-53h-24v53q0 9 -1 10q-4 8 -12 8q-16 0 -16 -20l-1 -51h-24l1 89h23l1 -12q7 15 24 15q9 0 16 -4.5t11 -11.5q8 16 27 16q18 0 26 -17zM826 118q8 0 14 6.5
t6 18.5q0 11 -6 17.5t-15 6.5q-8 0 -14 -6.5t-6 -17.5q0 -12 6 -18.5t15 -6.5zM783 95h-24v89h24v-22q11 25 37 25q14 0 19 -5t7 -8v-1l1 11h23v-83q0 -10 -1.5 -14.5t-4.5 -9.5q-5 -5 -14 -10t-24 -5q-23 0 -32 11q-8 6 -9 17l25 1q2 -10 16 -10q20 0 20 21v9
q-2 -5 -8.5 -9t-17.5 -4q-26 0 -37 26v-29zM874 184h23l1 -10q7 13 25 13q14 0 22.5 -8t8.5 -21v-63h-24v55q0 16 -14 16q-10 0 -15 -8q-3 -5 -3 -13v-50h-24v89zM46 110q8 0 14 6.5t6 20.5q0 16 -6 22t-14 6t-14 -6.5t-6 -20.5q0 -15 6 -21.5t14 -6.5zM189 139l-4 -2t-6 -2
l-10 -3q-11 -4 -14 -7t-3 -6q0 -5 3.5 -8.5t11.5 -3.5q21 0 21 21zM191 92q-1 2 -3 10q-8 -13 -25 -13t-25.5 8.5t-8.5 19.5t8 19q3 2 8.5 5t20.5 5l13 3q9 1 9 8q0 3 -3.5 6.5t-12.5 3.5t-13 -4t-4 -9h-21v2q0 4 1 6q-8 0 -15 -7q-3 -3 -5 -8t-2 -16v-39h-24v27
q-5 -15 -15 -22.5t-22 -7.5q-16 0 -25 12l-2 -9h-23v124h24v-45q4 5 10 9t16 4q12 0 22 -8t15 -22v27h23l1 -14q5 16 22 16h5v-11q10 12 32 12t31 -9t9 -25v-49q0 -5 3 -8v88l24 -1l1 -10q2 5 8 9.5t16 4.5q14 0 22.5 -8.5t8.5 -21.5v-62h-24v55q0 15 -14 15q-8 0 -15 -7
q-3 -5 -3 -13v-50h-24h-24zM355 102q-10 -13 -25 -13q-13 0 -23 8q-4 4 -6 9t-2 14v61h24v-53q0 -17 14 -17q8 0 13 5t5 15v50h23v-89h-22zM326 597h-84v197h98q28 0 48.5 -17t31.5 -42q14 -30 4 -65q-9 -33 -36.5 -53t-61.5 -20zM342 277h-100v232h118q33 0 58 -20t38 -49
q16 -38 5 -77t-44 -62.5t-75 -23.5z" />
    <glyph glyph-name="asciicircum" unicode="^" horiz-adv-x="1020" 
d="M544 794q63 0 109 -21.5t81 -62.5q26 -31 42 -75t16 -98q0 -60 -19 -108t-51.5 -81.5t-76.5 -51.5t-94 -18h-13q30 44 30 100q0 34 -11 64.5t-29.5 55.5t-43 42t-52.5 25q38 16 64 56t26 91q0 46 -21 82h43zM2 40h9l6 -22l6 22h8l6 -22l6 22h10l-11 -35h-9l-6 23l-6 -23
h-9zM53 40h10l6 -22l6 22h8l6 -22l6 22h10l-11 -35h-9l-6 23l-7 -23h-9zM105 40h10l5 -22l7 22h8l6 -22l6 22h9l-10 -35h-9l-6 23l-7 -23h-9zM158 15h10v-10h-10v10zM187 12q8 0 8 11t-8 11t-8 -11t8 -11zM170 54h9v-18q4 6 11 6q5 0 10 -5t5 -14t-5 -14t-11 -5q-5 0 -10 5
v-4h-9v49zM207 40h9v-5q1 6 9 6h2v-8h-2q-3 0 -6 -3q-3 -2 -3 -9v-16h-10zM247 24l-4 -2l-4 -1q-5 -2 -5.5 -3t-0.5 -2q0 -5 6 -5q8 0 8 8v5zM247 9q-3 -5 -10 -5t-10 3.5t-3 7.5q0 5 3 8q1 1 3 2t8 2l6 1q3 0 3 3q0 4 -6 4q-7 0 -7 -5h-8q-1 5 3 8.5t12 3.5q15 0 15 -14
v-19l2 -4h-10q0 1 -0.5 2t-0.5 2zM260 40h9v-4q4 6 10 6q12 0 12 -12v-25h-9v22q0 6 -6 6q-3 0 -6 -3q0 -1 -0.5 -2t-0.5 -3v-20h-9v35zM315 9q-3 -5 -10 -5q-6 0 -9 3t-3 9v1v23h9v-21q0 -6 6 -6q7 0 7 8v19h10v-35h-9zM326 40h10v-4q3 6 10 6q6 0 10 -7q3 7 11 7
q11 0 11 -12v-25h-9v22q0 6 -6 6t-6 -7v-21h-9v21q0 1 -0.5 1.5t-0.5 1.5v1q0 3 -5 3q-6 0 -6 -7v-21h-10v35zM398 12q7 0 7 11t-8 11t-8 -11t9 -11zM405 9q-3 -5 -10 -5q-6 0 -11 5q-4 5 -4 14t4.5 14t10.5 5q7 0 10 -5v17h10v-49h-10v4zM442 27q-1 7 -8 7q-6 0 -8 -7h16z
M426 20q0 -8 8 -8q5 0 8 4l9 -1q-2 -11 -17 -11q-8 0 -13 5t-5 14q0 6 4 12.5t14 6.5t14 -7t4 -15h-26zM462 17q0 -6 7 -6t7 4q0 3 -5 4l-8 2q-3 0 -6 3t-3 6q0 5 3.5 8.5t11.5 3.5q7 0 10 -3q5 -3 5 -9h-8q0 5 -7 5q-6 0 -6 -3t3 -3l10 -3q6 -1 7 -4q2 -2 2 -6
q0 -5 -3.5 -8.5t-11.5 -3.5q-17 0 -17 13h9zM487 54h9v-8h-9v8zM487 41h9v-36h-9v36zM516 15q8 0 8 9q0 10 -8 10t-8 -10q0 -9 8 -9zM510 4q0 -4 6 -4q8 0 8 8v4q-2 -6 -10 -6q-16 0 -16 18t16 18q6 0 8 -2.5t2 -3.5l1 5l9 -1v-32q0 -7 -3 -10q-4 -6 -15 -6q-8 0 -12 4
q-3 3 -4 8h10zM536 40h9v-4q2 6 10 6q12 0 12 -12v-25h-9v22q0 6 -6 6q-3 0 -6 -3q0 -1 -0.5 -2t-0.5 -3v-20h-9v35zM569 15h10v-10h-10v10zM615 18q-1 -10 -9 -13q-2 -1 -7 -1q-7 0 -11 3q-7 5 -7 16q0 7 3 12q5 7 15 7q14 0 16 -13l-9 -1q-2 6 -7 6q-8 0 -8 -11t8 -11
q3 0 4 1q3 1 3 5h9zM635 11q9 0 9 12q0 11 -9 11t-9 -11q0 -12 9 -12zM635 4q-18 0 -18 19t18 19q19 0 19 -19t-19 -19zM655 40h9l1 -4q3 6 9 6q7 0 11 -7q3 7 11 7q11 0 11 -12v-25h-9v22q0 6 -6 6t-6 -7v-21h-10v21v4q-2 3 -5 3q-6 0 -6 -7v-21h-10v35zM810 5q0 8 3.5 12
t7.5 7l7 5q2 2 4.5 4t2.5 7q0 7 -8 7q-7 0 -8 -10h-9v1q0 17 18 17q17 0 17 -16q0 -7 -4 -10.5t-7 -5.5l-8 -5l-4 -4h24v-9h-36zM867 12q4 0 7.5 3.5t3.5 14.5t-3.5 14.5t-7.5 3.5q-10 0 -10 -18q0 -7 1 -10t2 -5q3 -3 7 -3zM867 4q-8 0 -14.5 6t-6.5 20t6.5 20t14.5 6
t14.5 -6.5t6.5 -19.5q0 -14 -6.5 -20t-14.5 -6zM901 39h-12v6q4 0 8 2q5 3 6 7h8v-49h-10v34zM935 24v19l-15 -19h15zM912 26l23 28h10v-30h7v-8h-7v-11h-10v11h-23v10zM781 26q0 -5 -3.5 -7.5t-7.5 -2.5q-13 0 -13 14q0 5 2 9.5t10 4.5q6 0 9 -3l3 -6h-6q0 5 -5 5
q-8 0 -8 -10q0 -9 8 -9q3 0 5 2q0 1 0.5 1.5t0.5 1.5h5zM769 57q11 0 19 -8t8 -19t-8 -19t-19 -8t-19 8t-8 19t8 19t19 8zM769 49q-8 0 -13.5 -5.5t-5.5 -13.5t5.5 -14t13.5 -6t14 6t6 14t-6 13.5t-14 5.5zM550 113q7 0 13 6.5t6 21.5t-6 21t-14 6t-14 -6t-6 -22
q0 -14 6 -20.5t14 -6.5h1zM654 150q-2 9 -7.5 13.5t-12.5 4.5t-12.5 -5t-7.5 -13h40zM511 167q11 20 33 20q18 0 25 -13v45h24v-60q4 11 14 19.5t28 8.5q25 0 35 -17t10 -37h-66q2 -22 22 -22q12 0 18 12l23 -2q-1 2 -1 4h22q2 -16 20 -16q10 0 13 4t3 6q0 3 -2 6t-10 5
l-19 4q-8 2 -11.5 4t-5.5 4q-7 9 -7 17q0 11 9 20t28 9q10 0 16 -2t11 -5q12 -10 12 -23l-21 -1q0 5 -4.5 9.5t-13.5 4.5t-12 -3t-3 -6q0 -5 8 -8l25 -6q8 -2 12 -4t6 -5q6 -8 6 -16q0 -12 -10 -21.5t-30 -9.5q-17 0 -27.5 7.5t-13.5 18.5q-4 -11 -14.5 -18.5t-27.5 -7.5
q-31 0 -42 29v-26h-23l-1 10q-10 -13 -26 -13q-17 0 -27 13q-2 2 -2 3v-16h-24v56q0 15 -14 15q-16 0 -16 -18v-53h-24v53q0 9 -1 10q-4 8 -12 8q-16 0 -16 -20l-1 -51h-24l1 89h23l1 -12q7 15 24 15q9 0 16 -4.5t11 -11.5q8 16 27 16q18 0 26 -17zM826 118q8 0 14 6.5
t6 18.5q0 11 -6 17.5t-15 6.5q-8 0 -14 -6.5t-6 -17.5q0 -12 6 -18.5t15 -6.5zM783 95h-24v89h24v-22q11 25 37 25q14 0 19 -5t7 -8v-1l1 11h23v-83q0 -10 -1.5 -14.5t-4.5 -9.5q-5 -5 -14 -10t-24 -5q-23 0 -32 11q-8 6 -9 17l25 1q2 -10 16 -10q20 0 20 21v9
q-2 -5 -8.5 -9t-17.5 -4q-26 0 -37 26v-29zM874 184h23l1 -10q7 13 25 13q14 0 22.5 -8t8.5 -21v-63h-24v55q0 16 -14 16q-10 0 -15 -8q-3 -5 -3 -13v-50h-24v89zM46 110q8 0 14 6.5t6 20.5q0 16 -6 22t-14 6t-14 -6.5t-6 -20.5q0 -15 6 -21.5t14 -6.5zM189 139l-4 -2t-6 -2
l-10 -3q-11 -4 -14 -7t-3 -6q0 -5 3.5 -8.5t11.5 -3.5q21 0 21 21zM191 92q-1 2 -3 10q-8 -13 -25 -13t-25.5 8.5t-8.5 19.5t8 19q3 2 8.5 5t20.5 5l13 3q9 1 9 8q0 3 -3.5 6.5t-12.5 3.5t-13 -4t-4 -9h-21v2q0 4 1 6q-8 0 -15 -7q-3 -3 -5 -8t-2 -16v-39h-24v27
q-5 -15 -15 -22.5t-22 -7.5q-16 0 -25 12l-2 -9h-23v124h24v-45q4 5 10 9t16 4q12 0 22 -8t15 -22v27h23l1 -14q5 16 22 16h5v-11q10 12 32 12t31 -9t9 -25v-49q0 -5 3 -8v88l24 -1l1 -10q2 5 8 9.5t16 4.5q14 0 22.5 -8.5t8.5 -21.5v-62h-24v55q0 15 -14 15q-8 0 -15 -7
q-3 -5 -3 -13v-50h-24h-24zM355 102q-10 -13 -25 -13q-13 0 -23 8q-4 4 -6 9t-2 14v61h24v-53q0 -17 14 -17q8 0 13 5t5 15v50h23v-89h-22zM326 597h-84v197h98q28 0 48.5 -17t31.5 -42q14 -30 4 -65q-9 -33 -36.5 -53t-61.5 -20zM342 277h-100v232h118q33 0 58 -20t38 -49
q16 -38 5 -77t-44 -62.5t-75 -23.5z" />
    <glyph glyph-name="underscore" unicode="_" horiz-adv-x="1020" 
d="M544 794q63 0 109 -21.5t81 -62.5q26 -31 42 -75t16 -98q0 -60 -19 -108t-51.5 -81.5t-76.5 -51.5t-94 -18h-13q30 44 30 100q0 34 -11 64.5t-29.5 55.5t-43 42t-52.5 25q38 16 64 56t26 91q0 46 -21 82h43zM2 40h9l6 -22l6 22h8l6 -22l6 22h10l-11 -35h-9l-6 23l-6 -23
h-9zM53 40h10l6 -22l6 22h8l6 -22l6 22h10l-11 -35h-9l-6 23l-7 -23h-9zM105 40h10l5 -22l7 22h8l6 -22l6 22h9l-10 -35h-9l-6 23l-7 -23h-9zM158 15h10v-10h-10v10zM187 12q8 0 8 11t-8 11t-8 -11t8 -11zM170 54h9v-18q4 6 11 6q5 0 10 -5t5 -14t-5 -14t-11 -5q-5 0 -10 5
v-4h-9v49zM207 40h9v-5q1 6 9 6h2v-8h-2q-3 0 -6 -3q-3 -2 -3 -9v-16h-10zM247 24l-4 -2l-4 -1q-5 -2 -5.5 -3t-0.5 -2q0 -5 6 -5q8 0 8 8v5zM247 9q-3 -5 -10 -5t-10 3.5t-3 7.5q0 5 3 8q1 1 3 2t8 2l6 1q3 0 3 3q0 4 -6 4q-7 0 -7 -5h-8q-1 5 3 8.5t12 3.5q15 0 15 -14
v-19l2 -4h-10q0 1 -0.5 2t-0.5 2zM260 40h9v-4q4 6 10 6q12 0 12 -12v-25h-9v22q0 6 -6 6q-3 0 -6 -3q0 -1 -0.5 -2t-0.5 -3v-20h-9v35zM315 9q-3 -5 -10 -5q-6 0 -9 3t-3 9v1v23h9v-21q0 -6 6 -6q7 0 7 8v19h10v-35h-9zM326 40h10v-4q3 6 10 6q6 0 10 -7q3 7 11 7
q11 0 11 -12v-25h-9v22q0 6 -6 6t-6 -7v-21h-9v21q0 1 -0.5 1.5t-0.5 1.5v1q0 3 -5 3q-6 0 -6 -7v-21h-10v35zM398 12q7 0 7 11t-8 11t-8 -11t9 -11zM405 9q-3 -5 -10 -5q-6 0 -11 5q-4 5 -4 14t4.5 14t10.5 5q7 0 10 -5v17h10v-49h-10v4zM442 27q-1 7 -8 7q-6 0 -8 -7h16z
M426 20q0 -8 8 -8q5 0 8 4l9 -1q-2 -11 -17 -11q-8 0 -13 5t-5 14q0 6 4 12.5t14 6.5t14 -7t4 -15h-26zM462 17q0 -6 7 -6t7 4q0 3 -5 4l-8 2q-3 0 -6 3t-3 6q0 5 3.5 8.5t11.5 3.5q7 0 10 -3q5 -3 5 -9h-8q0 5 -7 5q-6 0 -6 -3t3 -3l10 -3q6 -1 7 -4q2 -2 2 -6
q0 -5 -3.5 -8.5t-11.5 -3.5q-17 0 -17 13h9zM487 54h9v-8h-9v8zM487 41h9v-36h-9v36zM516 15q8 0 8 9q0 10 -8 10t-8 -10q0 -9 8 -9zM510 4q0 -4 6 -4q8 0 8 8v4q-2 -6 -10 -6q-16 0 -16 18t16 18q6 0 8 -2.5t2 -3.5l1 5l9 -1v-32q0 -7 -3 -10q-4 -6 -15 -6q-8 0 -12 4
q-3 3 -4 8h10zM536 40h9v-4q2 6 10 6q12 0 12 -12v-25h-9v22q0 6 -6 6q-3 0 -6 -3q0 -1 -0.5 -2t-0.5 -3v-20h-9v35zM569 15h10v-10h-10v10zM615 18q-1 -10 -9 -13q-2 -1 -7 -1q-7 0 -11 3q-7 5 -7 16q0 7 3 12q5 7 15 7q14 0 16 -13l-9 -1q-2 6 -7 6q-8 0 -8 -11t8 -11
q3 0 4 1q3 1 3 5h9zM635 11q9 0 9 12q0 11 -9 11t-9 -11q0 -12 9 -12zM635 4q-18 0 -18 19t18 19q19 0 19 -19t-19 -19zM655 40h9l1 -4q3 6 9 6q7 0 11 -7q3 7 11 7q11 0 11 -12v-25h-9v22q0 6 -6 6t-6 -7v-21h-10v21v4q-2 3 -5 3q-6 0 -6 -7v-21h-10v35zM810 5q0 8 3.5 12
t7.5 7l7 5q2 2 4.5 4t2.5 7q0 7 -8 7q-7 0 -8 -10h-9v1q0 17 18 17q17 0 17 -16q0 -7 -4 -10.5t-7 -5.5l-8 -5l-4 -4h24v-9h-36zM867 12q4 0 7.5 3.5t3.5 14.5t-3.5 14.5t-7.5 3.5q-10 0 -10 -18q0 -7 1 -10t2 -5q3 -3 7 -3zM867 4q-8 0 -14.5 6t-6.5 20t6.5 20t14.5 6
t14.5 -6.5t6.5 -19.5q0 -14 -6.5 -20t-14.5 -6zM901 39h-12v6q4 0 8 2q5 3 6 7h8v-49h-10v34zM935 24v19l-15 -19h15zM912 26l23 28h10v-30h7v-8h-7v-11h-10v11h-23v10zM781 26q0 -5 -3.5 -7.5t-7.5 -2.5q-13 0 -13 14q0 5 2 9.5t10 4.5q6 0 9 -3l3 -6h-6q0 5 -5 5
q-8 0 -8 -10q0 -9 8 -9q3 0 5 2q0 1 0.5 1.5t0.5 1.5h5zM769 57q11 0 19 -8t8 -19t-8 -19t-19 -8t-19 8t-8 19t8 19t19 8zM769 49q-8 0 -13.5 -5.5t-5.5 -13.5t5.5 -14t13.5 -6t14 6t6 14t-6 13.5t-14 5.5zM550 113q7 0 13 6.5t6 21.5t-6 21t-14 6t-14 -6t-6 -22
q0 -14 6 -20.5t14 -6.5h1zM654 150q-2 9 -7.5 13.5t-12.5 4.5t-12.5 -5t-7.5 -13h40zM511 167q11 20 33 20q18 0 25 -13v45h24v-60q4 11 14 19.5t28 8.5q25 0 35 -17t10 -37h-66q2 -22 22 -22q12 0 18 12l23 -2q-1 2 -1 4h22q2 -16 20 -16q10 0 13 4t3 6q0 3 -2 6t-10 5
l-19 4q-8 2 -11.5 4t-5.5 4q-7 9 -7 17q0 11 9 20t28 9q10 0 16 -2t11 -5q12 -10 12 -23l-21 -1q0 5 -4.5 9.5t-13.5 4.5t-12 -3t-3 -6q0 -5 8 -8l25 -6q8 -2 12 -4t6 -5q6 -8 6 -16q0 -12 -10 -21.5t-30 -9.5q-17 0 -27.5 7.5t-13.5 18.5q-4 -11 -14.5 -18.5t-27.5 -7.5
q-31 0 -42 29v-26h-23l-1 10q-10 -13 -26 -13q-17 0 -27 13q-2 2 -2 3v-16h-24v56q0 15 -14 15q-16 0 -16 -18v-53h-24v53q0 9 -1 10q-4 8 -12 8q-16 0 -16 -20l-1 -51h-24l1 89h23l1 -12q7 15 24 15q9 0 16 -4.5t11 -11.5q8 16 27 16q18 0 26 -17zM826 118q8 0 14 6.5
t6 18.5q0 11 -6 17.5t-15 6.5q-8 0 -14 -6.5t-6 -17.5q0 -12 6 -18.5t15 -6.5zM783 95h-24v89h24v-22q11 25 37 25q14 0 19 -5t7 -8v-1l1 11h23v-83q0 -10 -1.5 -14.5t-4.5 -9.5q-5 -5 -14 -10t-24 -5q-23 0 -32 11q-8 6 -9 17l25 1q2 -10 16 -10q20 0 20 21v9
q-2 -5 -8.5 -9t-17.5 -4q-26 0 -37 26v-29zM874 184h23l1 -10q7 13 25 13q14 0 22.5 -8t8.5 -21v-63h-24v55q0 16 -14 16q-10 0 -15 -8q-3 -5 -3 -13v-50h-24v89zM46 110q8 0 14 6.5t6 20.5q0 16 -6 22t-14 6t-14 -6.5t-6 -20.5q0 -15 6 -21.5t14 -6.5zM189 139l-4 -2t-6 -2
l-10 -3q-11 -4 -14 -7t-3 -6q0 -5 3.5 -8.5t11.5 -3.5q21 0 21 21zM191 92q-1 2 -3 10q-8 -13 -25 -13t-25.5 8.5t-8.5 19.5t8 19q3 2 8.5 5t20.5 5l13 3q9 1 9 8q0 3 -3.5 6.5t-12.5 3.5t-13 -4t-4 -9h-21v2q0 4 1 6q-8 0 -15 -7q-3 -3 -5 -8t-2 -16v-39h-24v27
q-5 -15 -15 -22.5t-22 -7.5q-16 0 -25 12l-2 -9h-23v124h24v-45q4 5 10 9t16 4q12 0 22 -8t15 -22v27h23l1 -14q5 16 22 16h5v-11q10 12 32 12t31 -9t9 -25v-49q0 -5 3 -8v88l24 -1l1 -10q2 5 8 9.5t16 4.5q14 0 22.5 -8.5t8.5 -21.5v-62h-24v55q0 15 -14 15q-8 0 -15 -7
q-3 -5 -3 -13v-50h-24h-24zM355 102q-10 -13 -25 -13q-13 0 -23 8q-4 4 -6 9t-2 14v61h24v-53q0 -17 14 -17q8 0 13 5t5 15v50h23v-89h-22zM326 597h-84v197h98q28 0 48.5 -17t31.5 -42q14 -30 4 -65q-9 -33 -36.5 -53t-61.5 -20zM342 277h-100v232h118q33 0 58 -20t38 -49
q16 -38 5 -77t-44 -62.5t-75 -23.5z" />
    <glyph glyph-name="grave" unicode="`" horiz-adv-x="1020" 
d="M544 794q63 0 109 -21.5t81 -62.5q26 -31 42 -75t16 -98q0 -60 -19 -108t-51.5 -81.5t-76.5 -51.5t-94 -18h-13q30 44 30 100q0 34 -11 64.5t-29.5 55.5t-43 42t-52.5 25q38 16 64 56t26 91q0 46 -21 82h43zM2 40h9l6 -22l6 22h8l6 -22l6 22h10l-11 -35h-9l-6 23l-6 -23
h-9zM53 40h10l6 -22l6 22h8l6 -22l6 22h10l-11 -35h-9l-6 23l-7 -23h-9zM105 40h10l5 -22l7 22h8l6 -22l6 22h9l-10 -35h-9l-6 23l-7 -23h-9zM158 15h10v-10h-10v10zM187 12q8 0 8 11t-8 11t-8 -11t8 -11zM170 54h9v-18q4 6 11 6q5 0 10 -5t5 -14t-5 -14t-11 -5q-5 0 -10 5
v-4h-9v49zM207 40h9v-5q1 6 9 6h2v-8h-2q-3 0 -6 -3q-3 -2 -3 -9v-16h-10zM247 24l-4 -2l-4 -1q-5 -2 -5.5 -3t-0.5 -2q0 -5 6 -5q8 0 8 8v5zM247 9q-3 -5 -10 -5t-10 3.5t-3 7.5q0 5 3 8q1 1 3 2t8 2l6 1q3 0 3 3q0 4 -6 4q-7 0 -7 -5h-8q-1 5 3 8.5t12 3.5q15 0 15 -14
v-19l2 -4h-10q0 1 -0.5 2t-0.5 2zM260 40h9v-4q4 6 10 6q12 0 12 -12v-25h-9v22q0 6 -6 6q-3 0 -6 -3q0 -1 -0.5 -2t-0.5 -3v-20h-9v35zM315 9q-3 -5 -10 -5q-6 0 -9 3t-3 9v1v23h9v-21q0 -6 6 -6q7 0 7 8v19h10v-35h-9zM326 40h10v-4q3 6 10 6q6 0 10 -7q3 7 11 7
q11 0 11 -12v-25h-9v22q0 6 -6 6t-6 -7v-21h-9v21q0 1 -0.5 1.5t-0.5 1.5v1q0 3 -5 3q-6 0 -6 -7v-21h-10v35zM398 12q7 0 7 11t-8 11t-8 -11t9 -11zM405 9q-3 -5 -10 -5q-6 0 -11 5q-4 5 -4 14t4.5 14t10.5 5q7 0 10 -5v17h10v-49h-10v4zM442 27q-1 7 -8 7q-6 0 -8 -7h16z
M426 20q0 -8 8 -8q5 0 8 4l9 -1q-2 -11 -17 -11q-8 0 -13 5t-5 14q0 6 4 12.5t14 6.5t14 -7t4 -15h-26zM462 17q0 -6 7 -6t7 4q0 3 -5 4l-8 2q-3 0 -6 3t-3 6q0 5 3.5 8.5t11.5 3.5q7 0 10 -3q5 -3 5 -9h-8q0 5 -7 5q-6 0 -6 -3t3 -3l10 -3q6 -1 7 -4q2 -2 2 -6
q0 -5 -3.5 -8.5t-11.5 -3.5q-17 0 -17 13h9zM487 54h9v-8h-9v8zM487 41h9v-36h-9v36zM516 15q8 0 8 9q0 10 -8 10t-8 -10q0 -9 8 -9zM510 4q0 -4 6 -4q8 0 8 8v4q-2 -6 -10 -6q-16 0 -16 18t16 18q6 0 8 -2.5t2 -3.5l1 5l9 -1v-32q0 -7 -3 -10q-4 -6 -15 -6q-8 0 -12 4
q-3 3 -4 8h10zM536 40h9v-4q2 6 10 6q12 0 12 -12v-25h-9v22q0 6 -6 6q-3 0 -6 -3q0 -1 -0.5 -2t-0.5 -3v-20h-9v35zM569 15h10v-10h-10v10zM615 18q-1 -10 -9 -13q-2 -1 -7 -1q-7 0 -11 3q-7 5 -7 16q0 7 3 12q5 7 15 7q14 0 16 -13l-9 -1q-2 6 -7 6q-8 0 -8 -11t8 -11
q3 0 4 1q3 1 3 5h9zM635 11q9 0 9 12q0 11 -9 11t-9 -11q0 -12 9 -12zM635 4q-18 0 -18 19t18 19q19 0 19 -19t-19 -19zM655 40h9l1 -4q3 6 9 6q7 0 11 -7q3 7 11 7q11 0 11 -12v-25h-9v22q0 6 -6 6t-6 -7v-21h-10v21v4q-2 3 -5 3q-6 0 -6 -7v-21h-10v35zM810 5q0 8 3.5 12
t7.5 7l7 5q2 2 4.5 4t2.5 7q0 7 -8 7q-7 0 -8 -10h-9v1q0 17 18 17q17 0 17 -16q0 -7 -4 -10.5t-7 -5.5l-8 -5l-4 -4h24v-9h-36zM867 12q4 0 7.5 3.5t3.5 14.5t-3.5 14.5t-7.5 3.5q-10 0 -10 -18q0 -7 1 -10t2 -5q3 -3 7 -3zM867 4q-8 0 -14.5 6t-6.5 20t6.5 20t14.5 6
t14.5 -6.5t6.5 -19.5q0 -14 -6.5 -20t-14.5 -6zM901 39h-12v6q4 0 8 2q5 3 6 7h8v-49h-10v34zM935 24v19l-15 -19h15zM912 26l23 28h10v-30h7v-8h-7v-11h-10v11h-23v10zM781 26q0 -5 -3.5 -7.5t-7.5 -2.5q-13 0 -13 14q0 5 2 9.5t10 4.5q6 0 9 -3l3 -6h-6q0 5 -5 5
q-8 0 -8 -10q0 -9 8 -9q3 0 5 2q0 1 0.5 1.5t0.5 1.5h5zM769 57q11 0 19 -8t8 -19t-8 -19t-19 -8t-19 8t-8 19t8 19t19 8zM769 49q-8 0 -13.5 -5.5t-5.5 -13.5t5.5 -14t13.5 -6t14 6t6 14t-6 13.5t-14 5.5zM550 113q7 0 13 6.5t6 21.5t-6 21t-14 6t-14 -6t-6 -22
q0 -14 6 -20.5t14 -6.5h1zM654 150q-2 9 -7.5 13.5t-12.5 4.5t-12.5 -5t-7.5 -13h40zM511 167q11 20 33 20q18 0 25 -13v45h24v-60q4 11 14 19.5t28 8.5q25 0 35 -17t10 -37h-66q2 -22 22 -22q12 0 18 12l23 -2q-1 2 -1 4h22q2 -16 20 -16q10 0 13 4t3 6q0 3 -2 6t-10 5
l-19 4q-8 2 -11.5 4t-5.5 4q-7 9 -7 17q0 11 9 20t28 9q10 0 16 -2t11 -5q12 -10 12 -23l-21 -1q0 5 -4.5 9.5t-13.5 4.5t-12 -3t-3 -6q0 -5 8 -8l25 -6q8 -2 12 -4t6 -5q6 -8 6 -16q0 -12 -10 -21.5t-30 -9.5q-17 0 -27.5 7.5t-13.5 18.5q-4 -11 -14.5 -18.5t-27.5 -7.5
q-31 0 -42 29v-26h-23l-1 10q-10 -13 -26 -13q-17 0 -27 13q-2 2 -2 3v-16h-24v56q0 15 -14 15q-16 0 -16 -18v-53h-24v53q0 9 -1 10q-4 8 -12 8q-16 0 -16 -20l-1 -51h-24l1 89h23l1 -12q7 15 24 15q9 0 16 -4.5t11 -11.5q8 16 27 16q18 0 26 -17zM826 118q8 0 14 6.5
t6 18.5q0 11 -6 17.5t-15 6.5q-8 0 -14 -6.5t-6 -17.5q0 -12 6 -18.5t15 -6.5zM783 95h-24v89h24v-22q11 25 37 25q14 0 19 -5t7 -8v-1l1 11h23v-83q0 -10 -1.5 -14.5t-4.5 -9.5q-5 -5 -14 -10t-24 -5q-23 0 -32 11q-8 6 -9 17l25 1q2 -10 16 -10q20 0 20 21v9
q-2 -5 -8.5 -9t-17.5 -4q-26 0 -37 26v-29zM874 184h23l1 -10q7 13 25 13q14 0 22.5 -8t8.5 -21v-63h-24v55q0 16 -14 16q-10 0 -15 -8q-3 -5 -3 -13v-50h-24v89zM46 110q8 0 14 6.5t6 20.5q0 16 -6 22t-14 6t-14 -6.5t-6 -20.5q0 -15 6 -21.5t14 -6.5zM189 139l-4 -2t-6 -2
l-10 -3q-11 -4 -14 -7t-3 -6q0 -5 3.5 -8.5t11.5 -3.5q21 0 21 21zM191 92q-1 2 -3 10q-8 -13 -25 -13t-25.5 8.5t-8.5 19.5t8 19q3 2 8.5 5t20.5 5l13 3q9 1 9 8q0 3 -3.5 6.5t-12.5 3.5t-13 -4t-4 -9h-21v2q0 4 1 6q-8 0 -15 -7q-3 -3 -5 -8t-2 -16v-39h-24v27
q-5 -15 -15 -22.5t-22 -7.5q-16 0 -25 12l-2 -9h-23v124h24v-45q4 5 10 9t16 4q12 0 22 -8t15 -22v27h23l1 -14q5 16 22 16h5v-11q10 12 32 12t31 -9t9 -25v-49q0 -5 3 -8v88l24 -1l1 -10q2 5 8 9.5t16 4.5q14 0 22.5 -8.5t8.5 -21.5v-62h-24v55q0 15 -14 15q-8 0 -15 -7
q-3 -5 -3 -13v-50h-24h-24zM355 102q-10 -13 -25 -13q-13 0 -23 8q-4 4 -6 9t-2 14v61h24v-53q0 -17 14 -17q8 0 13 5t5 15v50h23v-89h-22zM326 597h-84v197h98q28 0 48.5 -17t31.5 -42q14 -30 4 -65q-9 -33 -36.5 -53t-61.5 -20zM342 277h-100v232h118q33 0 58 -20t38 -49
q16 -38 5 -77t-44 -62.5t-75 -23.5z" />
    <glyph glyph-name="zero" unicode="0" 
d="M802 801v-201v-400v-200h-601h-200v600l200 201v-1v1h400h201zM201 200h400v400h-400v-400v0z" />
    <glyph glyph-name="one" unicode="1" horiz-adv-x="500" 
d="M408 800v0v-201v0v-600h-200v600h-201l200 201h1h200v0z" />
    <glyph glyph-name="two" unicode="2" 
d="M0 299v200h600v100h-600v201h600v0h200v0v-301v-200h-600v-100h600v-200h-800v0v300v0z" />
    <glyph glyph-name="three" unicode="3" 
d="M800 199v-200h-800v200h600v100h-600v200h600v100h-600v201h600h200v-301v-300v0z" />
    <glyph glyph-name="four" unicode="4" 
d="M600 499v301h200v-301v-500h-200v300h-600v36v0v465h200v-301h400v0z" />
    <glyph glyph-name="five" unicode="5" 
d="M800 300v0v-100v0v-200v0v0h-200v0h-600v200h600v100h-600v200v0v100v201h200v0h600v-201h-600v-100h400l200 -200v0v0z" />
    <glyph glyph-name="six" unicode="6" 
d="M199 500h601v-501h-801v801h200v-300zM599 200v100h-400v-100h400z" />
    <glyph glyph-name="seven" unicode="7" 
d="M430 598h-430v200h608v1h193v-116l-342 -385h-1l-266 -300h-193v116l342 385h1l88 99v0z" />
    <glyph glyph-name="eight" unicode="8" 
d="M802 599h1h-1v-601v0v0h-600l-200 199v1v0v0v0v100v0v200v0v301v0v0h600l200 -200v0v0zM602 599h-400v-101h400v101v0zM202 298v-100h400v100h-400v0z" />
    <glyph glyph-name="nine" unicode="9" 
d="M-1 800h801v-801h-200v301h-601v500zM600 499v101h-401v-101h401z" />
    <glyph glyph-name="exclam" unicode="!" horiz-adv-x="300" 
d="M2 300v500h200v-500h-200zM2 -1v200h200v-200h-200z" />
    <glyph glyph-name="numbersign" unicode="#" horiz-adv-x="1000" 
d="M152 149h-150l54 200h150l27 100h-151l54 201h150l40 150h201l-41 -150h100l41 150h200l-40 -150h150l-54 -201h-150l-27 -100h150l-53 -200h-150l-41 -150h-200l40 150h-100l-40 -150h-200l40 150v0zM406 349l27 100h100l-27 -100h-100v0z" />
    <glyph glyph-name="dollar" unicode="$" 
d="M800 477v-278v-200h-300v-1l-201 -200v201h-300v200h601v100h-601v23v278v200h200v0h100v0l200 201v-201h301v-200h-601v-101h601v-22v0z" />
    <glyph glyph-name="percent" unicode="%" 
d="M459 300l-267 -300h-193v116l343 385v0l267 300h192v-116l-342 -385v0zM601 1v200h200v-200h-200zM-1 601v200h201v-200h-201z" />
    <glyph glyph-name="ampersand" unicode="&#x26;" horiz-adv-x="1000" 
d="M544 794q63 0 109 -21.5t81 -62.5q26 -31 42 -75t16 -98q0 -60 -19 -108t-51.5 -81.5t-76.5 -51.5t-94 -18h-13q30 44 30 100q0 34 -11 64.5t-29.5 55.5t-43 42t-52.5 25q38 16 64 56t26 91q0 46 -21 82h43zM2 40h9l6 -22l6 22h8l6 -22l6 22h10l-11 -35h-9l-6 23l-6 -23
h-9zM53 40h10l6 -22l6 22h8l6 -22l6 22h10l-11 -35h-9l-6 23l-7 -23h-9zM105 40h10l5 -22l7 22h8l6 -22l6 22h9l-10 -35h-9l-6 23l-7 -23h-9zM158 15h10v-10h-10v10zM187 12q8 0 8 11t-8 11t-8 -11t8 -11zM170 54h9v-18q4 6 11 6q5 0 10 -5t5 -14t-5 -14t-11 -5q-5 0 -10 5
v-4h-9v49zM207 40h9v-5q1 6 9 6h2v-8h-2q-3 0 -6 -3q-3 -2 -3 -9v-16h-10zM247 24l-4 -2l-4 -1q-5 -2 -5.5 -3t-0.5 -2q0 -5 6 -5q8 0 8 8v5zM247 9q-3 -5 -10 -5t-10 3.5t-3 7.5q0 5 3 8q1 1 3 2t8 2l6 1q3 0 3 3q0 4 -6 4q-7 0 -7 -5h-8q-1 5 3 8.5t12 3.5q15 0 15 -14
v-19l2 -4h-10q0 1 -0.5 2t-0.5 2zM260 40h9v-4q4 6 10 6q12 0 12 -12v-25h-9v22q0 6 -6 6q-3 0 -6 -3q0 -1 -0.5 -2t-0.5 -3v-20h-9v35zM315 9q-3 -5 -10 -5q-6 0 -9 3t-3 9v1v23h9v-21q0 -6 6 -6q7 0 7 8v19h10v-35h-9zM326 40h10v-4q3 6 10 6q6 0 10 -7q3 7 11 7
q11 0 11 -12v-25h-9v22q0 6 -6 6t-6 -7v-21h-9v21q0 1 -0.5 1.5t-0.5 1.5v1q0 3 -5 3q-6 0 -6 -7v-21h-10v35zM398 12q7 0 7 11t-8 11t-8 -11t9 -11zM405 9q-3 -5 -10 -5q-6 0 -11 5q-4 5 -4 14t4.5 14t10.5 5q7 0 10 -5v17h10v-49h-10v4zM442 27q-1 7 -8 7q-6 0 -8 -7h16z
M426 20q0 -8 8 -8q5 0 8 4l9 -1q-2 -11 -17 -11q-8 0 -13 5t-5 14q0 6 4 12.5t14 6.5t14 -7t4 -15h-26zM462 17q0 -6 7 -6t7 4q0 3 -5 4l-8 2q-3 0 -6 3t-3 6q0 5 3.5 8.5t11.5 3.5q7 0 10 -3q5 -3 5 -9h-8q0 5 -7 5q-6 0 -6 -3t3 -3l10 -3q6 -1 7 -4q2 -2 2 -6
q0 -5 -3.5 -8.5t-11.5 -3.5q-17 0 -17 13h9zM487 54h9v-8h-9v8zM487 41h9v-36h-9v36zM516 15q8 0 8 9q0 10 -8 10t-8 -10q0 -9 8 -9zM510 4q0 -4 6 -4q8 0 8 8v4q-2 -6 -10 -6q-16 0 -16 18t16 18q6 0 8 -2.5t2 -3.5l1 5l9 -1v-32q0 -7 -3 -10q-4 -6 -15 -6q-8 0 -12 4
q-3 3 -4 8h10zM536 40h9v-4q2 6 10 6q12 0 12 -12v-25h-9v22q0 6 -6 6q-3 0 -6 -3q0 -1 -0.5 -2t-0.5 -3v-20h-9v35zM569 15h10v-10h-10v10zM615 18q-1 -10 -9 -13q-2 -1 -7 -1q-7 0 -11 3q-7 5 -7 16q0 7 3 12q5 7 15 7q14 0 16 -13l-9 -1q-2 6 -7 6q-8 0 -8 -11t8 -11
q3 0 4 1q3 1 3 5h9zM635 11q9 0 9 12q0 11 -9 11t-9 -11q0 -12 9 -12zM635 4q-18 0 -18 19t18 19q19 0 19 -19t-19 -19zM655 40h9l1 -4q3 6 9 6q7 0 11 -7q3 7 11 7q11 0 11 -12v-25h-9v22q0 6 -6 6t-6 -7v-21h-10v21v4q-2 3 -5 3q-6 0 -6 -7v-21h-10v35zM810 5q0 8 3.5 12
t7.5 7l7 5q2 2 4.5 4t2.5 7q0 7 -8 7q-7 0 -8 -10h-9v1q0 17 18 17q17 0 17 -16q0 -7 -4 -10.5t-7 -5.5l-8 -5l-4 -4h24v-9h-36zM867 12q4 0 7.5 3.5t3.5 14.5t-3.5 14.5t-7.5 3.5q-10 0 -10 -18q0 -7 1 -10t2 -5q3 -3 7 -3zM867 4q-8 0 -14.5 6t-6.5 20t6.5 20t14.5 6
t14.5 -6.5t6.5 -19.5q0 -14 -6.5 -20t-14.5 -6zM901 39h-12v6q4 0 8 2q5 3 6 7h8v-49h-10v34zM935 24v19l-15 -19h15zM912 26l23 28h10v-30h7v-8h-7v-11h-10v11h-23v10zM781 26q0 -5 -3.5 -7.5t-7.5 -2.5q-13 0 -13 14q0 5 2 9.5t10 4.5q6 0 9 -3l3 -6h-6q0 5 -5 5
q-8 0 -8 -10q0 -9 8 -9q3 0 5 2q0 1 0.5 1.5t0.5 1.5h5zM769 57q11 0 19 -8t8 -19t-8 -19t-19 -8t-19 8t-8 19t8 19t19 8zM769 49q-8 0 -13.5 -5.5t-5.5 -13.5t5.5 -14t13.5 -6t14 6t6 14t-6 13.5t-14 5.5zM550 113q7 0 13 6.5t6 21.5t-6 21t-14 6t-14 -6t-6 -22
q0 -14 6 -20.5t14 -6.5h1zM654 150q-2 9 -7.5 13.5t-12.5 4.5t-12.5 -5t-7.5 -13h40zM511 167q11 20 33 20q18 0 25 -13v45h24v-60q4 11 14 19.5t28 8.5q25 0 35 -17t10 -37h-66q2 -22 22 -22q12 0 18 12l23 -2q-1 2 -1 4h22q2 -16 20 -16q10 0 13 4t3 6q0 3 -2 6t-10 5
l-19 4q-8 2 -11.5 4t-5.5 4q-7 9 -7 17q0 11 9 20t28 9q10 0 16 -2t11 -5q12 -10 12 -23l-21 -1q0 5 -4.5 9.5t-13.5 4.5t-12 -3t-3 -6q0 -5 8 -8l25 -6q8 -2 12 -4t6 -5q6 -8 6 -16q0 -12 -10 -21.5t-30 -9.5q-17 0 -27.5 7.5t-13.5 18.5q-4 -11 -14.5 -18.5t-27.5 -7.5
q-31 0 -42 29v-26h-23l-1 10q-10 -13 -26 -13q-17 0 -27 13q-2 2 -2 3v-16h-24v56q0 15 -14 15q-16 0 -16 -18v-53h-24v53q0 9 -1 10q-4 8 -12 8q-16 0 -16 -20l-1 -51h-24l1 89h23l1 -12q7 15 24 15q9 0 16 -4.5t11 -11.5q8 16 27 16q18 0 26 -17zM826 118q8 0 14 6.5
t6 18.5q0 11 -6 17.5t-15 6.5q-8 0 -14 -6.5t-6 -17.5q0 -12 6 -18.5t15 -6.5zM783 95h-24v89h24v-22q11 25 37 25q14 0 19 -5t7 -8v-1l1 11h23v-83q0 -10 -1.5 -14.5t-4.5 -9.5q-5 -5 -14 -10t-24 -5q-23 0 -32 11q-8 6 -9 17l25 1q2 -10 16 -10q20 0 20 21v9
q-2 -5 -8.5 -9t-17.5 -4q-26 0 -37 26v-29zM874 184h23l1 -10q7 13 25 13q14 0 22.5 -8t8.5 -21v-63h-24v55q0 16 -14 16q-10 0 -15 -8q-3 -5 -3 -13v-50h-24v89zM46 110q8 0 14 6.5t6 20.5q0 16 -6 22t-14 6t-14 -6.5t-6 -20.5q0 -15 6 -21.5t14 -6.5zM189 139l-4 -2t-6 -2
l-10 -3q-11 -4 -14 -7t-3 -6q0 -5 3.5 -8.5t11.5 -3.5q21 0 21 21zM191 92q-1 2 -3 10q-8 -13 -25 -13t-25.5 8.5t-8.5 19.5t8 19q3 2 8.5 5t20.5 5l13 3q9 1 9 8q0 3 -3.5 6.5t-12.5 3.5t-13 -4t-4 -9h-21v2q0 4 1 6q-8 0 -15 -7q-3 -3 -5 -8t-2 -16v-39h-24v27
q-5 -15 -15 -22.5t-22 -7.5q-16 0 -25 12l-2 -9h-23v124h24v-45q4 5 10 9t16 4q12 0 22 -8t15 -22v27h23l1 -14q5 16 22 16h5v-11q10 12 32 12t31 -9t9 -25v-49q0 -5 3 -8v88l24 -1l1 -10q2 5 8 9.5t16 4.5q14 0 22.5 -8.5t8.5 -21.5v-62h-24v55q0 15 -14 15q-8 0 -15 -7
q-3 -5 -3 -13v-50h-24h-24zM355 102q-10 -13 -25 -13q-13 0 -23 8q-4 4 -6 9t-2 14v61h24v-53q0 -17 14 -17q8 0 13 5t5 15v50h23v-89h-22zM326 597h-84v197h98q28 0 48.5 -17t31.5 -42q14 -30 4 -65q-9 -33 -36.5 -53t-61.5 -20zM342 277h-100v232h118q33 0 58 -20t38 -49
q16 -38 5 -77t-44 -62.5t-75 -23.5z" />
    <glyph glyph-name="quotedbl" unicode="&#x22;" horiz-adv-x="600" 
d="M308 800h200v-201l-200 -200v401v0zM1 800h201v-201l-201 -200v401v0z" />
    <glyph glyph-name="quotesingle" unicode="'" horiz-adv-x="500" 
 />
    <glyph glyph-name="quotedblright" unicode="&#x201d;" horiz-adv-x="600" 
d="M308 801h200v-201l-200 -200v401v0zM1 801h201v-201l-201 -200v401v0z" />
    <glyph glyph-name="quotedblleft" unicode="&#x201c;" horiz-adv-x="600" 
d="M202 800v-401l-201 200v201h201zM508 800v-401l-200 200v201h200z" />
    <glyph glyph-name="semicolon" unicode=";" horiz-adv-x="300" 
d="M199 201v-401l-200 200v201h200zM-1 600v200h201v-200h-201z" />
    <glyph glyph-name="colon" unicode=":" horiz-adv-x="300" 
d="M0 0v200h200v-200h-200zM0 600v200h200v-200h-200z" />
    <glyph glyph-name="comma" unicode="," horiz-adv-x="300" 
d="M200 204v-401l-200 201v200h200v0z" />
    <glyph glyph-name="period" unicode="." horiz-adv-x="300" 
d="M0 0v200h200v-200h-200v0z" />
    <glyph glyph-name="quotesinglbase" unicode="&#x201a;" horiz-adv-x="300" 
d="M200 -197l-200 201v200h200v-401z" />
    <glyph glyph-name="quoteright" unicode="&#x2019;" horiz-adv-x="300" 
d="M200 798v-401l-200 201v200h200v0z" />
    <glyph glyph-name="question" unicode="?" 
d="M299 0h200v200h-200v-200v0zM600 600h-601v200h801v-200v0v-291v0v-10h-500v201h300v100v0z" />
    <glyph glyph-name="at" unicode="@" horiz-adv-x="1020" 
d="M544 794q63 0 109 -21.5t81 -62.5q26 -31 42 -75t16 -98q0 -60 -19 -108t-51.5 -81.5t-76.5 -51.5t-94 -18h-13q30 44 30 100q0 34 -11 64.5t-29.5 55.5t-43 42t-52.5 25q38 16 64 56t26 91q0 46 -21 82h43zM2 40h9l6 -22l6 22h8l6 -22l6 22h10l-11 -35h-9l-6 23l-6 -23
h-9zM53 40h10l6 -22l6 22h8l6 -22l6 22h10l-11 -35h-9l-6 23l-7 -23h-9zM105 40h10l5 -22l7 22h8l6 -22l6 22h9l-10 -35h-9l-6 23l-7 -23h-9zM158 15h10v-10h-10v10zM187 12q8 0 8 11t-8 11t-8 -11t8 -11zM170 54h9v-18q4 6 11 6q5 0 10 -5t5 -14t-5 -14t-11 -5q-5 0 -10 5
v-4h-9v49zM207 40h9v-5q1 6 9 6h2v-8h-2q-3 0 -6 -3q-3 -2 -3 -9v-16h-10zM247 24l-4 -2l-4 -1q-5 -2 -5.5 -3t-0.5 -2q0 -5 6 -5q8 0 8 8v5zM247 9q-3 -5 -10 -5t-10 3.5t-3 7.5q0 5 3 8q1 1 3 2t8 2l6 1q3 0 3 3q0 4 -6 4q-7 0 -7 -5h-8q-1 5 3 8.5t12 3.5q15 0 15 -14
v-19l2 -4h-10q0 1 -0.5 2t-0.5 2zM260 40h9v-4q4 6 10 6q12 0 12 -12v-25h-9v22q0 6 -6 6q-3 0 -6 -3q0 -1 -0.5 -2t-0.5 -3v-20h-9v35zM315 9q-3 -5 -10 -5q-6 0 -9 3t-3 9v1v23h9v-21q0 -6 6 -6q7 0 7 8v19h10v-35h-9zM326 40h10v-4q3 6 10 6q6 0 10 -7q3 7 11 7
q11 0 11 -12v-25h-9v22q0 6 -6 6t-6 -7v-21h-9v21q0 1 -0.5 1.5t-0.5 1.5v1q0 3 -5 3q-6 0 -6 -7v-21h-10v35zM398 12q7 0 7 11t-8 11t-8 -11t9 -11zM405 9q-3 -5 -10 -5q-6 0 -11 5q-4 5 -4 14t4.5 14t10.5 5q7 0 10 -5v17h10v-49h-10v4zM442 27q-1 7 -8 7q-6 0 -8 -7h16z
M426 20q0 -8 8 -8q5 0 8 4l9 -1q-2 -11 -17 -11q-8 0 -13 5t-5 14q0 6 4 12.5t14 6.5t14 -7t4 -15h-26zM462 17q0 -6 7 -6t7 4q0 3 -5 4l-8 2q-3 0 -6 3t-3 6q0 5 3.5 8.5t11.5 3.5q7 0 10 -3q5 -3 5 -9h-8q0 5 -7 5q-6 0 -6 -3t3 -3l10 -3q6 -1 7 -4q2 -2 2 -6
q0 -5 -3.5 -8.5t-11.5 -3.5q-17 0 -17 13h9zM487 54h9v-8h-9v8zM487 41h9v-36h-9v36zM516 15q8 0 8 9q0 10 -8 10t-8 -10q0 -9 8 -9zM510 4q0 -4 6 -4q8 0 8 8v4q-2 -6 -10 -6q-16 0 -16 18t16 18q6 0 8 -2.5t2 -3.5l1 5l9 -1v-32q0 -7 -3 -10q-4 -6 -15 -6q-8 0 -12 4
q-3 3 -4 8h10zM536 40h9v-4q2 6 10 6q12 0 12 -12v-25h-9v22q0 6 -6 6q-3 0 -6 -3q0 -1 -0.5 -2t-0.5 -3v-20h-9v35zM569 15h10v-10h-10v10zM615 18q-1 -10 -9 -13q-2 -1 -7 -1q-7 0 -11 3q-7 5 -7 16q0 7 3 12q5 7 15 7q14 0 16 -13l-9 -1q-2 6 -7 6q-8 0 -8 -11t8 -11
q3 0 4 1q3 1 3 5h9zM635 11q9 0 9 12q0 11 -9 11t-9 -11q0 -12 9 -12zM635 4q-18 0 -18 19t18 19q19 0 19 -19t-19 -19zM655 40h9l1 -4q3 6 9 6q7 0 11 -7q3 7 11 7q11 0 11 -12v-25h-9v22q0 6 -6 6t-6 -7v-21h-10v21v4q-2 3 -5 3q-6 0 -6 -7v-21h-10v35zM810 5q0 8 3.5 12
t7.5 7l7 5q2 2 4.5 4t2.5 7q0 7 -8 7q-7 0 -8 -10h-9v1q0 17 18 17q17 0 17 -16q0 -7 -4 -10.5t-7 -5.5l-8 -5l-4 -4h24v-9h-36zM867 12q4 0 7.5 3.5t3.5 14.5t-3.5 14.5t-7.5 3.5q-10 0 -10 -18q0 -7 1 -10t2 -5q3 -3 7 -3zM867 4q-8 0 -14.5 6t-6.5 20t6.5 20t14.5 6
t14.5 -6.5t6.5 -19.5q0 -14 -6.5 -20t-14.5 -6zM901 39h-12v6q4 0 8 2q5 3 6 7h8v-49h-10v34zM935 24v19l-15 -19h15zM912 26l23 28h10v-30h7v-8h-7v-11h-10v11h-23v10zM781 26q0 -5 -3.5 -7.5t-7.5 -2.5q-13 0 -13 14q0 5 2 9.5t10 4.5q6 0 9 -3l3 -6h-6q0 5 -5 5
q-8 0 -8 -10q0 -9 8 -9q3 0 5 2q0 1 0.5 1.5t0.5 1.5h5zM769 57q11 0 19 -8t8 -19t-8 -19t-19 -8t-19 8t-8 19t8 19t19 8zM769 49q-8 0 -13.5 -5.5t-5.5 -13.5t5.5 -14t13.5 -6t14 6t6 14t-6 13.5t-14 5.5zM550 113q7 0 13 6.5t6 21.5t-6 21t-14 6t-14 -6t-6 -22
q0 -14 6 -20.5t14 -6.5h1zM654 150q-2 9 -7.5 13.5t-12.5 4.5t-12.5 -5t-7.5 -13h40zM511 167q11 20 33 20q18 0 25 -13v45h24v-60q4 11 14 19.5t28 8.5q25 0 35 -17t10 -37h-66q2 -22 22 -22q12 0 18 12l23 -2q-1 2 -1 4h22q2 -16 20 -16q10 0 13 4t3 6q0 3 -2 6t-10 5
l-19 4q-8 2 -11.5 4t-5.5 4q-7 9 -7 17q0 11 9 20t28 9q10 0 16 -2t11 -5q12 -10 12 -23l-21 -1q0 5 -4.5 9.5t-13.5 4.5t-12 -3t-3 -6q0 -5 8 -8l25 -6q8 -2 12 -4t6 -5q6 -8 6 -16q0 -12 -10 -21.5t-30 -9.5q-17 0 -27.5 7.5t-13.5 18.5q-4 -11 -14.5 -18.5t-27.5 -7.5
q-31 0 -42 29v-26h-23l-1 10q-10 -13 -26 -13q-17 0 -27 13q-2 2 -2 3v-16h-24v56q0 15 -14 15q-16 0 -16 -18v-53h-24v53q0 9 -1 10q-4 8 -12 8q-16 0 -16 -20l-1 -51h-24l1 89h23l1 -12q7 15 24 15q9 0 16 -4.5t11 -11.5q8 16 27 16q18 0 26 -17zM826 118q8 0 14 6.5
t6 18.5q0 11 -6 17.5t-15 6.5q-8 0 -14 -6.5t-6 -17.5q0 -12 6 -18.5t15 -6.5zM783 95h-24v89h24v-22q11 25 37 25q14 0 19 -5t7 -8v-1l1 11h23v-83q0 -10 -1.5 -14.5t-4.5 -9.5q-5 -5 -14 -10t-24 -5q-23 0 -32 11q-8 6 -9 17l25 1q2 -10 16 -10q20 0 20 21v9
q-2 -5 -8.5 -9t-17.5 -4q-26 0 -37 26v-29zM874 184h23l1 -10q7 13 25 13q14 0 22.5 -8t8.5 -21v-63h-24v55q0 16 -14 16q-10 0 -15 -8q-3 -5 -3 -13v-50h-24v89zM46 110q8 0 14 6.5t6 20.5q0 16 -6 22t-14 6t-14 -6.5t-6 -20.5q0 -15 6 -21.5t14 -6.5zM189 139l-4 -2t-6 -2
l-10 -3q-11 -4 -14 -7t-3 -6q0 -5 3.5 -8.5t11.5 -3.5q21 0 21 21zM191 92q-1 2 -3 10q-8 -13 -25 -13t-25.5 8.5t-8.5 19.5t8 19q3 2 8.5 5t20.5 5l13 3q9 1 9 8q0 3 -3.5 6.5t-12.5 3.5t-13 -4t-4 -9h-21v2q0 4 1 6q-8 0 -15 -7q-3 -3 -5 -8t-2 -16v-39h-24v27
q-5 -15 -15 -22.5t-22 -7.5q-16 0 -25 12l-2 -9h-23v124h24v-45q4 5 10 9t16 4q12 0 22 -8t15 -22v27h23l1 -14q5 16 22 16h5v-11q10 12 32 12t31 -9t9 -25v-49q0 -5 3 -8v88l24 -1l1 -10q2 5 8 9.5t16 4.5q14 0 22.5 -8.5t8.5 -21.5v-62h-24v55q0 15 -14 15q-8 0 -15 -7
q-3 -5 -3 -13v-50h-24h-24zM355 102q-10 -13 -25 -13q-13 0 -23 8q-4 4 -6 9t-2 14v61h24v-53q0 -17 14 -17q8 0 13 5t5 15v50h23v-89h-22zM326 597h-84v197h98q28 0 48.5 -17t31.5 -42q14 -30 4 -65q-9 -33 -36.5 -53t-61.5 -20zM342 277h-100v232h118q33 0 58 -20t38 -49
q16 -38 5 -77t-44 -62.5t-75 -23.5z" />
    <glyph glyph-name="parenleft" unicode="(" horiz-adv-x="1020" 
d="M544 794q63 0 109 -21.5t81 -62.5q26 -31 42 -75t16 -98q0 -60 -19 -108t-51.5 -81.5t-76.5 -51.5t-94 -18h-13q30 44 30 100q0 34 -11 64.5t-29.5 55.5t-43 42t-52.5 25q38 16 64 56t26 91q0 46 -21 82h43zM2 40h9l6 -22l6 22h8l6 -22l6 22h10l-11 -35h-9l-6 23l-6 -23
h-9zM53 40h10l6 -22l6 22h8l6 -22l6 22h10l-11 -35h-9l-6 23l-7 -23h-9zM105 40h10l5 -22l7 22h8l6 -22l6 22h9l-10 -35h-9l-6 23l-7 -23h-9zM158 15h10v-10h-10v10zM187 12q8 0 8 11t-8 11t-8 -11t8 -11zM170 54h9v-18q4 6 11 6q5 0 10 -5t5 -14t-5 -14t-11 -5q-5 0 -10 5
v-4h-9v49zM207 40h9v-5q1 6 9 6h2v-8h-2q-3 0 -6 -3q-3 -2 -3 -9v-16h-10zM247 24l-4 -2l-4 -1q-5 -2 -5.5 -3t-0.5 -2q0 -5 6 -5q8 0 8 8v5zM247 9q-3 -5 -10 -5t-10 3.5t-3 7.5q0 5 3 8q1 1 3 2t8 2l6 1q3 0 3 3q0 4 -6 4q-7 0 -7 -5h-8q-1 5 3 8.5t12 3.5q15 0 15 -14
v-19l2 -4h-10q0 1 -0.5 2t-0.5 2zM260 40h9v-4q4 6 10 6q12 0 12 -12v-25h-9v22q0 6 -6 6q-3 0 -6 -3q0 -1 -0.5 -2t-0.5 -3v-20h-9v35zM315 9q-3 -5 -10 -5q-6 0 -9 3t-3 9v1v23h9v-21q0 -6 6 -6q7 0 7 8v19h10v-35h-9zM326 40h10v-4q3 6 10 6q6 0 10 -7q3 7 11 7
q11 0 11 -12v-25h-9v22q0 6 -6 6t-6 -7v-21h-9v21q0 1 -0.5 1.5t-0.5 1.5v1q0 3 -5 3q-6 0 -6 -7v-21h-10v35zM398 12q7 0 7 11t-8 11t-8 -11t9 -11zM405 9q-3 -5 -10 -5q-6 0 -11 5q-4 5 -4 14t4.5 14t10.5 5q7 0 10 -5v17h10v-49h-10v4zM442 27q-1 7 -8 7q-6 0 -8 -7h16z
M426 20q0 -8 8 -8q5 0 8 4l9 -1q-2 -11 -17 -11q-8 0 -13 5t-5 14q0 6 4 12.5t14 6.5t14 -7t4 -15h-26zM462 17q0 -6 7 -6t7 4q0 3 -5 4l-8 2q-3 0 -6 3t-3 6q0 5 3.5 8.5t11.5 3.5q7 0 10 -3q5 -3 5 -9h-8q0 5 -7 5q-6 0 -6 -3t3 -3l10 -3q6 -1 7 -4q2 -2 2 -6
q0 -5 -3.5 -8.5t-11.5 -3.5q-17 0 -17 13h9zM487 54h9v-8h-9v8zM487 41h9v-36h-9v36zM516 15q8 0 8 9q0 10 -8 10t-8 -10q0 -9 8 -9zM510 4q0 -4 6 -4q8 0 8 8v4q-2 -6 -10 -6q-16 0 -16 18t16 18q6 0 8 -2.5t2 -3.5l1 5l9 -1v-32q0 -7 -3 -10q-4 -6 -15 -6q-8 0 -12 4
q-3 3 -4 8h10zM536 40h9v-4q2 6 10 6q12 0 12 -12v-25h-9v22q0 6 -6 6q-3 0 -6 -3q0 -1 -0.5 -2t-0.5 -3v-20h-9v35zM569 15h10v-10h-10v10zM615 18q-1 -10 -9 -13q-2 -1 -7 -1q-7 0 -11 3q-7 5 -7 16q0 7 3 12q5 7 15 7q14 0 16 -13l-9 -1q-2 6 -7 6q-8 0 -8 -11t8 -11
q3 0 4 1q3 1 3 5h9zM635 11q9 0 9 12q0 11 -9 11t-9 -11q0 -12 9 -12zM635 4q-18 0 -18 19t18 19q19 0 19 -19t-19 -19zM655 40h9l1 -4q3 6 9 6q7 0 11 -7q3 7 11 7q11 0 11 -12v-25h-9v22q0 6 -6 6t-6 -7v-21h-10v21v4q-2 3 -5 3q-6 0 -6 -7v-21h-10v35zM810 5q0 8 3.5 12
t7.5 7l7 5q2 2 4.5 4t2.5 7q0 7 -8 7q-7 0 -8 -10h-9v1q0 17 18 17q17 0 17 -16q0 -7 -4 -10.5t-7 -5.5l-8 -5l-4 -4h24v-9h-36zM867 12q4 0 7.5 3.5t3.5 14.5t-3.5 14.5t-7.5 3.5q-10 0 -10 -18q0 -7 1 -10t2 -5q3 -3 7 -3zM867 4q-8 0 -14.5 6t-6.5 20t6.5 20t14.5 6
t14.5 -6.5t6.5 -19.5q0 -14 -6.5 -20t-14.5 -6zM901 39h-12v6q4 0 8 2q5 3 6 7h8v-49h-10v34zM935 24v19l-15 -19h15zM912 26l23 28h10v-30h7v-8h-7v-11h-10v11h-23v10zM781 26q0 -5 -3.5 -7.5t-7.5 -2.5q-13 0 -13 14q0 5 2 9.5t10 4.5q6 0 9 -3l3 -6h-6q0 5 -5 5
q-8 0 -8 -10q0 -9 8 -9q3 0 5 2q0 1 0.5 1.5t0.5 1.5h5zM769 57q11 0 19 -8t8 -19t-8 -19t-19 -8t-19 8t-8 19t8 19t19 8zM769 49q-8 0 -13.5 -5.5t-5.5 -13.5t5.5 -14t13.5 -6t14 6t6 14t-6 13.5t-14 5.5zM550 113q7 0 13 6.5t6 21.5t-6 21t-14 6t-14 -6t-6 -22
q0 -14 6 -20.5t14 -6.5h1zM654 150q-2 9 -7.5 13.5t-12.5 4.5t-12.5 -5t-7.5 -13h40zM511 167q11 20 33 20q18 0 25 -13v45h24v-60q4 11 14 19.5t28 8.5q25 0 35 -17t10 -37h-66q2 -22 22 -22q12 0 18 12l23 -2q-1 2 -1 4h22q2 -16 20 -16q10 0 13 4t3 6q0 3 -2 6t-10 5
l-19 4q-8 2 -11.5 4t-5.5 4q-7 9 -7 17q0 11 9 20t28 9q10 0 16 -2t11 -5q12 -10 12 -23l-21 -1q0 5 -4.5 9.5t-13.5 4.5t-12 -3t-3 -6q0 -5 8 -8l25 -6q8 -2 12 -4t6 -5q6 -8 6 -16q0 -12 -10 -21.5t-30 -9.5q-17 0 -27.5 7.5t-13.5 18.5q-4 -11 -14.5 -18.5t-27.5 -7.5
q-31 0 -42 29v-26h-23l-1 10q-10 -13 -26 -13q-17 0 -27 13q-2 2 -2 3v-16h-24v56q0 15 -14 15q-16 0 -16 -18v-53h-24v53q0 9 -1 10q-4 8 -12 8q-16 0 -16 -20l-1 -51h-24l1 89h23l1 -12q7 15 24 15q9 0 16 -4.5t11 -11.5q8 16 27 16q18 0 26 -17zM826 118q8 0 14 6.5
t6 18.5q0 11 -6 17.5t-15 6.5q-8 0 -14 -6.5t-6 -17.5q0 -12 6 -18.5t15 -6.5zM783 95h-24v89h24v-22q11 25 37 25q14 0 19 -5t7 -8v-1l1 11h23v-83q0 -10 -1.5 -14.5t-4.5 -9.5q-5 -5 -14 -10t-24 -5q-23 0 -32 11q-8 6 -9 17l25 1q2 -10 16 -10q20 0 20 21v9
q-2 -5 -8.5 -9t-17.5 -4q-26 0 -37 26v-29zM874 184h23l1 -10q7 13 25 13q14 0 22.5 -8t8.5 -21v-63h-24v55q0 16 -14 16q-10 0 -15 -8q-3 -5 -3 -13v-50h-24v89zM46 110q8 0 14 6.5t6 20.5q0 16 -6 22t-14 6t-14 -6.5t-6 -20.5q0 -15 6 -21.5t14 -6.5zM189 139l-4 -2t-6 -2
l-10 -3q-11 -4 -14 -7t-3 -6q0 -5 3.5 -8.5t11.5 -3.5q21 0 21 21zM191 92q-1 2 -3 10q-8 -13 -25 -13t-25.5 8.5t-8.5 19.5t8 19q3 2 8.5 5t20.5 5l13 3q9 1 9 8q0 3 -3.5 6.5t-12.5 3.5t-13 -4t-4 -9h-21v2q0 4 1 6q-8 0 -15 -7q-3 -3 -5 -8t-2 -16v-39h-24v27
q-5 -15 -15 -22.5t-22 -7.5q-16 0 -25 12l-2 -9h-23v124h24v-45q4 5 10 9t16 4q12 0 22 -8t15 -22v27h23l1 -14q5 16 22 16h5v-11q10 12 32 12t31 -9t9 -25v-49q0 -5 3 -8v88l24 -1l1 -10q2 5 8 9.5t16 4.5q14 0 22.5 -8.5t8.5 -21.5v-62h-24v55q0 15 -14 15q-8 0 -15 -7
q-3 -5 -3 -13v-50h-24h-24zM355 102q-10 -13 -25 -13q-13 0 -23 8q-4 4 -6 9t-2 14v61h24v-53q0 -17 14 -17q8 0 13 5t5 15v50h23v-89h-22zM326 597h-84v197h98q28 0 48.5 -17t31.5 -42q14 -30 4 -65q-9 -33 -36.5 -53t-61.5 -20zM342 277h-100v232h118q33 0 58 -20t38 -49
q16 -38 5 -77t-44 -62.5t-75 -23.5z" />
    <glyph glyph-name="parenright" unicode=")" horiz-adv-x="1020" 
d="M544 794q63 0 109 -21.5t81 -62.5q26 -31 42 -75t16 -98q0 -60 -19 -108t-51.5 -81.5t-76.5 -51.5t-94 -18h-13q30 44 30 100q0 34 -11 64.5t-29.5 55.5t-43 42t-52.5 25q38 16 64 56t26 91q0 46 -21 82h43zM2 40h9l6 -22l6 22h8l6 -22l6 22h10l-11 -35h-9l-6 23l-6 -23
h-9zM53 40h10l6 -22l6 22h8l6 -22l6 22h10l-11 -35h-9l-6 23l-7 -23h-9zM105 40h10l5 -22l7 22h8l6 -22l6 22h9l-10 -35h-9l-6 23l-7 -23h-9zM158 15h10v-10h-10v10zM187 12q8 0 8 11t-8 11t-8 -11t8 -11zM170 54h9v-18q4 6 11 6q5 0 10 -5t5 -14t-5 -14t-11 -5q-5 0 -10 5
v-4h-9v49zM207 40h9v-5q1 6 9 6h2v-8h-2q-3 0 -6 -3q-3 -2 -3 -9v-16h-10zM247 24l-4 -2l-4 -1q-5 -2 -5.5 -3t-0.5 -2q0 -5 6 -5q8 0 8 8v5zM247 9q-3 -5 -10 -5t-10 3.5t-3 7.5q0 5 3 8q1 1 3 2t8 2l6 1q3 0 3 3q0 4 -6 4q-7 0 -7 -5h-8q-1 5 3 8.5t12 3.5q15 0 15 -14
v-19l2 -4h-10q0 1 -0.5 2t-0.5 2zM260 40h9v-4q4 6 10 6q12 0 12 -12v-25h-9v22q0 6 -6 6q-3 0 -6 -3q0 -1 -0.5 -2t-0.5 -3v-20h-9v35zM315 9q-3 -5 -10 -5q-6 0 -9 3t-3 9v1v23h9v-21q0 -6 6 -6q7 0 7 8v19h10v-35h-9zM326 40h10v-4q3 6 10 6q6 0 10 -7q3 7 11 7
q11 0 11 -12v-25h-9v22q0 6 -6 6t-6 -7v-21h-9v21q0 1 -0.5 1.5t-0.5 1.5v1q0 3 -5 3q-6 0 -6 -7v-21h-10v35zM398 12q7 0 7 11t-8 11t-8 -11t9 -11zM405 9q-3 -5 -10 -5q-6 0 -11 5q-4 5 -4 14t4.5 14t10.5 5q7 0 10 -5v17h10v-49h-10v4zM442 27q-1 7 -8 7q-6 0 -8 -7h16z
M426 20q0 -8 8 -8q5 0 8 4l9 -1q-2 -11 -17 -11q-8 0 -13 5t-5 14q0 6 4 12.5t14 6.5t14 -7t4 -15h-26zM462 17q0 -6 7 -6t7 4q0 3 -5 4l-8 2q-3 0 -6 3t-3 6q0 5 3.5 8.5t11.5 3.5q7 0 10 -3q5 -3 5 -9h-8q0 5 -7 5q-6 0 -6 -3t3 -3l10 -3q6 -1 7 -4q2 -2 2 -6
q0 -5 -3.5 -8.5t-11.5 -3.5q-17 0 -17 13h9zM487 54h9v-8h-9v8zM487 41h9v-36h-9v36zM516 15q8 0 8 9q0 10 -8 10t-8 -10q0 -9 8 -9zM510 4q0 -4 6 -4q8 0 8 8v4q-2 -6 -10 -6q-16 0 -16 18t16 18q6 0 8 -2.5t2 -3.5l1 5l9 -1v-32q0 -7 -3 -10q-4 -6 -15 -6q-8 0 -12 4
q-3 3 -4 8h10zM536 40h9v-4q2 6 10 6q12 0 12 -12v-25h-9v22q0 6 -6 6q-3 0 -6 -3q0 -1 -0.5 -2t-0.5 -3v-20h-9v35zM569 15h10v-10h-10v10zM615 18q-1 -10 -9 -13q-2 -1 -7 -1q-7 0 -11 3q-7 5 -7 16q0 7 3 12q5 7 15 7q14 0 16 -13l-9 -1q-2 6 -7 6q-8 0 -8 -11t8 -11
q3 0 4 1q3 1 3 5h9zM635 11q9 0 9 12q0 11 -9 11t-9 -11q0 -12 9 -12zM635 4q-18 0 -18 19t18 19q19 0 19 -19t-19 -19zM655 40h9l1 -4q3 6 9 6q7 0 11 -7q3 7 11 7q11 0 11 -12v-25h-9v22q0 6 -6 6t-6 -7v-21h-10v21v4q-2 3 -5 3q-6 0 -6 -7v-21h-10v35zM810 5q0 8 3.5 12
t7.5 7l7 5q2 2 4.5 4t2.5 7q0 7 -8 7q-7 0 -8 -10h-9v1q0 17 18 17q17 0 17 -16q0 -7 -4 -10.5t-7 -5.5l-8 -5l-4 -4h24v-9h-36zM867 12q4 0 7.5 3.5t3.5 14.5t-3.5 14.5t-7.5 3.5q-10 0 -10 -18q0 -7 1 -10t2 -5q3 -3 7 -3zM867 4q-8 0 -14.5 6t-6.5 20t6.5 20t14.5 6
t14.5 -6.5t6.5 -19.5q0 -14 -6.5 -20t-14.5 -6zM901 39h-12v6q4 0 8 2q5 3 6 7h8v-49h-10v34zM935 24v19l-15 -19h15zM912 26l23 28h10v-30h7v-8h-7v-11h-10v11h-23v10zM781 26q0 -5 -3.5 -7.5t-7.5 -2.5q-13 0 -13 14q0 5 2 9.5t10 4.5q6 0 9 -3l3 -6h-6q0 5 -5 5
q-8 0 -8 -10q0 -9 8 -9q3 0 5 2q0 1 0.5 1.5t0.5 1.5h5zM769 57q11 0 19 -8t8 -19t-8 -19t-19 -8t-19 8t-8 19t8 19t19 8zM769 49q-8 0 -13.5 -5.5t-5.5 -13.5t5.5 -14t13.5 -6t14 6t6 14t-6 13.5t-14 5.5zM550 113q7 0 13 6.5t6 21.5t-6 21t-14 6t-14 -6t-6 -22
q0 -14 6 -20.5t14 -6.5h1zM654 150q-2 9 -7.5 13.5t-12.5 4.5t-12.5 -5t-7.5 -13h40zM511 167q11 20 33 20q18 0 25 -13v45h24v-60q4 11 14 19.5t28 8.5q25 0 35 -17t10 -37h-66q2 -22 22 -22q12 0 18 12l23 -2q-1 2 -1 4h22q2 -16 20 -16q10 0 13 4t3 6q0 3 -2 6t-10 5
l-19 4q-8 2 -11.5 4t-5.5 4q-7 9 -7 17q0 11 9 20t28 9q10 0 16 -2t11 -5q12 -10 12 -23l-21 -1q0 5 -4.5 9.5t-13.5 4.5t-12 -3t-3 -6q0 -5 8 -8l25 -6q8 -2 12 -4t6 -5q6 -8 6 -16q0 -12 -10 -21.5t-30 -9.5q-17 0 -27.5 7.5t-13.5 18.5q-4 -11 -14.5 -18.5t-27.5 -7.5
q-31 0 -42 29v-26h-23l-1 10q-10 -13 -26 -13q-17 0 -27 13q-2 2 -2 3v-16h-24v56q0 15 -14 15q-16 0 -16 -18v-53h-24v53q0 9 -1 10q-4 8 -12 8q-16 0 -16 -20l-1 -51h-24l1 89h23l1 -12q7 15 24 15q9 0 16 -4.5t11 -11.5q8 16 27 16q18 0 26 -17zM826 118q8 0 14 6.5
t6 18.5q0 11 -6 17.5t-15 6.5q-8 0 -14 -6.5t-6 -17.5q0 -12 6 -18.5t15 -6.5zM783 95h-24v89h24v-22q11 25 37 25q14 0 19 -5t7 -8v-1l1 11h23v-83q0 -10 -1.5 -14.5t-4.5 -9.5q-5 -5 -14 -10t-24 -5q-23 0 -32 11q-8 6 -9 17l25 1q2 -10 16 -10q20 0 20 21v9
q-2 -5 -8.5 -9t-17.5 -4q-26 0 -37 26v-29zM874 184h23l1 -10q7 13 25 13q14 0 22.5 -8t8.5 -21v-63h-24v55q0 16 -14 16q-10 0 -15 -8q-3 -5 -3 -13v-50h-24v89zM46 110q8 0 14 6.5t6 20.5q0 16 -6 22t-14 6t-14 -6.5t-6 -20.5q0 -15 6 -21.5t14 -6.5zM189 139l-4 -2t-6 -2
l-10 -3q-11 -4 -14 -7t-3 -6q0 -5 3.5 -8.5t11.5 -3.5q21 0 21 21zM191 92q-1 2 -3 10q-8 -13 -25 -13t-25.5 8.5t-8.5 19.5t8 19q3 2 8.5 5t20.5 5l13 3q9 1 9 8q0 3 -3.5 6.5t-12.5 3.5t-13 -4t-4 -9h-21v2q0 4 1 6q-8 0 -15 -7q-3 -3 -5 -8t-2 -16v-39h-24v27
q-5 -15 -15 -22.5t-22 -7.5q-16 0 -25 12l-2 -9h-23v124h24v-45q4 5 10 9t16 4q12 0 22 -8t15 -22v27h23l1 -14q5 16 22 16h5v-11q10 12 32 12t31 -9t9 -25v-49q0 -5 3 -8v88l24 -1l1 -10q2 5 8 9.5t16 4.5q14 0 22.5 -8.5t8.5 -21.5v-62h-24v55q0 15 -14 15q-8 0 -15 -7
q-3 -5 -3 -13v-50h-24h-24zM355 102q-10 -13 -25 -13q-13 0 -23 8q-4 4 -6 9t-2 14v61h24v-53q0 -17 14 -17q8 0 13 5t5 15v50h23v-89h-22zM326 597h-84v197h98q28 0 48.5 -17t31.5 -42q14 -30 4 -65q-9 -33 -36.5 -53t-61.5 -20zM342 277h-100v232h118q33 0 58 -20t38 -49
q16 -38 5 -77t-44 -62.5t-75 -23.5z" />
    <glyph glyph-name="asterisk" unicode="*" horiz-adv-x="1020" 
d="M544 794q63 0 109 -21.5t81 -62.5q26 -31 42 -75t16 -98q0 -60 -19 -108t-51.5 -81.5t-76.5 -51.5t-94 -18h-13q30 44 30 100q0 34 -11 64.5t-29.5 55.5t-43 42t-52.5 25q38 16 64 56t26 91q0 46 -21 82h43zM2 40h9l6 -22l6 22h8l6 -22l6 22h10l-11 -35h-9l-6 23l-6 -23
h-9zM53 40h10l6 -22l6 22h8l6 -22l6 22h10l-11 -35h-9l-6 23l-7 -23h-9zM105 40h10l5 -22l7 22h8l6 -22l6 22h9l-10 -35h-9l-6 23l-7 -23h-9zM158 15h10v-10h-10v10zM187 12q8 0 8 11t-8 11t-8 -11t8 -11zM170 54h9v-18q4 6 11 6q5 0 10 -5t5 -14t-5 -14t-11 -5q-5 0 -10 5
v-4h-9v49zM207 40h9v-5q1 6 9 6h2v-8h-2q-3 0 -6 -3q-3 -2 -3 -9v-16h-10zM247 24l-4 -2l-4 -1q-5 -2 -5.5 -3t-0.5 -2q0 -5 6 -5q8 0 8 8v5zM247 9q-3 -5 -10 -5t-10 3.5t-3 7.5q0 5 3 8q1 1 3 2t8 2l6 1q3 0 3 3q0 4 -6 4q-7 0 -7 -5h-8q-1 5 3 8.5t12 3.5q15 0 15 -14
v-19l2 -4h-10q0 1 -0.5 2t-0.5 2zM260 40h9v-4q4 6 10 6q12 0 12 -12v-25h-9v22q0 6 -6 6q-3 0 -6 -3q0 -1 -0.5 -2t-0.5 -3v-20h-9v35zM315 9q-3 -5 -10 -5q-6 0 -9 3t-3 9v1v23h9v-21q0 -6 6 -6q7 0 7 8v19h10v-35h-9zM326 40h10v-4q3 6 10 6q6 0 10 -7q3 7 11 7
q11 0 11 -12v-25h-9v22q0 6 -6 6t-6 -7v-21h-9v21q0 1 -0.5 1.5t-0.5 1.5v1q0 3 -5 3q-6 0 -6 -7v-21h-10v35zM398 12q7 0 7 11t-8 11t-8 -11t9 -11zM405 9q-3 -5 -10 -5q-6 0 -11 5q-4 5 -4 14t4.5 14t10.5 5q7 0 10 -5v17h10v-49h-10v4zM442 27q-1 7 -8 7q-6 0 -8 -7h16z
M426 20q0 -8 8 -8q5 0 8 4l9 -1q-2 -11 -17 -11q-8 0 -13 5t-5 14q0 6 4 12.5t14 6.5t14 -7t4 -15h-26zM462 17q0 -6 7 -6t7 4q0 3 -5 4l-8 2q-3 0 -6 3t-3 6q0 5 3.5 8.5t11.5 3.5q7 0 10 -3q5 -3 5 -9h-8q0 5 -7 5q-6 0 -6 -3t3 -3l10 -3q6 -1 7 -4q2 -2 2 -6
q0 -5 -3.5 -8.5t-11.5 -3.5q-17 0 -17 13h9zM487 54h9v-8h-9v8zM487 41h9v-36h-9v36zM516 15q8 0 8 9q0 10 -8 10t-8 -10q0 -9 8 -9zM510 4q0 -4 6 -4q8 0 8 8v4q-2 -6 -10 -6q-16 0 -16 18t16 18q6 0 8 -2.5t2 -3.5l1 5l9 -1v-32q0 -7 -3 -10q-4 -6 -15 -6q-8 0 -12 4
q-3 3 -4 8h10zM536 40h9v-4q2 6 10 6q12 0 12 -12v-25h-9v22q0 6 -6 6q-3 0 -6 -3q0 -1 -0.5 -2t-0.5 -3v-20h-9v35zM569 15h10v-10h-10v10zM615 18q-1 -10 -9 -13q-2 -1 -7 -1q-7 0 -11 3q-7 5 -7 16q0 7 3 12q5 7 15 7q14 0 16 -13l-9 -1q-2 6 -7 6q-8 0 -8 -11t8 -11
q3 0 4 1q3 1 3 5h9zM635 11q9 0 9 12q0 11 -9 11t-9 -11q0 -12 9 -12zM635 4q-18 0 -18 19t18 19q19 0 19 -19t-19 -19zM655 40h9l1 -4q3 6 9 6q7 0 11 -7q3 7 11 7q11 0 11 -12v-25h-9v22q0 6 -6 6t-6 -7v-21h-10v21v4q-2 3 -5 3q-6 0 -6 -7v-21h-10v35zM810 5q0 8 3.5 12
t7.5 7l7 5q2 2 4.5 4t2.5 7q0 7 -8 7q-7 0 -8 -10h-9v1q0 17 18 17q17 0 17 -16q0 -7 -4 -10.5t-7 -5.5l-8 -5l-4 -4h24v-9h-36zM867 12q4 0 7.5 3.5t3.5 14.5t-3.5 14.5t-7.5 3.5q-10 0 -10 -18q0 -7 1 -10t2 -5q3 -3 7 -3zM867 4q-8 0 -14.5 6t-6.5 20t6.5 20t14.5 6
t14.5 -6.5t6.5 -19.5q0 -14 -6.5 -20t-14.5 -6zM901 39h-12v6q4 0 8 2q5 3 6 7h8v-49h-10v34zM935 24v19l-15 -19h15zM912 26l23 28h10v-30h7v-8h-7v-11h-10v11h-23v10zM781 26q0 -5 -3.5 -7.5t-7.5 -2.5q-13 0 -13 14q0 5 2 9.5t10 4.5q6 0 9 -3l3 -6h-6q0 5 -5 5
q-8 0 -8 -10q0 -9 8 -9q3 0 5 2q0 1 0.5 1.5t0.5 1.5h5zM769 57q11 0 19 -8t8 -19t-8 -19t-19 -8t-19 8t-8 19t8 19t19 8zM769 49q-8 0 -13.5 -5.5t-5.5 -13.5t5.5 -14t13.5 -6t14 6t6 14t-6 13.5t-14 5.5zM550 113q7 0 13 6.5t6 21.5t-6 21t-14 6t-14 -6t-6 -22
q0 -14 6 -20.5t14 -6.5h1zM654 150q-2 9 -7.5 13.5t-12.5 4.5t-12.5 -5t-7.5 -13h40zM511 167q11 20 33 20q18 0 25 -13v45h24v-60q4 11 14 19.5t28 8.5q25 0 35 -17t10 -37h-66q2 -22 22 -22q12 0 18 12l23 -2q-1 2 -1 4h22q2 -16 20 -16q10 0 13 4t3 6q0 3 -2 6t-10 5
l-19 4q-8 2 -11.5 4t-5.5 4q-7 9 -7 17q0 11 9 20t28 9q10 0 16 -2t11 -5q12 -10 12 -23l-21 -1q0 5 -4.5 9.5t-13.5 4.5t-12 -3t-3 -6q0 -5 8 -8l25 -6q8 -2 12 -4t6 -5q6 -8 6 -16q0 -12 -10 -21.5t-30 -9.5q-17 0 -27.5 7.5t-13.5 18.5q-4 -11 -14.5 -18.5t-27.5 -7.5
q-31 0 -42 29v-26h-23l-1 10q-10 -13 -26 -13q-17 0 -27 13q-2 2 -2 3v-16h-24v56q0 15 -14 15q-16 0 -16 -18v-53h-24v53q0 9 -1 10q-4 8 -12 8q-16 0 -16 -20l-1 -51h-24l1 89h23l1 -12q7 15 24 15q9 0 16 -4.5t11 -11.5q8 16 27 16q18 0 26 -17zM826 118q8 0 14 6.5
t6 18.5q0 11 -6 17.5t-15 6.5q-8 0 -14 -6.5t-6 -17.5q0 -12 6 -18.5t15 -6.5zM783 95h-24v89h24v-22q11 25 37 25q14 0 19 -5t7 -8v-1l1 11h23v-83q0 -10 -1.5 -14.5t-4.5 -9.5q-5 -5 -14 -10t-24 -5q-23 0 -32 11q-8 6 -9 17l25 1q2 -10 16 -10q20 0 20 21v9
q-2 -5 -8.5 -9t-17.5 -4q-26 0 -37 26v-29zM874 184h23l1 -10q7 13 25 13q14 0 22.5 -8t8.5 -21v-63h-24v55q0 16 -14 16q-10 0 -15 -8q-3 -5 -3 -13v-50h-24v89zM46 110q8 0 14 6.5t6 20.5q0 16 -6 22t-14 6t-14 -6.5t-6 -20.5q0 -15 6 -21.5t14 -6.5zM189 139l-4 -2t-6 -2
l-10 -3q-11 -4 -14 -7t-3 -6q0 -5 3.5 -8.5t11.5 -3.5q21 0 21 21zM191 92q-1 2 -3 10q-8 -13 -25 -13t-25.5 8.5t-8.5 19.5t8 19q3 2 8.5 5t20.5 5l13 3q9 1 9 8q0 3 -3.5 6.5t-12.5 3.5t-13 -4t-4 -9h-21v2q0 4 1 6q-8 0 -15 -7q-3 -3 -5 -8t-2 -16v-39h-24v27
q-5 -15 -15 -22.5t-22 -7.5q-16 0 -25 12l-2 -9h-23v124h24v-45q4 5 10 9t16 4q12 0 22 -8t15 -22v27h23l1 -14q5 16 22 16h5v-11q10 12 32 12t31 -9t9 -25v-49q0 -5 3 -8v88l24 -1l1 -10q2 5 8 9.5t16 4.5q14 0 22.5 -8.5t8.5 -21.5v-62h-24v55q0 15 -14 15q-8 0 -15 -7
q-3 -5 -3 -13v-50h-24h-24zM355 102q-10 -13 -25 -13q-13 0 -23 8q-4 4 -6 9t-2 14v61h24v-53q0 -17 14 -17q8 0 13 5t5 15v50h23v-89h-22zM326 597h-84v197h98q28 0 48.5 -17t31.5 -42q14 -30 4 -65q-9 -33 -36.5 -53t-61.5 -20zM342 277h-100v232h118q33 0 58 -20t38 -49
q16 -38 5 -77t-44 -62.5t-75 -23.5z" />
    <glyph glyph-name="plus" unicode="+" horiz-adv-x="1020" 
d="M544 794q63 0 109 -21.5t81 -62.5q26 -31 42 -75t16 -98q0 -60 -19 -108t-51.5 -81.5t-76.5 -51.5t-94 -18h-13q30 44 30 100q0 34 -11 64.5t-29.5 55.5t-43 42t-52.5 25q38 16 64 56t26 91q0 46 -21 82h43zM2 40h9l6 -22l6 22h8l6 -22l6 22h10l-11 -35h-9l-6 23l-6 -23
h-9zM53 40h10l6 -22l6 22h8l6 -22l6 22h10l-11 -35h-9l-6 23l-7 -23h-9zM105 40h10l5 -22l7 22h8l6 -22l6 22h9l-10 -35h-9l-6 23l-7 -23h-9zM158 15h10v-10h-10v10zM187 12q8 0 8 11t-8 11t-8 -11t8 -11zM170 54h9v-18q4 6 11 6q5 0 10 -5t5 -14t-5 -14t-11 -5q-5 0 -10 5
v-4h-9v49zM207 40h9v-5q1 6 9 6h2v-8h-2q-3 0 -6 -3q-3 -2 -3 -9v-16h-10zM247 24l-4 -2l-4 -1q-5 -2 -5.5 -3t-0.5 -2q0 -5 6 -5q8 0 8 8v5zM247 9q-3 -5 -10 -5t-10 3.5t-3 7.5q0 5 3 8q1 1 3 2t8 2l6 1q3 0 3 3q0 4 -6 4q-7 0 -7 -5h-8q-1 5 3 8.5t12 3.5q15 0 15 -14
v-19l2 -4h-10q0 1 -0.5 2t-0.5 2zM260 40h9v-4q4 6 10 6q12 0 12 -12v-25h-9v22q0 6 -6 6q-3 0 -6 -3q0 -1 -0.5 -2t-0.5 -3v-20h-9v35zM315 9q-3 -5 -10 -5q-6 0 -9 3t-3 9v1v23h9v-21q0 -6 6 -6q7 0 7 8v19h10v-35h-9zM326 40h10v-4q3 6 10 6q6 0 10 -7q3 7 11 7
q11 0 11 -12v-25h-9v22q0 6 -6 6t-6 -7v-21h-9v21q0 1 -0.5 1.5t-0.5 1.5v1q0 3 -5 3q-6 0 -6 -7v-21h-10v35zM398 12q7 0 7 11t-8 11t-8 -11t9 -11zM405 9q-3 -5 -10 -5q-6 0 -11 5q-4 5 -4 14t4.5 14t10.5 5q7 0 10 -5v17h10v-49h-10v4zM442 27q-1 7 -8 7q-6 0 -8 -7h16z
M426 20q0 -8 8 -8q5 0 8 4l9 -1q-2 -11 -17 -11q-8 0 -13 5t-5 14q0 6 4 12.5t14 6.5t14 -7t4 -15h-26zM462 17q0 -6 7 -6t7 4q0 3 -5 4l-8 2q-3 0 -6 3t-3 6q0 5 3.5 8.5t11.5 3.5q7 0 10 -3q5 -3 5 -9h-8q0 5 -7 5q-6 0 -6 -3t3 -3l10 -3q6 -1 7 -4q2 -2 2 -6
q0 -5 -3.5 -8.5t-11.5 -3.5q-17 0 -17 13h9zM487 54h9v-8h-9v8zM487 41h9v-36h-9v36zM516 15q8 0 8 9q0 10 -8 10t-8 -10q0 -9 8 -9zM510 4q0 -4 6 -4q8 0 8 8v4q-2 -6 -10 -6q-16 0 -16 18t16 18q6 0 8 -2.5t2 -3.5l1 5l9 -1v-32q0 -7 -3 -10q-4 -6 -15 -6q-8 0 -12 4
q-3 3 -4 8h10zM536 40h9v-4q2 6 10 6q12 0 12 -12v-25h-9v22q0 6 -6 6q-3 0 -6 -3q0 -1 -0.5 -2t-0.5 -3v-20h-9v35zM569 15h10v-10h-10v10zM615 18q-1 -10 -9 -13q-2 -1 -7 -1q-7 0 -11 3q-7 5 -7 16q0 7 3 12q5 7 15 7q14 0 16 -13l-9 -1q-2 6 -7 6q-8 0 -8 -11t8 -11
q3 0 4 1q3 1 3 5h9zM635 11q9 0 9 12q0 11 -9 11t-9 -11q0 -12 9 -12zM635 4q-18 0 -18 19t18 19q19 0 19 -19t-19 -19zM655 40h9l1 -4q3 6 9 6q7 0 11 -7q3 7 11 7q11 0 11 -12v-25h-9v22q0 6 -6 6t-6 -7v-21h-10v21v4q-2 3 -5 3q-6 0 -6 -7v-21h-10v35zM810 5q0 8 3.5 12
t7.5 7l7 5q2 2 4.5 4t2.5 7q0 7 -8 7q-7 0 -8 -10h-9v1q0 17 18 17q17 0 17 -16q0 -7 -4 -10.5t-7 -5.5l-8 -5l-4 -4h24v-9h-36zM867 12q4 0 7.5 3.5t3.5 14.5t-3.5 14.5t-7.5 3.5q-10 0 -10 -18q0 -7 1 -10t2 -5q3 -3 7 -3zM867 4q-8 0 -14.5 6t-6.5 20t6.5 20t14.5 6
t14.5 -6.5t6.5 -19.5q0 -14 -6.5 -20t-14.5 -6zM901 39h-12v6q4 0 8 2q5 3 6 7h8v-49h-10v34zM935 24v19l-15 -19h15zM912 26l23 28h10v-30h7v-8h-7v-11h-10v11h-23v10zM781 26q0 -5 -3.5 -7.5t-7.5 -2.5q-13 0 -13 14q0 5 2 9.5t10 4.5q6 0 9 -3l3 -6h-6q0 5 -5 5
q-8 0 -8 -10q0 -9 8 -9q3 0 5 2q0 1 0.5 1.5t0.5 1.5h5zM769 57q11 0 19 -8t8 -19t-8 -19t-19 -8t-19 8t-8 19t8 19t19 8zM769 49q-8 0 -13.5 -5.5t-5.5 -13.5t5.5 -14t13.5 -6t14 6t6 14t-6 13.5t-14 5.5zM550 113q7 0 13 6.5t6 21.5t-6 21t-14 6t-14 -6t-6 -22
q0 -14 6 -20.5t14 -6.5h1zM654 150q-2 9 -7.5 13.5t-12.5 4.5t-12.5 -5t-7.5 -13h40zM511 167q11 20 33 20q18 0 25 -13v45h24v-60q4 11 14 19.5t28 8.5q25 0 35 -17t10 -37h-66q2 -22 22 -22q12 0 18 12l23 -2q-1 2 -1 4h22q2 -16 20 -16q10 0 13 4t3 6q0 3 -2 6t-10 5
l-19 4q-8 2 -11.5 4t-5.5 4q-7 9 -7 17q0 11 9 20t28 9q10 0 16 -2t11 -5q12 -10 12 -23l-21 -1q0 5 -4.5 9.5t-13.5 4.5t-12 -3t-3 -6q0 -5 8 -8l25 -6q8 -2 12 -4t6 -5q6 -8 6 -16q0 -12 -10 -21.5t-30 -9.5q-17 0 -27.5 7.5t-13.5 18.5q-4 -11 -14.5 -18.5t-27.5 -7.5
q-31 0 -42 29v-26h-23l-1 10q-10 -13 -26 -13q-17 0 -27 13q-2 2 -2 3v-16h-24v56q0 15 -14 15q-16 0 -16 -18v-53h-24v53q0 9 -1 10q-4 8 -12 8q-16 0 -16 -20l-1 -51h-24l1 89h23l1 -12q7 15 24 15q9 0 16 -4.5t11 -11.5q8 16 27 16q18 0 26 -17zM826 118q8 0 14 6.5
t6 18.5q0 11 -6 17.5t-15 6.5q-8 0 -14 -6.5t-6 -17.5q0 -12 6 -18.5t15 -6.5zM783 95h-24v89h24v-22q11 25 37 25q14 0 19 -5t7 -8v-1l1 11h23v-83q0 -10 -1.5 -14.5t-4.5 -9.5q-5 -5 -14 -10t-24 -5q-23 0 -32 11q-8 6 -9 17l25 1q2 -10 16 -10q20 0 20 21v9
q-2 -5 -8.5 -9t-17.5 -4q-26 0 -37 26v-29zM874 184h23l1 -10q7 13 25 13q14 0 22.5 -8t8.5 -21v-63h-24v55q0 16 -14 16q-10 0 -15 -8q-3 -5 -3 -13v-50h-24v89zM46 110q8 0 14 6.5t6 20.5q0 16 -6 22t-14 6t-14 -6.5t-6 -20.5q0 -15 6 -21.5t14 -6.5zM189 139l-4 -2t-6 -2
l-10 -3q-11 -4 -14 -7t-3 -6q0 -5 3.5 -8.5t11.5 -3.5q21 0 21 21zM191 92q-1 2 -3 10q-8 -13 -25 -13t-25.5 8.5t-8.5 19.5t8 19q3 2 8.5 5t20.5 5l13 3q9 1 9 8q0 3 -3.5 6.5t-12.5 3.5t-13 -4t-4 -9h-21v2q0 4 1 6q-8 0 -15 -7q-3 -3 -5 -8t-2 -16v-39h-24v27
q-5 -15 -15 -22.5t-22 -7.5q-16 0 -25 12l-2 -9h-23v124h24v-45q4 5 10 9t16 4q12 0 22 -8t15 -22v27h23l1 -14q5 16 22 16h5v-11q10 12 32 12t31 -9t9 -25v-49q0 -5 3 -8v88l24 -1l1 -10q2 5 8 9.5t16 4.5q14 0 22.5 -8.5t8.5 -21.5v-62h-24v55q0 15 -14 15q-8 0 -15 -7
q-3 -5 -3 -13v-50h-24h-24zM355 102q-10 -13 -25 -13q-13 0 -23 8q-4 4 -6 9t-2 14v61h24v-53q0 -17 14 -17q8 0 13 5t5 15v50h23v-89h-22zM326 597h-84v197h98q28 0 48.5 -17t31.5 -42q14 -30 4 -65q-9 -33 -36.5 -53t-61.5 -20zM342 277h-100v232h118q33 0 58 -20t38 -49
q16 -38 5 -77t-44 -62.5t-75 -23.5z" />
    <glyph glyph-name="hyphen" unicode="-" horiz-adv-x="1020" 
d="M544 794q63 0 109 -21.5t81 -62.5q26 -31 42 -75t16 -98q0 -60 -19 -108t-51.5 -81.5t-76.5 -51.5t-94 -18h-13q30 44 30 100q0 34 -11 64.5t-29.5 55.5t-43 42t-52.5 25q38 16 64 56t26 91q0 46 -21 82h43zM2 40h9l6 -22l6 22h8l6 -22l6 22h10l-11 -35h-9l-6 23l-6 -23
h-9zM53 40h10l6 -22l6 22h8l6 -22l6 22h10l-11 -35h-9l-6 23l-7 -23h-9zM105 40h10l5 -22l7 22h8l6 -22l6 22h9l-10 -35h-9l-6 23l-7 -23h-9zM158 15h10v-10h-10v10zM187 12q8 0 8 11t-8 11t-8 -11t8 -11zM170 54h9v-18q4 6 11 6q5 0 10 -5t5 -14t-5 -14t-11 -5q-5 0 -10 5
v-4h-9v49zM207 40h9v-5q1 6 9 6h2v-8h-2q-3 0 -6 -3q-3 -2 -3 -9v-16h-10zM247 24l-4 -2l-4 -1q-5 -2 -5.5 -3t-0.5 -2q0 -5 6 -5q8 0 8 8v5zM247 9q-3 -5 -10 -5t-10 3.5t-3 7.5q0 5 3 8q1 1 3 2t8 2l6 1q3 0 3 3q0 4 -6 4q-7 0 -7 -5h-8q-1 5 3 8.5t12 3.5q15 0 15 -14
v-19l2 -4h-10q0 1 -0.5 2t-0.5 2zM260 40h9v-4q4 6 10 6q12 0 12 -12v-25h-9v22q0 6 -6 6q-3 0 -6 -3q0 -1 -0.5 -2t-0.5 -3v-20h-9v35zM315 9q-3 -5 -10 -5q-6 0 -9 3t-3 9v1v23h9v-21q0 -6 6 -6q7 0 7 8v19h10v-35h-9zM326 40h10v-4q3 6 10 6q6 0 10 -7q3 7 11 7
q11 0 11 -12v-25h-9v22q0 6 -6 6t-6 -7v-21h-9v21q0 1 -0.5 1.5t-0.5 1.5v1q0 3 -5 3q-6 0 -6 -7v-21h-10v35zM398 12q7 0 7 11t-8 11t-8 -11t9 -11zM405 9q-3 -5 -10 -5q-6 0 -11 5q-4 5 -4 14t4.5 14t10.5 5q7 0 10 -5v17h10v-49h-10v4zM442 27q-1 7 -8 7q-6 0 -8 -7h16z
M426 20q0 -8 8 -8q5 0 8 4l9 -1q-2 -11 -17 -11q-8 0 -13 5t-5 14q0 6 4 12.5t14 6.5t14 -7t4 -15h-26zM462 17q0 -6 7 -6t7 4q0 3 -5 4l-8 2q-3 0 -6 3t-3 6q0 5 3.5 8.5t11.5 3.5q7 0 10 -3q5 -3 5 -9h-8q0 5 -7 5q-6 0 -6 -3t3 -3l10 -3q6 -1 7 -4q2 -2 2 -6
q0 -5 -3.5 -8.5t-11.5 -3.5q-17 0 -17 13h9zM487 54h9v-8h-9v8zM487 41h9v-36h-9v36zM516 15q8 0 8 9q0 10 -8 10t-8 -10q0 -9 8 -9zM510 4q0 -4 6 -4q8 0 8 8v4q-2 -6 -10 -6q-16 0 -16 18t16 18q6 0 8 -2.5t2 -3.5l1 5l9 -1v-32q0 -7 -3 -10q-4 -6 -15 -6q-8 0 -12 4
q-3 3 -4 8h10zM536 40h9v-4q2 6 10 6q12 0 12 -12v-25h-9v22q0 6 -6 6q-3 0 -6 -3q0 -1 -0.5 -2t-0.5 -3v-20h-9v35zM569 15h10v-10h-10v10zM615 18q-1 -10 -9 -13q-2 -1 -7 -1q-7 0 -11 3q-7 5 -7 16q0 7 3 12q5 7 15 7q14 0 16 -13l-9 -1q-2 6 -7 6q-8 0 -8 -11t8 -11
q3 0 4 1q3 1 3 5h9zM635 11q9 0 9 12q0 11 -9 11t-9 -11q0 -12 9 -12zM635 4q-18 0 -18 19t18 19q19 0 19 -19t-19 -19zM655 40h9l1 -4q3 6 9 6q7 0 11 -7q3 7 11 7q11 0 11 -12v-25h-9v22q0 6 -6 6t-6 -7v-21h-10v21v4q-2 3 -5 3q-6 0 -6 -7v-21h-10v35zM810 5q0 8 3.5 12
t7.5 7l7 5q2 2 4.5 4t2.5 7q0 7 -8 7q-7 0 -8 -10h-9v1q0 17 18 17q17 0 17 -16q0 -7 -4 -10.5t-7 -5.5l-8 -5l-4 -4h24v-9h-36zM867 12q4 0 7.5 3.5t3.5 14.5t-3.5 14.5t-7.5 3.5q-10 0 -10 -18q0 -7 1 -10t2 -5q3 -3 7 -3zM867 4q-8 0 -14.5 6t-6.5 20t6.5 20t14.5 6
t14.5 -6.5t6.5 -19.5q0 -14 -6.5 -20t-14.5 -6zM901 39h-12v6q4 0 8 2q5 3 6 7h8v-49h-10v34zM935 24v19l-15 -19h15zM912 26l23 28h10v-30h7v-8h-7v-11h-10v11h-23v10zM781 26q0 -5 -3.5 -7.5t-7.5 -2.5q-13 0 -13 14q0 5 2 9.5t10 4.5q6 0 9 -3l3 -6h-6q0 5 -5 5
q-8 0 -8 -10q0 -9 8 -9q3 0 5 2q0 1 0.5 1.5t0.5 1.5h5zM769 57q11 0 19 -8t8 -19t-8 -19t-19 -8t-19 8t-8 19t8 19t19 8zM769 49q-8 0 -13.5 -5.5t-5.5 -13.5t5.5 -14t13.5 -6t14 6t6 14t-6 13.5t-14 5.5zM550 113q7 0 13 6.5t6 21.5t-6 21t-14 6t-14 -6t-6 -22
q0 -14 6 -20.5t14 -6.5h1zM654 150q-2 9 -7.5 13.5t-12.5 4.5t-12.5 -5t-7.5 -13h40zM511 167q11 20 33 20q18 0 25 -13v45h24v-60q4 11 14 19.5t28 8.5q25 0 35 -17t10 -37h-66q2 -22 22 -22q12 0 18 12l23 -2q-1 2 -1 4h22q2 -16 20 -16q10 0 13 4t3 6q0 3 -2 6t-10 5
l-19 4q-8 2 -11.5 4t-5.5 4q-7 9 -7 17q0 11 9 20t28 9q10 0 16 -2t11 -5q12 -10 12 -23l-21 -1q0 5 -4.5 9.5t-13.5 4.5t-12 -3t-3 -6q0 -5 8 -8l25 -6q8 -2 12 -4t6 -5q6 -8 6 -16q0 -12 -10 -21.5t-30 -9.5q-17 0 -27.5 7.5t-13.5 18.5q-4 -11 -14.5 -18.5t-27.5 -7.5
q-31 0 -42 29v-26h-23l-1 10q-10 -13 -26 -13q-17 0 -27 13q-2 2 -2 3v-16h-24v56q0 15 -14 15q-16 0 -16 -18v-53h-24v53q0 9 -1 10q-4 8 -12 8q-16 0 -16 -20l-1 -51h-24l1 89h23l1 -12q7 15 24 15q9 0 16 -4.5t11 -11.5q8 16 27 16q18 0 26 -17zM826 118q8 0 14 6.5
t6 18.5q0 11 -6 17.5t-15 6.5q-8 0 -14 -6.5t-6 -17.5q0 -12 6 -18.5t15 -6.5zM783 95h-24v89h24v-22q11 25 37 25q14 0 19 -5t7 -8v-1l1 11h23v-83q0 -10 -1.5 -14.5t-4.5 -9.5q-5 -5 -14 -10t-24 -5q-23 0 -32 11q-8 6 -9 17l25 1q2 -10 16 -10q20 0 20 21v9
q-2 -5 -8.5 -9t-17.5 -4q-26 0 -37 26v-29zM874 184h23l1 -10q7 13 25 13q14 0 22.5 -8t8.5 -21v-63h-24v55q0 16 -14 16q-10 0 -15 -8q-3 -5 -3 -13v-50h-24v89zM46 110q8 0 14 6.5t6 20.5q0 16 -6 22t-14 6t-14 -6.5t-6 -20.5q0 -15 6 -21.5t14 -6.5zM189 139l-4 -2t-6 -2
l-10 -3q-11 -4 -14 -7t-3 -6q0 -5 3.5 -8.5t11.5 -3.5q21 0 21 21zM191 92q-1 2 -3 10q-8 -13 -25 -13t-25.5 8.5t-8.5 19.5t8 19q3 2 8.5 5t20.5 5l13 3q9 1 9 8q0 3 -3.5 6.5t-12.5 3.5t-13 -4t-4 -9h-21v2q0 4 1 6q-8 0 -15 -7q-3 -3 -5 -8t-2 -16v-39h-24v27
q-5 -15 -15 -22.5t-22 -7.5q-16 0 -25 12l-2 -9h-23v124h24v-45q4 5 10 9t16 4q12 0 22 -8t15 -22v27h23l1 -14q5 16 22 16h5v-11q10 12 32 12t31 -9t9 -25v-49q0 -5 3 -8v88l24 -1l1 -10q2 5 8 9.5t16 4.5q14 0 22.5 -8.5t8.5 -21.5v-62h-24v55q0 15 -14 15q-8 0 -15 -7
q-3 -5 -3 -13v-50h-24h-24zM355 102q-10 -13 -25 -13q-13 0 -23 8q-4 4 -6 9t-2 14v61h24v-53q0 -17 14 -17q8 0 13 5t5 15v50h23v-89h-22zM326 597h-84v197h98q28 0 48.5 -17t31.5 -42q14 -30 4 -65q-9 -33 -36.5 -53t-61.5 -20zM342 277h-100v232h118q33 0 58 -20t38 -49
q16 -38 5 -77t-44 -62.5t-75 -23.5z" />
    <glyph glyph-name="slash" unicode="/" horiz-adv-x="1020" 
d="M544 794q63 0 109 -21.5t81 -62.5q26 -31 42 -75t16 -98q0 -60 -19 -108t-51.5 -81.5t-76.5 -51.5t-94 -18h-13q30 44 30 100q0 34 -11 64.5t-29.5 55.5t-43 42t-52.5 25q38 16 64 56t26 91q0 46 -21 82h43zM2 40h9l6 -22l6 22h8l6 -22l6 22h10l-11 -35h-9l-6 23l-6 -23
h-9zM53 40h10l6 -22l6 22h8l6 -22l6 22h10l-11 -35h-9l-6 23l-7 -23h-9zM105 40h10l5 -22l7 22h8l6 -22l6 22h9l-10 -35h-9l-6 23l-7 -23h-9zM158 15h10v-10h-10v10zM187 12q8 0 8 11t-8 11t-8 -11t8 -11zM170 54h9v-18q4 6 11 6q5 0 10 -5t5 -14t-5 -14t-11 -5q-5 0 -10 5
v-4h-9v49zM207 40h9v-5q1 6 9 6h2v-8h-2q-3 0 -6 -3q-3 -2 -3 -9v-16h-10zM247 24l-4 -2l-4 -1q-5 -2 -5.5 -3t-0.5 -2q0 -5 6 -5q8 0 8 8v5zM247 9q-3 -5 -10 -5t-10 3.5t-3 7.5q0 5 3 8q1 1 3 2t8 2l6 1q3 0 3 3q0 4 -6 4q-7 0 -7 -5h-8q-1 5 3 8.5t12 3.5q15 0 15 -14
v-19l2 -4h-10q0 1 -0.5 2t-0.5 2zM260 40h9v-4q4 6 10 6q12 0 12 -12v-25h-9v22q0 6 -6 6q-3 0 -6 -3q0 -1 -0.5 -2t-0.5 -3v-20h-9v35zM315 9q-3 -5 -10 -5q-6 0 -9 3t-3 9v1v23h9v-21q0 -6 6 -6q7 0 7 8v19h10v-35h-9zM326 40h10v-4q3 6 10 6q6 0 10 -7q3 7 11 7
q11 0 11 -12v-25h-9v22q0 6 -6 6t-6 -7v-21h-9v21q0 1 -0.5 1.5t-0.5 1.5v1q0 3 -5 3q-6 0 -6 -7v-21h-10v35zM398 12q7 0 7 11t-8 11t-8 -11t9 -11zM405 9q-3 -5 -10 -5q-6 0 -11 5q-4 5 -4 14t4.5 14t10.5 5q7 0 10 -5v17h10v-49h-10v4zM442 27q-1 7 -8 7q-6 0 -8 -7h16z
M426 20q0 -8 8 -8q5 0 8 4l9 -1q-2 -11 -17 -11q-8 0 -13 5t-5 14q0 6 4 12.5t14 6.5t14 -7t4 -15h-26zM462 17q0 -6 7 -6t7 4q0 3 -5 4l-8 2q-3 0 -6 3t-3 6q0 5 3.5 8.5t11.5 3.5q7 0 10 -3q5 -3 5 -9h-8q0 5 -7 5q-6 0 -6 -3t3 -3l10 -3q6 -1 7 -4q2 -2 2 -6
q0 -5 -3.5 -8.5t-11.5 -3.5q-17 0 -17 13h9zM487 54h9v-8h-9v8zM487 41h9v-36h-9v36zM516 15q8 0 8 9q0 10 -8 10t-8 -10q0 -9 8 -9zM510 4q0 -4 6 -4q8 0 8 8v4q-2 -6 -10 -6q-16 0 -16 18t16 18q6 0 8 -2.5t2 -3.5l1 5l9 -1v-32q0 -7 -3 -10q-4 -6 -15 -6q-8 0 -12 4
q-3 3 -4 8h10zM536 40h9v-4q2 6 10 6q12 0 12 -12v-25h-9v22q0 6 -6 6q-3 0 -6 -3q0 -1 -0.5 -2t-0.5 -3v-20h-9v35zM569 15h10v-10h-10v10zM615 18q-1 -10 -9 -13q-2 -1 -7 -1q-7 0 -11 3q-7 5 -7 16q0 7 3 12q5 7 15 7q14 0 16 -13l-9 -1q-2 6 -7 6q-8 0 -8 -11t8 -11
q3 0 4 1q3 1 3 5h9zM635 11q9 0 9 12q0 11 -9 11t-9 -11q0 -12 9 -12zM635 4q-18 0 -18 19t18 19q19 0 19 -19t-19 -19zM655 40h9l1 -4q3 6 9 6q7 0 11 -7q3 7 11 7q11 0 11 -12v-25h-9v22q0 6 -6 6t-6 -7v-21h-10v21v4q-2 3 -5 3q-6 0 -6 -7v-21h-10v35zM810 5q0 8 3.5 12
t7.5 7l7 5q2 2 4.5 4t2.5 7q0 7 -8 7q-7 0 -8 -10h-9v1q0 17 18 17q17 0 17 -16q0 -7 -4 -10.5t-7 -5.5l-8 -5l-4 -4h24v-9h-36zM867 12q4 0 7.5 3.5t3.5 14.5t-3.5 14.5t-7.5 3.5q-10 0 -10 -18q0 -7 1 -10t2 -5q3 -3 7 -3zM867 4q-8 0 -14.5 6t-6.5 20t6.5 20t14.5 6
t14.5 -6.5t6.5 -19.5q0 -14 -6.5 -20t-14.5 -6zM901 39h-12v6q4 0 8 2q5 3 6 7h8v-49h-10v34zM935 24v19l-15 -19h15zM912 26l23 28h10v-30h7v-8h-7v-11h-10v11h-23v10zM781 26q0 -5 -3.5 -7.5t-7.5 -2.5q-13 0 -13 14q0 5 2 9.5t10 4.5q6 0 9 -3l3 -6h-6q0 5 -5 5
q-8 0 -8 -10q0 -9 8 -9q3 0 5 2q0 1 0.5 1.5t0.5 1.5h5zM769 57q11 0 19 -8t8 -19t-8 -19t-19 -8t-19 8t-8 19t8 19t19 8zM769 49q-8 0 -13.5 -5.5t-5.5 -13.5t5.5 -14t13.5 -6t14 6t6 14t-6 13.5t-14 5.5zM550 113q7 0 13 6.5t6 21.5t-6 21t-14 6t-14 -6t-6 -22
q0 -14 6 -20.5t14 -6.5h1zM654 150q-2 9 -7.5 13.5t-12.5 4.5t-12.5 -5t-7.5 -13h40zM511 167q11 20 33 20q18 0 25 -13v45h24v-60q4 11 14 19.5t28 8.5q25 0 35 -17t10 -37h-66q2 -22 22 -22q12 0 18 12l23 -2q-1 2 -1 4h22q2 -16 20 -16q10 0 13 4t3 6q0 3 -2 6t-10 5
l-19 4q-8 2 -11.5 4t-5.5 4q-7 9 -7 17q0 11 9 20t28 9q10 0 16 -2t11 -5q12 -10 12 -23l-21 -1q0 5 -4.5 9.5t-13.5 4.5t-12 -3t-3 -6q0 -5 8 -8l25 -6q8 -2 12 -4t6 -5q6 -8 6 -16q0 -12 -10 -21.5t-30 -9.5q-17 0 -27.5 7.5t-13.5 18.5q-4 -11 -14.5 -18.5t-27.5 -7.5
q-31 0 -42 29v-26h-23l-1 10q-10 -13 -26 -13q-17 0 -27 13q-2 2 -2 3v-16h-24v56q0 15 -14 15q-16 0 -16 -18v-53h-24v53q0 9 -1 10q-4 8 -12 8q-16 0 -16 -20l-1 -51h-24l1 89h23l1 -12q7 15 24 15q9 0 16 -4.5t11 -11.5q8 16 27 16q18 0 26 -17zM826 118q8 0 14 6.5
t6 18.5q0 11 -6 17.5t-15 6.5q-8 0 -14 -6.5t-6 -17.5q0 -12 6 -18.5t15 -6.5zM783 95h-24v89h24v-22q11 25 37 25q14 0 19 -5t7 -8v-1l1 11h23v-83q0 -10 -1.5 -14.5t-4.5 -9.5q-5 -5 -14 -10t-24 -5q-23 0 -32 11q-8 6 -9 17l25 1q2 -10 16 -10q20 0 20 21v9
q-2 -5 -8.5 -9t-17.5 -4q-26 0 -37 26v-29zM874 184h23l1 -10q7 13 25 13q14 0 22.5 -8t8.5 -21v-63h-24v55q0 16 -14 16q-10 0 -15 -8q-3 -5 -3 -13v-50h-24v89zM46 110q8 0 14 6.5t6 20.5q0 16 -6 22t-14 6t-14 -6.5t-6 -20.5q0 -15 6 -21.5t14 -6.5zM189 139l-4 -2t-6 -2
l-10 -3q-11 -4 -14 -7t-3 -6q0 -5 3.5 -8.5t11.5 -3.5q21 0 21 21zM191 92q-1 2 -3 10q-8 -13 -25 -13t-25.5 8.5t-8.5 19.5t8 19q3 2 8.5 5t20.5 5l13 3q9 1 9 8q0 3 -3.5 6.5t-12.5 3.5t-13 -4t-4 -9h-21v2q0 4 1 6q-8 0 -15 -7q-3 -3 -5 -8t-2 -16v-39h-24v27
q-5 -15 -15 -22.5t-22 -7.5q-16 0 -25 12l-2 -9h-23v124h24v-45q4 5 10 9t16 4q12 0 22 -8t15 -22v27h23l1 -14q5 16 22 16h5v-11q10 12 32 12t31 -9t9 -25v-49q0 -5 3 -8v88l24 -1l1 -10q2 5 8 9.5t16 4.5q14 0 22.5 -8.5t8.5 -21.5v-62h-24v55q0 15 -14 15q-8 0 -15 -7
q-3 -5 -3 -13v-50h-24h-24zM355 102q-10 -13 -25 -13q-13 0 -23 8q-4 4 -6 9t-2 14v61h24v-53q0 -17 14 -17q8 0 13 5t5 15v50h23v-89h-22zM326 597h-84v197h98q28 0 48.5 -17t31.5 -42q14 -30 4 -65q-9 -33 -36.5 -53t-61.5 -20zM342 277h-100v232h118q33 0 58 -20t38 -49
q16 -38 5 -77t-44 -62.5t-75 -23.5z" />
    <glyph glyph-name="less" unicode="&#x3c;" horiz-adv-x="1020" 
d="M544 794q63 0 109 -21.5t81 -62.5q26 -31 42 -75t16 -98q0 -60 -19 -108t-51.5 -81.5t-76.5 -51.5t-94 -18h-13q30 44 30 100q0 34 -11 64.5t-29.5 55.5t-43 42t-52.5 25q38 16 64 56t26 91q0 46 -21 82h43zM2 40h9l6 -22l6 22h8l6 -22l6 22h10l-11 -35h-9l-6 23l-6 -23
h-9zM53 40h10l6 -22l6 22h8l6 -22l6 22h10l-11 -35h-9l-6 23l-7 -23h-9zM105 40h10l5 -22l7 22h8l6 -22l6 22h9l-10 -35h-9l-6 23l-7 -23h-9zM158 15h10v-10h-10v10zM187 12q8 0 8 11t-8 11t-8 -11t8 -11zM170 54h9v-18q4 6 11 6q5 0 10 -5t5 -14t-5 -14t-11 -5q-5 0 -10 5
v-4h-9v49zM207 40h9v-5q1 6 9 6h2v-8h-2q-3 0 -6 -3q-3 -2 -3 -9v-16h-10zM247 24l-4 -2l-4 -1q-5 -2 -5.5 -3t-0.5 -2q0 -5 6 -5q8 0 8 8v5zM247 9q-3 -5 -10 -5t-10 3.5t-3 7.5q0 5 3 8q1 1 3 2t8 2l6 1q3 0 3 3q0 4 -6 4q-7 0 -7 -5h-8q-1 5 3 8.5t12 3.5q15 0 15 -14
v-19l2 -4h-10q0 1 -0.5 2t-0.5 2zM260 40h9v-4q4 6 10 6q12 0 12 -12v-25h-9v22q0 6 -6 6q-3 0 -6 -3q0 -1 -0.5 -2t-0.5 -3v-20h-9v35zM315 9q-3 -5 -10 -5q-6 0 -9 3t-3 9v1v23h9v-21q0 -6 6 -6q7 0 7 8v19h10v-35h-9zM326 40h10v-4q3 6 10 6q6 0 10 -7q3 7 11 7
q11 0 11 -12v-25h-9v22q0 6 -6 6t-6 -7v-21h-9v21q0 1 -0.5 1.5t-0.5 1.5v1q0 3 -5 3q-6 0 -6 -7v-21h-10v35zM398 12q7 0 7 11t-8 11t-8 -11t9 -11zM405 9q-3 -5 -10 -5q-6 0 -11 5q-4 5 -4 14t4.5 14t10.5 5q7 0 10 -5v17h10v-49h-10v4zM442 27q-1 7 -8 7q-6 0 -8 -7h16z
M426 20q0 -8 8 -8q5 0 8 4l9 -1q-2 -11 -17 -11q-8 0 -13 5t-5 14q0 6 4 12.5t14 6.5t14 -7t4 -15h-26zM462 17q0 -6 7 -6t7 4q0 3 -5 4l-8 2q-3 0 -6 3t-3 6q0 5 3.5 8.5t11.5 3.5q7 0 10 -3q5 -3 5 -9h-8q0 5 -7 5q-6 0 -6 -3t3 -3l10 -3q6 -1 7 -4q2 -2 2 -6
q0 -5 -3.5 -8.5t-11.5 -3.5q-17 0 -17 13h9zM487 54h9v-8h-9v8zM487 41h9v-36h-9v36zM516 15q8 0 8 9q0 10 -8 10t-8 -10q0 -9 8 -9zM510 4q0 -4 6 -4q8 0 8 8v4q-2 -6 -10 -6q-16 0 -16 18t16 18q6 0 8 -2.5t2 -3.5l1 5l9 -1v-32q0 -7 -3 -10q-4 -6 -15 -6q-8 0 -12 4
q-3 3 -4 8h10zM536 40h9v-4q2 6 10 6q12 0 12 -12v-25h-9v22q0 6 -6 6q-3 0 -6 -3q0 -1 -0.5 -2t-0.5 -3v-20h-9v35zM569 15h10v-10h-10v10zM615 18q-1 -10 -9 -13q-2 -1 -7 -1q-7 0 -11 3q-7 5 -7 16q0 7 3 12q5 7 15 7q14 0 16 -13l-9 -1q-2 6 -7 6q-8 0 -8 -11t8 -11
q3 0 4 1q3 1 3 5h9zM635 11q9 0 9 12q0 11 -9 11t-9 -11q0 -12 9 -12zM635 4q-18 0 -18 19t18 19q19 0 19 -19t-19 -19zM655 40h9l1 -4q3 6 9 6q7 0 11 -7q3 7 11 7q11 0 11 -12v-25h-9v22q0 6 -6 6t-6 -7v-21h-10v21v4q-2 3 -5 3q-6 0 -6 -7v-21h-10v35zM810 5q0 8 3.5 12
t7.5 7l7 5q2 2 4.5 4t2.5 7q0 7 -8 7q-7 0 -8 -10h-9v1q0 17 18 17q17 0 17 -16q0 -7 -4 -10.5t-7 -5.5l-8 -5l-4 -4h24v-9h-36zM867 12q4 0 7.5 3.5t3.5 14.5t-3.5 14.5t-7.5 3.5q-10 0 -10 -18q0 -7 1 -10t2 -5q3 -3 7 -3zM867 4q-8 0 -14.5 6t-6.5 20t6.5 20t14.5 6
t14.5 -6.5t6.5 -19.5q0 -14 -6.5 -20t-14.5 -6zM901 39h-12v6q4 0 8 2q5 3 6 7h8v-49h-10v34zM935 24v19l-15 -19h15zM912 26l23 28h10v-30h7v-8h-7v-11h-10v11h-23v10zM781 26q0 -5 -3.5 -7.5t-7.5 -2.5q-13 0 -13 14q0 5 2 9.5t10 4.5q6 0 9 -3l3 -6h-6q0 5 -5 5
q-8 0 -8 -10q0 -9 8 -9q3 0 5 2q0 1 0.5 1.5t0.5 1.5h5zM769 57q11 0 19 -8t8 -19t-8 -19t-19 -8t-19 8t-8 19t8 19t19 8zM769 49q-8 0 -13.5 -5.5t-5.5 -13.5t5.5 -14t13.5 -6t14 6t6 14t-6 13.5t-14 5.5zM550 113q7 0 13 6.5t6 21.5t-6 21t-14 6t-14 -6t-6 -22
q0 -14 6 -20.5t14 -6.5h1zM654 150q-2 9 -7.5 13.5t-12.5 4.5t-12.5 -5t-7.5 -13h40zM511 167q11 20 33 20q18 0 25 -13v45h24v-60q4 11 14 19.5t28 8.5q25 0 35 -17t10 -37h-66q2 -22 22 -22q12 0 18 12l23 -2q-1 2 -1 4h22q2 -16 20 -16q10 0 13 4t3 6q0 3 -2 6t-10 5
l-19 4q-8 2 -11.5 4t-5.5 4q-7 9 -7 17q0 11 9 20t28 9q10 0 16 -2t11 -5q12 -10 12 -23l-21 -1q0 5 -4.5 9.5t-13.5 4.5t-12 -3t-3 -6q0 -5 8 -8l25 -6q8 -2 12 -4t6 -5q6 -8 6 -16q0 -12 -10 -21.5t-30 -9.5q-17 0 -27.5 7.5t-13.5 18.5q-4 -11 -14.5 -18.5t-27.5 -7.5
q-31 0 -42 29v-26h-23l-1 10q-10 -13 -26 -13q-17 0 -27 13q-2 2 -2 3v-16h-24v56q0 15 -14 15q-16 0 -16 -18v-53h-24v53q0 9 -1 10q-4 8 -12 8q-16 0 -16 -20l-1 -51h-24l1 89h23l1 -12q7 15 24 15q9 0 16 -4.5t11 -11.5q8 16 27 16q18 0 26 -17zM826 118q8 0 14 6.5
t6 18.5q0 11 -6 17.5t-15 6.5q-8 0 -14 -6.5t-6 -17.5q0 -12 6 -18.5t15 -6.5zM783 95h-24v89h24v-22q11 25 37 25q14 0 19 -5t7 -8v-1l1 11h23v-83q0 -10 -1.5 -14.5t-4.5 -9.5q-5 -5 -14 -10t-24 -5q-23 0 -32 11q-8 6 -9 17l25 1q2 -10 16 -10q20 0 20 21v9
q-2 -5 -8.5 -9t-17.5 -4q-26 0 -37 26v-29zM874 184h23l1 -10q7 13 25 13q14 0 22.5 -8t8.5 -21v-63h-24v55q0 16 -14 16q-10 0 -15 -8q-3 -5 -3 -13v-50h-24v89zM46 110q8 0 14 6.5t6 20.5q0 16 -6 22t-14 6t-14 -6.5t-6 -20.5q0 -15 6 -21.5t14 -6.5zM189 139l-4 -2t-6 -2
l-10 -3q-11 -4 -14 -7t-3 -6q0 -5 3.5 -8.5t11.5 -3.5q21 0 21 21zM191 92q-1 2 -3 10q-8 -13 -25 -13t-25.5 8.5t-8.5 19.5t8 19q3 2 8.5 5t20.5 5l13 3q9 1 9 8q0 3 -3.5 6.5t-12.5 3.5t-13 -4t-4 -9h-21v2q0 4 1 6q-8 0 -15 -7q-3 -3 -5 -8t-2 -16v-39h-24v27
q-5 -15 -15 -22.5t-22 -7.5q-16 0 -25 12l-2 -9h-23v124h24v-45q4 5 10 9t16 4q12 0 22 -8t15 -22v27h23l1 -14q5 16 22 16h5v-11q10 12 32 12t31 -9t9 -25v-49q0 -5 3 -8v88l24 -1l1 -10q2 5 8 9.5t16 4.5q14 0 22.5 -8.5t8.5 -21.5v-62h-24v55q0 15 -14 15q-8 0 -15 -7
q-3 -5 -3 -13v-50h-24h-24zM355 102q-10 -13 -25 -13q-13 0 -23 8q-4 4 -6 9t-2 14v61h24v-53q0 -17 14 -17q8 0 13 5t5 15v50h23v-89h-22zM326 597h-84v197h98q28 0 48.5 -17t31.5 -42q14 -30 4 -65q-9 -33 -36.5 -53t-61.5 -20zM342 277h-100v232h118q33 0 58 -20t38 -49
q16 -38 5 -77t-44 -62.5t-75 -23.5z" />
    <glyph glyph-name="equal" unicode="=" horiz-adv-x="1020" 
d="M544 794q63 0 109 -21.5t81 -62.5q26 -31 42 -75t16 -98q0 -60 -19 -108t-51.5 -81.5t-76.5 -51.5t-94 -18h-13q30 44 30 100q0 34 -11 64.5t-29.5 55.5t-43 42t-52.5 25q38 16 64 56t26 91q0 46 -21 82h43zM2 40h9l6 -22l6 22h8l6 -22l6 22h10l-11 -35h-9l-6 23l-6 -23
h-9zM53 40h10l6 -22l6 22h8l6 -22l6 22h10l-11 -35h-9l-6 23l-7 -23h-9zM105 40h10l5 -22l7 22h8l6 -22l6 22h9l-10 -35h-9l-6 23l-7 -23h-9zM158 15h10v-10h-10v10zM187 12q8 0 8 11t-8 11t-8 -11t8 -11zM170 54h9v-18q4 6 11 6q5 0 10 -5t5 -14t-5 -14t-11 -5q-5 0 -10 5
v-4h-9v49zM207 40h9v-5q1 6 9 6h2v-8h-2q-3 0 -6 -3q-3 -2 -3 -9v-16h-10zM247 24l-4 -2l-4 -1q-5 -2 -5.5 -3t-0.5 -2q0 -5 6 -5q8 0 8 8v5zM247 9q-3 -5 -10 -5t-10 3.5t-3 7.5q0 5 3 8q1 1 3 2t8 2l6 1q3 0 3 3q0 4 -6 4q-7 0 -7 -5h-8q-1 5 3 8.5t12 3.5q15 0 15 -14
v-19l2 -4h-10q0 1 -0.5 2t-0.5 2zM260 40h9v-4q4 6 10 6q12 0 12 -12v-25h-9v22q0 6 -6 6q-3 0 -6 -3q0 -1 -0.5 -2t-0.5 -3v-20h-9v35zM315 9q-3 -5 -10 -5q-6 0 -9 3t-3 9v1v23h9v-21q0 -6 6 -6q7 0 7 8v19h10v-35h-9zM326 40h10v-4q3 6 10 6q6 0 10 -7q3 7 11 7
q11 0 11 -12v-25h-9v22q0 6 -6 6t-6 -7v-21h-9v21q0 1 -0.5 1.5t-0.5 1.5v1q0 3 -5 3q-6 0 -6 -7v-21h-10v35zM398 12q7 0 7 11t-8 11t-8 -11t9 -11zM405 9q-3 -5 -10 -5q-6 0 -11 5q-4 5 -4 14t4.5 14t10.5 5q7 0 10 -5v17h10v-49h-10v4zM442 27q-1 7 -8 7q-6 0 -8 -7h16z
M426 20q0 -8 8 -8q5 0 8 4l9 -1q-2 -11 -17 -11q-8 0 -13 5t-5 14q0 6 4 12.5t14 6.5t14 -7t4 -15h-26zM462 17q0 -6 7 -6t7 4q0 3 -5 4l-8 2q-3 0 -6 3t-3 6q0 5 3.5 8.5t11.5 3.5q7 0 10 -3q5 -3 5 -9h-8q0 5 -7 5q-6 0 -6 -3t3 -3l10 -3q6 -1 7 -4q2 -2 2 -6
q0 -5 -3.5 -8.5t-11.5 -3.5q-17 0 -17 13h9zM487 54h9v-8h-9v8zM487 41h9v-36h-9v36zM516 15q8 0 8 9q0 10 -8 10t-8 -10q0 -9 8 -9zM510 4q0 -4 6 -4q8 0 8 8v4q-2 -6 -10 -6q-16 0 -16 18t16 18q6 0 8 -2.5t2 -3.5l1 5l9 -1v-32q0 -7 -3 -10q-4 -6 -15 -6q-8 0 -12 4
q-3 3 -4 8h10zM536 40h9v-4q2 6 10 6q12 0 12 -12v-25h-9v22q0 6 -6 6q-3 0 -6 -3q0 -1 -0.5 -2t-0.5 -3v-20h-9v35zM569 15h10v-10h-10v10zM615 18q-1 -10 -9 -13q-2 -1 -7 -1q-7 0 -11 3q-7 5 -7 16q0 7 3 12q5 7 15 7q14 0 16 -13l-9 -1q-2 6 -7 6q-8 0 -8 -11t8 -11
q3 0 4 1q3 1 3 5h9zM635 11q9 0 9 12q0 11 -9 11t-9 -11q0 -12 9 -12zM635 4q-18 0 -18 19t18 19q19 0 19 -19t-19 -19zM655 40h9l1 -4q3 6 9 6q7 0 11 -7q3 7 11 7q11 0 11 -12v-25h-9v22q0 6 -6 6t-6 -7v-21h-10v21v4q-2 3 -5 3q-6 0 -6 -7v-21h-10v35zM810 5q0 8 3.5 12
t7.5 7l7 5q2 2 4.5 4t2.5 7q0 7 -8 7q-7 0 -8 -10h-9v1q0 17 18 17q17 0 17 -16q0 -7 -4 -10.5t-7 -5.5l-8 -5l-4 -4h24v-9h-36zM867 12q4 0 7.5 3.5t3.5 14.5t-3.5 14.5t-7.5 3.5q-10 0 -10 -18q0 -7 1 -10t2 -5q3 -3 7 -3zM867 4q-8 0 -14.5 6t-6.5 20t6.5 20t14.5 6
t14.5 -6.5t6.5 -19.5q0 -14 -6.5 -20t-14.5 -6zM901 39h-12v6q4 0 8 2q5 3 6 7h8v-49h-10v34zM935 24v19l-15 -19h15zM912 26l23 28h10v-30h7v-8h-7v-11h-10v11h-23v10zM781 26q0 -5 -3.5 -7.5t-7.5 -2.5q-13 0 -13 14q0 5 2 9.5t10 4.5q6 0 9 -3l3 -6h-6q0 5 -5 5
q-8 0 -8 -10q0 -9 8 -9q3 0 5 2q0 1 0.5 1.5t0.5 1.5h5zM769 57q11 0 19 -8t8 -19t-8 -19t-19 -8t-19 8t-8 19t8 19t19 8zM769 49q-8 0 -13.5 -5.5t-5.5 -13.5t5.5 -14t13.5 -6t14 6t6 14t-6 13.5t-14 5.5zM550 113q7 0 13 6.5t6 21.5t-6 21t-14 6t-14 -6t-6 -22
q0 -14 6 -20.5t14 -6.5h1zM654 150q-2 9 -7.5 13.5t-12.5 4.5t-12.5 -5t-7.5 -13h40zM511 167q11 20 33 20q18 0 25 -13v45h24v-60q4 11 14 19.5t28 8.5q25 0 35 -17t10 -37h-66q2 -22 22 -22q12 0 18 12l23 -2q-1 2 -1 4h22q2 -16 20 -16q10 0 13 4t3 6q0 3 -2 6t-10 5
l-19 4q-8 2 -11.5 4t-5.5 4q-7 9 -7 17q0 11 9 20t28 9q10 0 16 -2t11 -5q12 -10 12 -23l-21 -1q0 5 -4.5 9.5t-13.5 4.5t-12 -3t-3 -6q0 -5 8 -8l25 -6q8 -2 12 -4t6 -5q6 -8 6 -16q0 -12 -10 -21.5t-30 -9.5q-17 0 -27.5 7.5t-13.5 18.5q-4 -11 -14.5 -18.5t-27.5 -7.5
q-31 0 -42 29v-26h-23l-1 10q-10 -13 -26 -13q-17 0 -27 13q-2 2 -2 3v-16h-24v56q0 15 -14 15q-16 0 -16 -18v-53h-24v53q0 9 -1 10q-4 8 -12 8q-16 0 -16 -20l-1 -51h-24l1 89h23l1 -12q7 15 24 15q9 0 16 -4.5t11 -11.5q8 16 27 16q18 0 26 -17zM826 118q8 0 14 6.5
t6 18.5q0 11 -6 17.5t-15 6.5q-8 0 -14 -6.5t-6 -17.5q0 -12 6 -18.5t15 -6.5zM783 95h-24v89h24v-22q11 25 37 25q14 0 19 -5t7 -8v-1l1 11h23v-83q0 -10 -1.5 -14.5t-4.5 -9.5q-5 -5 -14 -10t-24 -5q-23 0 -32 11q-8 6 -9 17l25 1q2 -10 16 -10q20 0 20 21v9
q-2 -5 -8.5 -9t-17.5 -4q-26 0 -37 26v-29zM874 184h23l1 -10q7 13 25 13q14 0 22.5 -8t8.5 -21v-63h-24v55q0 16 -14 16q-10 0 -15 -8q-3 -5 -3 -13v-50h-24v89zM46 110q8 0 14 6.5t6 20.5q0 16 -6 22t-14 6t-14 -6.5t-6 -20.5q0 -15 6 -21.5t14 -6.5zM189 139l-4 -2t-6 -2
l-10 -3q-11 -4 -14 -7t-3 -6q0 -5 3.5 -8.5t11.5 -3.5q21 0 21 21zM191 92q-1 2 -3 10q-8 -13 -25 -13t-25.5 8.5t-8.5 19.5t8 19q3 2 8.5 5t20.5 5l13 3q9 1 9 8q0 3 -3.5 6.5t-12.5 3.5t-13 -4t-4 -9h-21v2q0 4 1 6q-8 0 -15 -7q-3 -3 -5 -8t-2 -16v-39h-24v27
q-5 -15 -15 -22.5t-22 -7.5q-16 0 -25 12l-2 -9h-23v124h24v-45q4 5 10 9t16 4q12 0 22 -8t15 -22v27h23l1 -14q5 16 22 16h5v-11q10 12 32 12t31 -9t9 -25v-49q0 -5 3 -8v88l24 -1l1 -10q2 5 8 9.5t16 4.5q14 0 22.5 -8.5t8.5 -21.5v-62h-24v55q0 15 -14 15q-8 0 -15 -7
q-3 -5 -3 -13v-50h-24h-24zM355 102q-10 -13 -25 -13q-13 0 -23 8q-4 4 -6 9t-2 14v61h24v-53q0 -17 14 -17q8 0 13 5t5 15v50h23v-89h-22zM326 597h-84v197h98q28 0 48.5 -17t31.5 -42q14 -30 4 -65q-9 -33 -36.5 -53t-61.5 -20zM342 277h-100v232h118q33 0 58 -20t38 -49
q16 -38 5 -77t-44 -62.5t-75 -23.5z" />
    <glyph glyph-name="greater" unicode="&#x3e;" horiz-adv-x="1020" 
d="M544 794q63 0 109 -21.5t81 -62.5q26 -31 42 -75t16 -98q0 -60 -19 -108t-51.5 -81.5t-76.5 -51.5t-94 -18h-13q30 44 30 100q0 34 -11 64.5t-29.5 55.5t-43 42t-52.5 25q38 16 64 56t26 91q0 46 -21 82h43zM2 40h9l6 -22l6 22h8l6 -22l6 22h10l-11 -35h-9l-6 23l-6 -23
h-9zM53 40h10l6 -22l6 22h8l6 -22l6 22h10l-11 -35h-9l-6 23l-7 -23h-9zM105 40h10l5 -22l7 22h8l6 -22l6 22h9l-10 -35h-9l-6 23l-7 -23h-9zM158 15h10v-10h-10v10zM187 12q8 0 8 11t-8 11t-8 -11t8 -11zM170 54h9v-18q4 6 11 6q5 0 10 -5t5 -14t-5 -14t-11 -5q-5 0 -10 5
v-4h-9v49zM207 40h9v-5q1 6 9 6h2v-8h-2q-3 0 -6 -3q-3 -2 -3 -9v-16h-10zM247 24l-4 -2l-4 -1q-5 -2 -5.5 -3t-0.5 -2q0 -5 6 -5q8 0 8 8v5zM247 9q-3 -5 -10 -5t-10 3.5t-3 7.5q0 5 3 8q1 1 3 2t8 2l6 1q3 0 3 3q0 4 -6 4q-7 0 -7 -5h-8q-1 5 3 8.5t12 3.5q15 0 15 -14
v-19l2 -4h-10q0 1 -0.5 2t-0.5 2zM260 40h9v-4q4 6 10 6q12 0 12 -12v-25h-9v22q0 6 -6 6q-3 0 -6 -3q0 -1 -0.5 -2t-0.5 -3v-20h-9v35zM315 9q-3 -5 -10 -5q-6 0 -9 3t-3 9v1v23h9v-21q0 -6 6 -6q7 0 7 8v19h10v-35h-9zM326 40h10v-4q3 6 10 6q6 0 10 -7q3 7 11 7
q11 0 11 -12v-25h-9v22q0 6 -6 6t-6 -7v-21h-9v21q0 1 -0.5 1.5t-0.5 1.5v1q0 3 -5 3q-6 0 -6 -7v-21h-10v35zM398 12q7 0 7 11t-8 11t-8 -11t9 -11zM405 9q-3 -5 -10 -5q-6 0 -11 5q-4 5 -4 14t4.5 14t10.5 5q7 0 10 -5v17h10v-49h-10v4zM442 27q-1 7 -8 7q-6 0 -8 -7h16z
M426 20q0 -8 8 -8q5 0 8 4l9 -1q-2 -11 -17 -11q-8 0 -13 5t-5 14q0 6 4 12.5t14 6.5t14 -7t4 -15h-26zM462 17q0 -6 7 -6t7 4q0 3 -5 4l-8 2q-3 0 -6 3t-3 6q0 5 3.5 8.5t11.5 3.5q7 0 10 -3q5 -3 5 -9h-8q0 5 -7 5q-6 0 -6 -3t3 -3l10 -3q6 -1 7 -4q2 -2 2 -6
q0 -5 -3.5 -8.5t-11.5 -3.5q-17 0 -17 13h9zM487 54h9v-8h-9v8zM487 41h9v-36h-9v36zM516 15q8 0 8 9q0 10 -8 10t-8 -10q0 -9 8 -9zM510 4q0 -4 6 -4q8 0 8 8v4q-2 -6 -10 -6q-16 0 -16 18t16 18q6 0 8 -2.5t2 -3.5l1 5l9 -1v-32q0 -7 -3 -10q-4 -6 -15 -6q-8 0 -12 4
q-3 3 -4 8h10zM536 40h9v-4q2 6 10 6q12 0 12 -12v-25h-9v22q0 6 -6 6q-3 0 -6 -3q0 -1 -0.5 -2t-0.5 -3v-20h-9v35zM569 15h10v-10h-10v10zM615 18q-1 -10 -9 -13q-2 -1 -7 -1q-7 0 -11 3q-7 5 -7 16q0 7 3 12q5 7 15 7q14 0 16 -13l-9 -1q-2 6 -7 6q-8 0 -8 -11t8 -11
q3 0 4 1q3 1 3 5h9zM635 11q9 0 9 12q0 11 -9 11t-9 -11q0 -12 9 -12zM635 4q-18 0 -18 19t18 19q19 0 19 -19t-19 -19zM655 40h9l1 -4q3 6 9 6q7 0 11 -7q3 7 11 7q11 0 11 -12v-25h-9v22q0 6 -6 6t-6 -7v-21h-10v21v4q-2 3 -5 3q-6 0 -6 -7v-21h-10v35zM810 5q0 8 3.5 12
t7.5 7l7 5q2 2 4.5 4t2.5 7q0 7 -8 7q-7 0 -8 -10h-9v1q0 17 18 17q17 0 17 -16q0 -7 -4 -10.5t-7 -5.5l-8 -5l-4 -4h24v-9h-36zM867 12q4 0 7.5 3.5t3.5 14.5t-3.5 14.5t-7.5 3.5q-10 0 -10 -18q0 -7 1 -10t2 -5q3 -3 7 -3zM867 4q-8 0 -14.5 6t-6.5 20t6.5 20t14.5 6
t14.5 -6.5t6.5 -19.5q0 -14 -6.5 -20t-14.5 -6zM901 39h-12v6q4 0 8 2q5 3 6 7h8v-49h-10v34zM935 24v19l-15 -19h15zM912 26l23 28h10v-30h7v-8h-7v-11h-10v11h-23v10zM781 26q0 -5 -3.5 -7.5t-7.5 -2.5q-13 0 -13 14q0 5 2 9.5t10 4.5q6 0 9 -3l3 -6h-6q0 5 -5 5
q-8 0 -8 -10q0 -9 8 -9q3 0 5 2q0 1 0.5 1.5t0.5 1.5h5zM769 57q11 0 19 -8t8 -19t-8 -19t-19 -8t-19 8t-8 19t8 19t19 8zM769 49q-8 0 -13.5 -5.5t-5.5 -13.5t5.5 -14t13.5 -6t14 6t6 14t-6 13.5t-14 5.5zM550 113q7 0 13 6.5t6 21.5t-6 21t-14 6t-14 -6t-6 -22
q0 -14 6 -20.5t14 -6.5h1zM654 150q-2 9 -7.5 13.5t-12.5 4.5t-12.5 -5t-7.5 -13h40zM511 167q11 20 33 20q18 0 25 -13v45h24v-60q4 11 14 19.5t28 8.5q25 0 35 -17t10 -37h-66q2 -22 22 -22q12 0 18 12l23 -2q-1 2 -1 4h22q2 -16 20 -16q10 0 13 4t3 6q0 3 -2 6t-10 5
l-19 4q-8 2 -11.5 4t-5.5 4q-7 9 -7 17q0 11 9 20t28 9q10 0 16 -2t11 -5q12 -10 12 -23l-21 -1q0 5 -4.5 9.5t-13.5 4.5t-12 -3t-3 -6q0 -5 8 -8l25 -6q8 -2 12 -4t6 -5q6 -8 6 -16q0 -12 -10 -21.5t-30 -9.5q-17 0 -27.5 7.5t-13.5 18.5q-4 -11 -14.5 -18.5t-27.5 -7.5
q-31 0 -42 29v-26h-23l-1 10q-10 -13 -26 -13q-17 0 -27 13q-2 2 -2 3v-16h-24v56q0 15 -14 15q-16 0 -16 -18v-53h-24v53q0 9 -1 10q-4 8 -12 8q-16 0 -16 -20l-1 -51h-24l1 89h23l1 -12q7 15 24 15q9 0 16 -4.5t11 -11.5q8 16 27 16q18 0 26 -17zM826 118q8 0 14 6.5
t6 18.5q0 11 -6 17.5t-15 6.5q-8 0 -14 -6.5t-6 -17.5q0 -12 6 -18.5t15 -6.5zM783 95h-24v89h24v-22q11 25 37 25q14 0 19 -5t7 -8v-1l1 11h23v-83q0 -10 -1.5 -14.5t-4.5 -9.5q-5 -5 -14 -10t-24 -5q-23 0 -32 11q-8 6 -9 17l25 1q2 -10 16 -10q20 0 20 21v9
q-2 -5 -8.5 -9t-17.5 -4q-26 0 -37 26v-29zM874 184h23l1 -10q7 13 25 13q14 0 22.5 -8t8.5 -21v-63h-24v55q0 16 -14 16q-10 0 -15 -8q-3 -5 -3 -13v-50h-24v89zM46 110q8 0 14 6.5t6 20.5q0 16 -6 22t-14 6t-14 -6.5t-6 -20.5q0 -15 6 -21.5t14 -6.5zM189 139l-4 -2t-6 -2
l-10 -3q-11 -4 -14 -7t-3 -6q0 -5 3.5 -8.5t11.5 -3.5q21 0 21 21zM191 92q-1 2 -3 10q-8 -13 -25 -13t-25.5 8.5t-8.5 19.5t8 19q3 2 8.5 5t20.5 5l13 3q9 1 9 8q0 3 -3.5 6.5t-12.5 3.5t-13 -4t-4 -9h-21v2q0 4 1 6q-8 0 -15 -7q-3 -3 -5 -8t-2 -16v-39h-24v27
q-5 -15 -15 -22.5t-22 -7.5q-16 0 -25 12l-2 -9h-23v124h24v-45q4 5 10 9t16 4q12 0 22 -8t15 -22v27h23l1 -14q5 16 22 16h5v-11q10 12 32 12t31 -9t9 -25v-49q0 -5 3 -8v88l24 -1l1 -10q2 5 8 9.5t16 4.5q14 0 22.5 -8.5t8.5 -21.5v-62h-24v55q0 15 -14 15q-8 0 -15 -7
q-3 -5 -3 -13v-50h-24h-24zM355 102q-10 -13 -25 -13q-13 0 -23 8q-4 4 -6 9t-2 14v61h24v-53q0 -17 14 -17q8 0 13 5t5 15v50h23v-89h-22zM326 597h-84v197h98q28 0 48.5 -17t31.5 -42q14 -30 4 -65q-9 -33 -36.5 -53t-61.5 -20zM342 277h-100v232h118q33 0 58 -20t38 -49
q16 -38 5 -77t-44 -62.5t-75 -23.5z" />
    <glyph glyph-name="space" unicode=" " horiz-adv-x="500" 
 />
  </font>
</defs>
</svg>
