<?xml version="1.0" standalone="no"?>
<!DOCTYPE svg PUBLIC "-//W3C//DTD SVG 1.1//EN" "http://www.w3.org/Graphics/SVG/1.1/DTD/svg11.dtd" >
<svg xmlns="http://www.w3.org/2000/svg" xmlns:xlink="http://www.w3.org/1999/xlink" version="1.1">
<metadata>
Created by FontForge 20201107 at Wed Apr  3 12:10:20 2013
 By Jimmy Wärting
Copyright(c) 1997, 2001, 2006 Nick Curtis. All Rights Reserved. Distributed under the 1001Fonts Free For Commercial Use License (FFC) http://www.1001fonts.com/licenses/ffc.html - PayPal donations in any amount may be made at nicksfonts.com.
</metadata>
<defs>
<font id="RunyTunesRevisitedNF" horiz-adv-x="342" >
  <font-face 
    font-family="Runy Tunes Revisited NF"
    font-weight="400"
    font-stretch="normal"
    units-per-em="1000"
    panose-1="2 1 6 8 3 2 4 2 5 4"
    ascent="850"
    descent="-150"
    x-height="832"
    cap-height="832"
    bbox="-60 -150 2142 988"
    underline-thickness="20"
    underline-position="-133"
    unicode-range="U+0020-2212"
  />
<missing-glyph horiz-adv-x="125" 
 />
    <glyph glyph-name=".notdef" horiz-adv-x="125" 
 />
    <glyph glyph-name=".null" horiz-adv-x="0" 
 />
    <glyph glyph-name="nonmarkingreturn" horiz-adv-x="333" 
 />
    <glyph glyph-name="space" unicode=" " horiz-adv-x="125" 
 />
    <glyph glyph-name="exclam" unicode="!" horiz-adv-x="154" 
d="M119 173h-84v658h84v-658zM138 60l-61 -61l-61 61l61 61z" />
    <glyph glyph-name="quotedbl" unicode="&#x22;" horiz-adv-x="218" 
d="M202 831q0 -93 -58 -147h-28v147h86zM102 831q0 -93 -58 -147h-28v147h86z" />
    <glyph glyph-name="numbersign" unicode="#" horiz-adv-x="450" 
d="M434 256h-116l-38 -256h-65l38 256h-110l-39 -256h-65l38 256h-61v89h74l26 178h-100v88h113l33 221h65l-32 -221h109l32 221h66l-33 -221h65v-88h-77l-26 -178h103v-89zM156 345h110l25 178h-109z" />
    <glyph glyph-name="dollar" unicode="$" horiz-adv-x="263" 
d="M247 681q-106 0 -106 -116q0 -49 35.5 -135t35.5 -137q0 -57 -26 -109v-185h-84v107h-74l-12 16q112 87 112 171q0 43 -36 126t-36 146q0 83 46 139v127h84v-74q27 8 61 8v-84z" />
    <glyph glyph-name="percent" unicode="%" horiz-adv-x="427" 
d="M343 509q34 0 51 -33t17 -73q0 -77 -40 -153t-87 -76q-33 0 -50 33.5t-17 72.5q0 77 39.5 153t86.5 76zM361 407q0 37 -19 37q-32 0 -53.5 -63t-21.5 -105q0 -37 19 -37q32 0 53.5 63t21.5 105zM24 0l249 707q-23 -10 -51 -10h-14q1 -5 1 -15q0 -36 -13 -87t-43.5 -97
t-69.5 -46q-29 0 -48 28.5t-19 73.5q0 33 13.5 85.5t44 100t67.5 47.5q15 0 28 -9q26 -16 53 -16q59 0 92 68h58l-293 -830h-55zM160 685q0 36 -20 36q-32 0 -53 -63t-21 -105q0 -36 19 -36q32 0 53.5 63.5t21.5 104.5z" />
    <glyph glyph-name="ampersand" unicode="&#x26;" horiz-adv-x="398" 
d="M382 482q-33 -25 -61 -55q50 -103 50 -218q0 -102 -45 -210h-264q-46 113 -46 210q0 172 118 327q-94 91 -94 207q0 26 13 89h239v-85h-167v-10q0 -32 9.5 -59t31.5 -52.5t38.5 -40.5t48.5 -41q-76 -85 -114 -161.5t-38 -173.5q0 -67 19 -125h147q20 62 20 125
q0 76 -24 138q-26 -48 -41 -98l-81 23q48 170 190 277z" />
    <glyph glyph-name="quotesingle" unicode="'" horiz-adv-x="118" 
d="M102 831q0 -93 -58 -147h-28v147h86z" />
    <glyph glyph-name="parenleft" unicode="(" horiz-adv-x="225" 
d="M209 -104l-9 -19h-75q-109 221 -109 480q0 252 106 474h77l8 -17q-107 -213 -107 -458q0 -236 109 -460z" />
    <glyph glyph-name="parenright" unicode=")" horiz-adv-x="226" 
d="M25 -123l-9 19q110 222 110 460q0 244 -108 458l8 17h77q107 -225 107 -474q0 -257 -110 -480h-75z" />
    <glyph glyph-name="asterisk" unicode="*" 
d="M326 741l-43 -74q-26 11 -60 16q11 -17 46 -41l-43 -73q-42 28 -54 45q-32 -32 -57 -50l-43 73q25 19 46 43q-32 -6 -60 -18l-42 73q26 13 63 23q-12 36 -18 73h85q5 -27 19 -60h6q12 35 16 60h85q-4 -35 -15 -69q36 -8 69 -21z" />
    <glyph glyph-name="plus" unicode="+" horiz-adv-x="478" 
d="M16 432h184v184h78v-184h184v-78h-184v-184h-78v184h-184v78z" />
    <glyph glyph-name="comma" unicode="," horiz-adv-x="123" 
d="M102 85q5 -23 5 -43q0 -58 -38 -114h-29l-6 8q16 29 16 64h-34v85h86z" />
    <glyph glyph-name="hyphen" unicode="-" horiz-adv-x="154" 
d="M138 423l-61 -61l-61 61l61 61z" />
    <glyph glyph-name="period" unicode="." horiz-adv-x="154" 
d="M138 60l-61 -61l-61 61l61 61z" />
    <glyph glyph-name="slash" unicode="/" horiz-adv-x="306" 
d="M100 -1h-84l190 833h84z" />
    <glyph glyph-name="zero" unicode="0" horiz-adv-x="389" 
d="M373 513q0 -144 -39.5 -267t-122.5 -247h-33q-83 124 -122.5 247t-39.5 267q0 156 58 319h241q58 -163 58 -319zM289 513q0 118 -35 234h-119q-35 -116 -35 -234q0 -198 95 -379q94 179 94 379z" />
    <glyph glyph-name="one" unicode="1" horiz-adv-x="193" 
d="M177 -1h-84v748h-77l37 85h124v-833z" />
    <glyph glyph-name="two" unicode="2" horiz-adv-x="351" 
d="M335 815l-47 -54q-187 -215 -187 -501q0 -93 20 -176h123v-85h-188q-40 132 -40 261q0 270 153 487h-101v85h259z" />
    <glyph glyph-name="three" unicode="3" horiz-adv-x="335" 
d="M319 484q0 -278 -198 -485h-97l-8 16q107 104 162.5 217.5t55.5 251.5q0 46 -5 78h-152l-10 17l103 168h-123l38 85h215l9 -18l-102 -168h93q19 -101 19 -162z" />
    <glyph glyph-name="four" unicode="4" horiz-adv-x="350" 
d="M334 572h-57v-573h-84v573h-140q-37 98 -37 178q0 38 8 80h86q-10 -15 -10 -80q0 -44 13 -94h80v175h84v-175h57v-84z" />
    <glyph glyph-name="five" unicode="5" horiz-adv-x="335" 
d="M319 484q0 -278 -198 -485h-97l-8 16q219 209 219 469q0 35 -5 78h-160v270h205l38 -85h-158v-101h145q19 -84 19 -162z" />
    <glyph glyph-name="six" unicode="6" horiz-adv-x="334" 
d="M318 218q0 -96 -45 -219h-214q-43 143 -43 273q0 318 202 559h90l8 -16q-95 -101 -146 -218q148 -170 148 -379zM234 218q0 153 -99 287q-34 -112 -34 -233q0 -97 22 -188h90q21 64 21 134z" />
    <glyph glyph-name="seven" unicode="7" horiz-adv-x="357" 
d="M341 813q-108 -146 -154.5 -277t-46.5 -306q0 -103 27 -231h-87q-25 119 -25 231q0 287 137 517h-176l38 85h278z" />
    <glyph glyph-name="eight" unicode="8" horiz-adv-x="386" 
d="M370 200q0 -88 -39 -201h-276q-39 113 -39 201q0 189 119 329q-56 62 -78 128.5t-22 155.5l9 19h298l9 -19q0 -170 -99 -284q118 -144 118 -329zM263 747h-140q12 -86 70 -157q56 68 70 157zM286 200q0 153 -93 267q-93 -114 -93 -267q0 -55 16 -116h154q16 55 16 116z
" />
    <glyph glyph-name="nine" unicode="9" horiz-adv-x="334" 
d="M318 551q0 -148 -53.5 -292.5t-149.5 -259.5h-91l-8 16q202 228 215 502q-84 35 -133 108.5t-49 163.5v43h225q44 -152 44 -281zM230 612q-3 58 -20 135h-72q16 -85 92 -135z" />
    <glyph glyph-name="colon" unicode=":" horiz-adv-x="154" 
d="M138 390l-61 -61l-61 61l61 61zM138 60l-61 -61l-61 61l61 61z" />
    <glyph glyph-name="semicolon" unicode=";" horiz-adv-x="154" 
d="M138 390l-61 -61l-61 61l61 61zM115 85q5 -23 5 -43q0 -58 -38 -114h-29l-6 8q16 29 16 64h-34v85h86z" />
    <glyph glyph-name="less" unicode="&#x3c;" horiz-adv-x="460" 
d="M444 531l-316 -138l316 -138v-85l-428 187v72l428 187v-85z" />
    <glyph glyph-name="equal" unicode="=" horiz-adv-x="478" 
d="M16 356h446v-78h-446v78zM16 509h446v-79h-446v79z" />
    <glyph glyph-name="greater" unicode="&#x3e;" horiz-adv-x="460" 
d="M332 393l-316 138v85l428 -187v-72l-428 -187v85z" />
    <glyph glyph-name="question" unicode="?" horiz-adv-x="232" 
d="M216 600q0 -103 -52 -215q-47 -99 -47 -174q0 -20 3 -38h-85q-3 21 -3 41q0 70 50 193.5t50 192.5q0 65 -27.5 106t-88.5 41v85q99 0 149.5 -65t50.5 -167zM143 60l-61 -61l-61 61l61 61z" />
    <glyph glyph-name="at" unicode="@" horiz-adv-x="387" 
d="M371 506q0 -112 -28 -230h-191q-49 57 -49 105q0 79 100 143q-25 77 -42 103h72q51 -97 51 -202q0 -43 -9 -83h15q15 81 15 164q0 134 -39 260h-145q-39 -126 -39 -260q0 -230 111 -428q43 78 71 161l62 -20q-35 -113 -104 -220h-58q-148 233 -148 507q0 166 58 325h239
q58 -159 58 -325zM218 425q0 19 -1 29q-48 -34 -48 -73q0 -20 14 -39h24q11 42 11 83z" />
    <glyph glyph-name="A" unicode="A" 
d="M326 -1h-84v395h-90q-18 -99 -18 -201q0 -101 16 -194h-85q-15 96 -15 194q0 105 16 201h-50v85h67q41 183 147 353h96v-833zM242 479v200q-42 -91 -72 -200h72z" />
    <glyph glyph-name="B" unicode="B" horiz-adv-x="291" 
d="M275 814q-46 -139 -122 -223q120 -158 120 -354q0 -104 -50 -238h-207v833h251zM159 747h-58v-88q37 47 58 88zM189 237q0 152 -88 283v-436h63q25 72 25 153z" />
    <glyph glyph-name="C" unicode="C" horiz-adv-x="305" 
d="M289 15l-8 -16h-85q-180 254 -180 566q0 123 36 267h180v-85h-113q-19 -88 -19 -182q0 -305 189 -550z" />
    <glyph glyph-name="D" unicode="D" horiz-adv-x="306" 
d="M290 565q0 -313 -159 -566h-115v833h242q32 -148 32 -267zM206 565q0 89 -17 182h-89v-630q106 212 106 448z" />
    <glyph glyph-name="E" unicode="E" horiz-adv-x="305" 
d="M289 16l-8 -17h-85q-180 254 -180 566q0 123 36 267h180v-85h-113q-10 -49 -15 -101h143v-84h-147q3 -304 189 -546z" />
    <glyph glyph-name="F" unicode="F" horiz-adv-x="254" 
d="M238 563h-100v-564h-84v564h-38v84h38v185h173v-85h-89v-100h100v-84z" />
    <glyph glyph-name="G" unicode="G" horiz-adv-x="299" 
d="M283 646v-58q0 -333 -172 -589h-95v833h222v-85h-137v-597q94 190 99 412h-38v84h121z" />
    <glyph glyph-name="H" unicode="H" horiz-adv-x="292" 
d="M276 -1h-85v473q-30 61 -90 106v-579h-85v833h85v-155q48 -25 90 -65v220h85v-833z" />
    <glyph glyph-name="I" unicode="I" horiz-adv-x="116" 
d="M100 -1h-84v833h84v-833z" />
    <glyph glyph-name="J" unicode="J" horiz-adv-x="299" 
d="M283 562q0 -303 -174 -563h-85l-8 16q183 245 183 547q0 96 -19 185h-116v85h183q36 -146 36 -270z" />
    <glyph glyph-name="K" unicode="K" horiz-adv-x="304" 
d="M288 186q0 -96 -27 -187h-75l-8 16q26 84 26 171q0 184 -104 325v-512h-84v833h84v-158q56 66 83 158h87q-32 -136 -128 -237q71 -84 108.5 -190.5t37.5 -218.5z" />
    <glyph glyph-name="L" unicode="L" horiz-adv-x="224" 
d="M208 -1h-192v833h84v-748h108v-85z" />
    <glyph glyph-name="M" unicode="M" horiz-adv-x="362" 
d="M346 -1h-85v683q-29 -34 -80 -123q-53 96 -80 123v-683h-85v845q65 -35 96 -57t69 -69q38 46 69 68.5t96 57.5v-845z" />
    <glyph glyph-name="N" unicode="N" horiz-adv-x="292" 
d="M276 -1h-85v571q-35 57 -90 108v-679h-85v847q7 -5 35.5 -24.5t39.5 -28t32.5 -25t37 -31t30.5 -30.5v125h85v-833z" />
    <glyph glyph-name="O" unicode="O" horiz-adv-x="389" 
d="M373 513q0 -144 -39.5 -267t-122.5 -247h-33q-83 124 -122.5 247t-39.5 267q0 156 58 319h241q58 -163 58 -319zM289 513q0 118 -35 234h-119q-35 -116 -35 -234q0 -198 95 -379q94 179 94 379z" />
    <glyph glyph-name="P" unicode="P" horiz-adv-x="316" 
d="M300 815q-37 -93 -80 -151.5t-119 -105.5v-559h-85v833h275zM175 747h-74v-85q42 37 74 85z" />
    <glyph glyph-name="Q" unicode="Q" horiz-adv-x="420" 
d="M404 16l-8 -17h-75q-14 57 -49 101q-25 -48 -60 -101h-34q-80 129 -121 252t-41 262q0 136 58 319h242q58 -183 58 -319q0 -168 -63 -329q71 -72 93 -168zM289 513q0 122 -34 234h-120q-34 -112 -34 -234q0 -118 33 -229q58 -14 108 -44q47 133 47 273zM208 161
q-16 12 -36 21q7 -16 23 -48q5 9 13 27z" />
    <glyph glyph-name="R" unicode="R" horiz-adv-x="315" 
d="M299 814q-29 -74 -59 -122t-84 -94q141 -167 141 -404q0 -104 -29 -195h-75l-8 16q27 87 27 180q0 187 -111 338v-534h-85v833h275zM175 747h-74v-85q42 37 74 85z" />
    <glyph glyph-name="S" unicode="S" horiz-adv-x="295" 
d="M279 456q0 -266 -163 -457h-92l-8 16q179 178 179 441q0 50 -8 106h-154v42q0 91 63.5 158.5t154.5 69.5v-85q-43 0 -79 -29t-47 -72h131q23 -110 23 -190z" />
    <glyph glyph-name="T" unicode="T" horiz-adv-x="248" 
d="M232 747h-66v-748h-84v748h-66v85h216v-85z" />
    <glyph glyph-name="U" unicode="U" horiz-adv-x="321" 
d="M305 -1h-101q-188 261 -188 599q0 116 26 234h87q-28 -112 -28 -234q0 -256 119 -468v702h85v-833z" />
    <glyph glyph-name="V" unicode="V" horiz-adv-x="321" 
d="M305 598q0 -340 -188 -599h-101v833h85v-702q119 212 119 468q0 118 -27 234h86q26 -118 26 -234z" />
    <glyph glyph-name="W" unicode="W" horiz-adv-x="460" 
d="M444 -1h-101l-38 57v-57h-101q-188 261 -188 599q0 116 26 234h87q-28 -112 -28 -234q0 -256 119 -468v100q0 1 -5 14.5t-5 14.5q-55 164 -55 339q0 116 26 234h87q-28 -112 -28 -234q0 -256 119 -468v702h85v-833z" />
    <glyph glyph-name="X" unicode="X" horiz-adv-x="334" 
d="M318 232q0 -121 -25 -233h-87q28 112 28 233q0 188 -67 356q-66 -166 -66 -356q0 -119 27 -233h-86q-26 116 -26 233q0 260 104 458q-38 70 -82 125l9 17h84q32 -47 36 -55l36 55h85l9 -17q-49 -61 -82 -125q103 -212 103 -458z" />
    <glyph glyph-name="Y" unicode="Y" horiz-adv-x="301" 
d="M285 -1h-85v525q-85 45 -134.5 128.5t-49.5 179.5h84q0 -128 100 -208v31q-81 69 -81 177h56q0 -47 25 -91v91h85v-833z" />
    <glyph glyph-name="Z" unicode="Z" horiz-adv-x="360" 
d="M344 816l-50 -55q-193 -212 -193 -501q0 -89 21 -176h136v-85h-201q-41 153 -41 261q0 272 158 487h-102v85h264z" />
    <glyph glyph-name="bracketleft" unicode="[" horiz-adv-x="174" 
d="M158 -101h-142v933h142v-85h-58v-763h58v-85z" />
    <glyph glyph-name="backslash" unicode="\" horiz-adv-x="306" 
d="M290 -1h-84l-190 833h84z" />
    <glyph glyph-name="bracketright" unicode="]" horiz-adv-x="174" 
d="M158 -101h-142v85h58v763h-58v85h142v-933z" />
    <glyph glyph-name="underscore" unicode="_" horiz-adv-x="500" 
d="M500 -76h-500v56h500v-56z" />
    <glyph glyph-name="grave" unicode="`" horiz-adv-x="230" 
d="M214 910l-26 -60l-172 74l26 60z" />
    <glyph glyph-name="a" unicode="a" 
d="M326 -1h-84v395h-90q-18 -99 -18 -201q0 -101 16 -194h-85q-15 96 -15 194q0 105 16 201h-50v85h67q41 183 147 353h96v-833zM242 479v200q-42 -91 -72 -200h72z" />
    <glyph glyph-name="b" unicode="b" horiz-adv-x="291" 
d="M275 814q-46 -139 -122 -223q120 -158 120 -354q0 -104 -50 -238h-207v833h251zM159 747h-58v-88q37 47 58 88zM189 237q0 152 -88 283v-436h63q25 72 25 153z" />
    <glyph glyph-name="c" unicode="c" horiz-adv-x="305" 
d="M289 15l-8 -16h-85q-180 254 -180 566q0 123 36 267h180v-85h-113q-19 -88 -19 -182q0 -305 189 -550z" />
    <glyph glyph-name="d" unicode="d" horiz-adv-x="306" 
d="M290 565q0 -313 -159 -566h-115v833h242q32 -148 32 -267zM206 565q0 89 -17 182h-89v-630q106 212 106 448z" />
    <glyph glyph-name="e" unicode="e" horiz-adv-x="305" 
d="M289 16l-8 -17h-85q-180 254 -180 566q0 123 36 267h180v-85h-113q-10 -49 -15 -101h143v-84h-147q3 -304 189 -546z" />
    <glyph glyph-name="f" unicode="f" horiz-adv-x="254" 
d="M238 563h-100v-564h-84v564h-38v84h38v185h173v-85h-89v-100h100v-84z" />
    <glyph glyph-name="g" unicode="g" horiz-adv-x="299" 
d="M283 646v-58q0 -333 -172 -589h-95v833h222v-85h-137v-597q94 190 99 412h-38v84h121z" />
    <glyph glyph-name="h" unicode="h" horiz-adv-x="292" 
d="M276 -1h-85v473q-30 61 -90 106v-579h-85v833h85v-155q48 -25 90 -65v220h85v-833z" />
    <glyph glyph-name="i" unicode="i" horiz-adv-x="116" 
d="M100 -1h-84v833h84v-833z" />
    <glyph glyph-name="j" unicode="j" horiz-adv-x="299" 
d="M283 562q0 -303 -174 -563h-85l-8 16q183 245 183 547q0 96 -19 185h-116v85h183q36 -146 36 -270z" />
    <glyph glyph-name="k" unicode="k" horiz-adv-x="304" 
d="M288 186q0 -96 -27 -187h-75l-8 16q26 84 26 171q0 184 -104 325v-512h-84v833h84v-158q56 66 83 158h87q-32 -136 -128 -237q71 -84 108.5 -190.5t37.5 -218.5z" />
    <glyph glyph-name="l" unicode="l" horiz-adv-x="224" 
d="M208 -1h-192v833h84v-748h108v-85z" />
    <glyph glyph-name="m" unicode="m" horiz-adv-x="362" 
d="M346 -1h-85v683q-29 -34 -80 -123q-53 96 -80 123v-683h-85v845q59 -28 92 -52.5t73 -73.5q40 48 73 73t92 53v-845z" />
    <glyph glyph-name="n" unicode="n" horiz-adv-x="292" 
d="M276 -1h-85v571q-35 57 -90 108v-679h-85v847q7 -5 35.5 -24.5t39.5 -28t32.5 -25t37 -31t30.5 -30.5v125h85v-833z" />
    <glyph glyph-name="o" unicode="o" horiz-adv-x="389" 
d="M373 513q0 -144 -39.5 -267t-122.5 -247h-33q-83 124 -122.5 247t-39.5 267q0 156 58 319h241q58 -163 58 -319zM289 513q0 118 -35 234h-119q-35 -116 -35 -234q0 -198 95 -379q94 179 94 379z" />
    <glyph glyph-name="p" unicode="p" horiz-adv-x="316" 
d="M300 815q-37 -93 -80 -151.5t-119 -105.5v-559h-85v833h275zM175 747h-74v-85q42 37 74 85z" />
    <glyph glyph-name="q" unicode="q" horiz-adv-x="420" 
d="M404 16l-8 -17h-75q-14 57 -49 101q-25 -48 -60 -101h-34q-80 129 -121 252t-41 262q0 136 58 319h242q58 -183 58 -319q0 -168 -63 -329q71 -72 93 -168zM289 513q0 122 -34 234h-120q-34 -112 -34 -234q0 -118 33 -229q58 -14 108 -44q47 133 47 273zM208 161
q-16 12 -36 21q7 -16 23 -48q5 9 13 27z" />
    <glyph glyph-name="r" unicode="r" horiz-adv-x="315" 
d="M299 814q-29 -74 -59 -122t-84 -94q141 -167 141 -404q0 -104 -29 -195h-75l-8 16q27 87 27 180q0 187 -111 338v-534h-85v833h275zM175 747h-74v-85q42 37 74 85z" />
    <glyph glyph-name="s" unicode="s" horiz-adv-x="266" 
d="M250 747q-125 0 -125 -164q0 -63 40.5 -177t40.5 -178q0 -123 -90 -229h-92l-8 16q106 102 106 213q0 66 -39 159q-43 100 -43 196q0 106 53.5 177.5t156.5 71.5v-85z" />
    <glyph glyph-name="t" unicode="t" horiz-adv-x="248" 
d="M232 747h-66v-748h-84v748h-66v85h216v-85z" />
    <glyph glyph-name="u" unicode="u" horiz-adv-x="321" 
d="M305 -1h-101q-188 261 -188 599q0 116 26 234h87q-28 -112 -28 -234q0 -256 119 -468v702h85v-833z" />
    <glyph glyph-name="v" unicode="v" horiz-adv-x="321" 
d="M305 598q0 -340 -188 -599h-101v833h85v-702q119 212 119 468q0 118 -27 234h86q26 -118 26 -234z" />
    <glyph glyph-name="w" unicode="w" horiz-adv-x="460" 
d="M444 -1h-101l-38 57v-57h-101q-188 261 -188 599q0 116 26 234h87q-28 -112 -28 -234q0 -256 119 -468v100q0 1 -5 14.5t-5 14.5q-55 164 -55 339q0 116 26 234h87q-28 -112 -28 -234q0 -256 119 -468v702h85v-833z" />
    <glyph glyph-name="x" unicode="x" horiz-adv-x="334" 
d="M318 232q0 -121 -25 -233h-87q28 112 28 233q0 188 -67 356q-66 -166 -66 -356q0 -119 27 -233h-86q-26 116 -26 233q0 260 104 458q-38 70 -82 125l9 17h84q32 -47 36 -55l36 55h85l9 -17q-49 -61 -82 -125q103 -212 103 -458z" />
    <glyph glyph-name="y" unicode="y" horiz-adv-x="301" 
d="M285 -1h-85v525q-85 45 -134.5 128.5t-49.5 179.5h84q0 -128 100 -208v31q-81 69 -81 177h56q0 -47 25 -91v91h85v-833z" />
    <glyph glyph-name="z" unicode="z" horiz-adv-x="360" 
d="M344 816l-50 -55q-193 -212 -193 -501q0 -89 21 -176h136v-85h-201q-41 153 -41 261q0 272 158 487h-102v85h264z" />
    <glyph glyph-name="braceleft" unicode="{" horiz-adv-x="283" 
d="M16 350v18q34 7 60 34.5t26 70.5q0 26 -9 76.5t-9 77.5q0 76 54 133t129 70v-26q-38 -9 -63 -40t-25 -79q0 -28 7.5 -80.5t7.5 -78.5q0 -56 -32.5 -99t-80.5 -67q48 -28 80.5 -71.5t32.5 -96.5q0 -28 -7.5 -80t-7.5 -76q0 -97 88 -127v-22q-75 14 -128 70t-53 131
q0 26 8.5 77t8.5 76q0 45 -25.5 72.5t-61.5 36.5z" />
    <glyph glyph-name="braceright" unicode="}" horiz-adv-x="283" 
d="M267 368v-18q-36 -9 -61.5 -36.5t-25.5 -72.5q0 -25 8.5 -76t8.5 -77q0 -75 -53 -131t-128 -70v22q88 30 88 127q0 24 -7.5 76t-7.5 80q0 53 32.5 96.5t80.5 71.5q-48 24 -80.5 67t-32.5 99q0 26 7.5 78.5t7.5 80.5q0 48 -25 79t-63 40v26q75 -13 129 -70t54 -133
q0 -27 -9 -77.5t-9 -76.5q0 -43 26 -70.5t60 -34.5z" />
    <glyph glyph-name="exclamdown" unicode="&#xa1;" horiz-adv-x="154" 
d="M35 557h84v-658h-84v658zM16 670l61 61l61 -61l-61 -61z" />
    <glyph glyph-name="cent" unicode="&#xa2;" horiz-adv-x="298" 
d="M282 200l-12 -14h-65v-187h-84v241q-105 129 -105 280q0 72 33 164h72v147h84v-147h69v-84h-163q-10 -37 -10 -80q0 -98 46 -170.5t135 -149.5z" />
    <glyph glyph-name="sterling" unicode="&#xa3;" horiz-adv-x="292" 
d="M276 -1h-238v85h47q14 39 14 89q0 20 -1 30h-60v84h43q-10 38 -22 65q-43 104 -43 212q0 72 20 130t70 98t123 40v-85q-48 0 -78.5 -29.5t-40 -67.5t-9.5 -86q0 -54 11 -97t29.5 -92.5t27.5 -87.5h80v-84h-66q0 -5 0.5 -14t0.5 -13q0 -51 -11 -92h103v-85z" />
    <glyph glyph-name="currency" unicode="&#xa4;" horiz-adv-x="382" 
d="M366 15l-8 -16h-85q-160 226 -178 501h-79l41 85h37v33h-68l41 85h35q7 53 27 128h180v-84h-114l-7 -44h119l-41 -85h-88q0 -6 -0.5 -17t-0.5 -16h72l-41 -85h-29q20 -271 187 -485z" />
    <glyph glyph-name="yen" unicode="&#xa5;" horiz-adv-x="377" 
d="M361 831q-5 -26 -11.5 -44.5t-19.5 -44.5t-19 -39h40v-85h-105l-16 -16v-17h121v-85h-121v-501h-84v501h-120v85h120v18l-15 15h-105v85h40q-11 7 -28.5 56t-21.5 72h87q21 -79 86 -151q64 74 86 151h86z" />
    <glyph glyph-name="section" unicode="&#xa7;" horiz-adv-x="2170" 
d="M27 750h128v-750h-128v750zM2020 750h122v-750h-122v750zM1249 468q15 40 40.5 74t60 58.5t76 38t86.5 13.5t86.5 -13.5t76 -38t60 -58.5t40.5 -74h123q-12 50 -36.5 94.5t-59 81t-77 63.5t-91.5 43h-244q-49 -16 -91.5 -43t-77 -63.5t-59 -81t-36.5 -94.5h123zM1775 276
q-15 -40 -40.5 -74t-60 -58.5t-76 -38t-86.5 -13.5t-86.5 13.5t-76 38t-60 58.5t-40.5 74h-123q24 -96 89.5 -168.5t156.5 -107.5h281q91 35 156 107.5t89 168.5h-123zM923 276q-15 -40 -41 -74t-60.5 -58.5t-76 -38t-86.5 -13.5t-86 13.5t-75.5 38t-60.5 58.5t-41 74h-122
q12 -48 34.5 -90.5t54 -78t71.5 -63t85 -44.5h281q45 17 85 44.5t71.5 63t54 78t34.5 90.5h-122zM397 468q15 40 40.5 74t60 58.5t75.5 38t86 13.5t86.5 -13.5t76 -38t60 -58.5t40.5 -74h123q-12 50 -36.5 94.5t-59 81t-77 63.5t-90.5 43h-245q-48 -16 -90.5 -43t-77 -63.5
t-59 -81t-36.5 -94.5h123zM274 448h95v-30h-56v-33h50v-32h-51v-58h-38v153zM1006 448h44l71 -102v102h38v-153h-35l-81 104v-104h-37v153zM1457 448h115v-38h-32v-115h-51v116h-32v37zM662 456q-14 0 -29.5 -4t-28.5 -14t-22 -28t-9 -46t12.5 -44t27.5 -24q18 -10 41 -12
q24 2 43 12q17 8 30.5 25t13.5 49t-12.5 49t-27.5 25q-18 10 -39 12zM655 322q-12 2 -22 7q-8 5 -14.5 13.5t-6.5 24.5q0 15 4.5 25t11.5 16t15.5 8t15.5 2q11 -1 21 -6q8 -5 15 -15t7 -27q0 -18 -7.5 -27.5t-16.5 -14.5q-11 -5 -23 -6zM1790 333q8 -4 18.5 -7t23.5 -3
q10 0 17.5 3t7.5 12q0 10 -11.5 14t-25 8.5t-24.5 13.5t-11 30q0 13 6 22t15.5 14.5t21.5 7.5t23 2q24 0 39 -6l-3 -31q-14 7 -33 7q-8 0 -17.5 -2t-9.5 -12q0 -9 11 -12.5t24.5 -8t24.5 -13t11 -29.5q0 -29 -20 -39t-46 -10q-11 0 -23 1t-23 5z" />
    <glyph glyph-name="dieresis" unicode="&#xa8;" horiz-adv-x="247" 
d="M231 897l-50 -50l-50 50l50 50zM116 897l-50 -50l-50 50l50 50z" />
    <glyph glyph-name="copyright" unicode="&#xa9;" horiz-adv-x="762" 
d="M16 414q0 152 107 258.5t258 106.5t258 -106.5t107 -258.5t-107 -258.5t-258 -106.5t-258 106.5t-107 258.5zM40 414q0 -141 100 -241t241 -100t241 100t100 241t-100 241t-241 100t-241 -100t-100 -241zM569 175l-13 -10h-136q-287 151 -287 337q0 74 57 159h288v-50
h-181q-30 -51 -30 -109q0 -182 302 -327z" />
    <glyph glyph-name="ordfeminine" unicode="&#xaa;" horiz-adv-x="187" 
d="M171 427h-42v198h-45q-9 -49 -9 -101q0 -46 8 -97h-42q-8 51 -8 97q0 57 8 101h-25v42h34q20 92 73 177h48v-417zM129 667v100q-28 -60 -36 -100h36z" />
    <glyph glyph-name="guillemotleft" unicode="&#xab;" horiz-adv-x="315" 
d="M299 303l-73 -43l-90 155l90 155l73 -42l-65 -113zM179 303l-73 -43l-90 155l90 155l73 -42l-65 -113z" />
    <glyph glyph-name="logicalnot" unicode="&#xac;" horiz-adv-x="487" 
d="M392 225v130h-376v78h455v-208h-79z" />
    <glyph glyph-name="registered" unicode="&#xae;" horiz-adv-x="491" 
d="M16 601q0 95 67.5 162.5t162.5 67.5t162 -67.5t67 -162.5t-67 -162t-162 -67t-162.5 67t-67.5 162zM44 601q0 -83 59 -142.5t143 -59.5q83 0 142.5 59.5t59.5 142.5q0 84 -59.5 143.5t-142.5 59.5q-84 0 -143 -59.5t-59 -143.5zM361 740q-40 -49 -105 -75
q103 -59 103 -143q0 -34 -21 -68h-55l-6 6q20 31 20 63q0 65 -81 118v-187h-63v292h202zM270 717h-54v-30q29 12 54 30z" />
    <glyph glyph-name="macron" unicode="&#xaf;" horiz-adv-x="231" 
d="M215 849h-199v76h199v-76z" />
    <glyph glyph-name="degree" unicode="&#xb0;" horiz-adv-x="240" 
d="M120 835q43 0 73.5 -30.5t30.5 -73.5t-30.5 -73.5t-73.5 -30.5t-73.5 30.5t-30.5 73.5t30.5 73.5t73.5 30.5zM120 786q-22 0 -38.5 -16t-16.5 -39t16.5 -39t38.5 -16t38.5 16t16.5 39t-16.5 39t-38.5 16z" />
    <glyph glyph-name="plusminus" unicode="&#xb1;" horiz-adv-x="478" 
d="M16 432h184v184h78v-184h184v-78h-184v-184h-78v184h-184v78zM16 131h446v-78h-446v78z" />
    <glyph glyph-name="twosuperior" unicode="&#xb2;" horiz-adv-x="189" 
d="M173 820l-24 -26q-91 -98 -91 -245q0 -47 10 -87h60v-42h-92q-20 65 -20 129q0 129 75 238h-49v42h127z" />
    <glyph glyph-name="threesuperior" unicode="&#xb3;" horiz-adv-x="181" 
d="M165 658q0 -136 -97 -238h-48l-4 8q107 105 107 230q0 14 -2 38h-75l-5 9l51 82h-61l19 42h105l5 -10l-50 -81h45q10 -52 10 -80z" />
    <glyph glyph-name="acute" unicode="&#xb4;" horiz-adv-x="230" 
d="M214 928l-172 -74l-26 60l172 74z" />
    <glyph glyph-name="mu" unicode="&#xb5;" horiz-adv-x="346" 
d="M270 406v-129v-82.5t-0.5 -43t-0.5 -21.5v-7q0 -76 24 -76q18 0 24 54h13q-10 -102 -58 -102t-53 87q-55 -87 -108 -87q-27 0 -53 30q0 -11 7 -37.5t7 -33.5q0 -20 -7.5 -36t-20.5 -16q-14 0 -21 16.5t-7 37.5q0 31 9 66t9 67v313h52v-248q0 -55 10 -80t41 -25
q39 0 82 57v296h51z" />
    <glyph glyph-name="mu" unicode="&#x3bc;" horiz-adv-x="346" 
d="M270 406v-129v-82.5t-0.5 -43t-0.5 -21.5v-7q0 -76 24 -76q18 0 24 54h13q-10 -102 -58 -102t-53 87q-55 -87 -108 -87q-27 0 -53 30q0 -11 7 -37.5t7 -33.5q0 -20 -7.5 -36t-20.5 -16q-14 0 -21 16.5t-7 37.5q0 31 9 66t9 67v313h52v-248q0 -55 10 -80t41 -25
q39 0 82 57v296h51z" />
    <glyph glyph-name="paragraph" unicode="&#xb6;" horiz-adv-x="434" 
d="M197 833h221v-22h-32q-16 0 -28.5 -12.5t-12.5 -28.5v-821h-42v850h-40v-850h-41v523h-25q-74 0 -127.5 53t-53.5 127q0 75 53.5 128t127.5 53z" />
    <glyph glyph-name="periodcentered" unicode="&#xb7;" horiz-adv-x="154" 
d="M138 390l-61 -61l-61 61l61 61z" />
    <glyph glyph-name="cedilla" unicode="&#xb8;" horiz-adv-x="235" 
d="M192 -63q0 -37 -25.5 -62t-61.5 -25h-28l-21 61h49q26 0 26 26t-26 26h-56l-13 37l91 161l53 -31l-61 -108q31 -4 52 -28.5t21 -56.5z" />
    <glyph glyph-name="onesuperior" unicode="&#xb9;" horiz-adv-x="111" 
d="M95 420h-41v367h-38l18 42h61v-409z" />
    <glyph glyph-name="ordmasculine" unicode="&#xba;" horiz-adv-x="211" 
d="M195 673q0 -133 -81 -257h-17q-81 124 -81 257q0 80 29 159h121q29 -79 29 -159zM153 673q0 60 -18 117h-59q-18 -57 -18 -117q0 -100 48 -190q47 89 47 190z" />
    <glyph glyph-name="guillemotright" unicode="&#xbb;" horiz-adv-x="315" 
d="M89 260l-73 43l65 112l-65 113l73 42l90 -155zM209 260l-73 43l65 112l-65 113l73 42l90 -155z" />
    <glyph glyph-name="onequarter" unicode="&#xbc;" horiz-adv-x="611" 
d="M141 244h-69v518h-56l31 69h94v-587zM172 -1h-70l238 832h70zM595 391h-39v-392h-70v392h-94q-27 70 -27 128q0 31 7 60h73q-10 -22 -10 -60q0 -26 7 -59h44v119h70v-119h39v-69z" />
    <glyph glyph-name="onehalf" unicode="&#xbd;" horiz-adv-x="580" 
d="M564 562q-87 -100 -124 -189.5t-37 -188.5q0 -60 13 -116h85v-69h-140q-28 96 -28 185q0 179 101 327h-65v69h186zM141 250h-69v512h-56l31 69h94v-581zM169 -1h-71l239 833h70z" />
    <glyph glyph-name="threequarters" unicode="&#xbe;" horiz-adv-x="628" 
d="M236 587q0 -192 -139 -337h-71l-10 18q151 146 151 319q0 25 -3 48h-103l-9 17l66 110h-82l31 69h154l9 -18l-66 -109h58q14 -68 14 -117zM190 -1h-70l238 830h71zM612 391h-40v-392h-69v392h-95q-26 71 -26 128q0 31 7 60h73q-4 -7 -7.5 -29.5t-3.5 -30.5q0 -26 7 -59
h45v119h69v-119h40v-69z" />
    <glyph glyph-name="questiondown" unicode="&#xbf;" horiz-adv-x="232" 
d="M16 131q0 103 52 215q47 99 47 174q0 20 -3 38h85q3 -21 3 -41q0 -70 -50 -193.5t-50 -192.5q0 -65 27.5 -106t88.5 -41v-85q-99 0 -149.5 65t-50.5 167zM89 671l61 61l61 -61l-61 -61z" />
    <glyph glyph-name="Agrave" unicode="&#xc0;" 
d="M326 -1h-84v395h-90q-18 -99 -18 -201q0 -101 16 -194h-85q-15 96 -15 194q0 105 16 201h-50v85h67q41 183 147 353h96v-833zM242 479v200q-42 -91 -72 -200h72zM298 910l-26 -60l-172 74l26 60z" />
    <glyph glyph-name="Aacute" unicode="&#xc1;" 
d="M326 -1h-84v395h-90q-18 -99 -18 -201q0 -101 16 -194h-85q-15 96 -15 194q0 105 16 201h-50v85h67q41 183 147 353h96v-833zM242 479v200q-42 -91 -72 -200h72zM337 928l-172 -74l-26 60l172 74z" />
    <glyph glyph-name="Acircumflex" unicode="&#xc2;" 
d="M326 -1h-84v395h-90q-18 -99 -18 -201q0 -101 16 -194h-85q-15 96 -15 194q0 105 16 201h-50v85h67q41 183 147 353h96v-833zM242 479v200q-42 -91 -72 -200h72zM346 905l-33 -56l-85 50l-86 -50l-33 56l119 70z" />
    <glyph glyph-name="Atilde" unicode="&#xc3;" 
d="M326 -1h-84v395h-90q-18 -99 -18 -201q0 -101 16 -194h-85q-15 96 -15 194q0 105 16 201h-50v85h67q41 183 147 353h96v-833zM242 479v200q-42 -91 -72 -200h72zM344 952q0 -43 -18.5 -72.5t-58.5 -29.5q-29 0 -58 22t-34 22q-14 0 -14 -37h-66q0 43 19 72.5t59 29.5
q26 0 57.5 -21.5t35.5 -21.5q12 0 12 36h66z" />
    <glyph glyph-name="Adieresis" unicode="&#xc4;" 
d="M326 -1h-84v395h-90q-18 -99 -18 -201q0 -101 16 -194h-85q-15 96 -15 194q0 105 16 201h-50v85h67q41 183 147 353h96v-833zM242 479v200q-42 -91 -72 -200h72zM328 897l-50 -50l-50 50l50 50zM213 897l-50 -50l-50 50l50 50z" />
    <glyph glyph-name="Aring" unicode="&#xc5;" 
d="M326 -1h-84v395h-90q-18 -99 -18 -201q0 -101 16 -194h-85q-15 96 -15 194q0 105 16 201h-50v85h67q41 183 147 353h96v-833zM242 479v200q-42 -91 -72 -200h72zM347 902q0 -30 -21 -51.5t-52 -21.5t-52.5 21.5t-21.5 51.5q0 31 21.5 52.5t52.5 21.5t52 -21.5t21 -52.5z
M302 902q0 12 -8 20t-20 8q-11 0 -19 -8t-8 -20q0 -11 8 -19t19 -8t19.5 8t8.5 19z" />
    <glyph glyph-name="AE" unicode="&#xc6;" horiz-adv-x="557" 
d="M541 16l-8 -17h-84q-59 81 -103 183v-183h-84v395h-91q-17 -102 -17 -201q0 -101 16 -194h-85q-15 96 -15 194q0 105 16 201h-70v85h87q40 189 147 353h235v-85h-114q-10 -49 -15 -101h144v-84h-147q0 -303 188 -546zM262 479v200q-40 -84 -73 -200h73z" />
    <glyph glyph-name="Ccedilla" unicode="&#xc7;" horiz-adv-x="305" 
d="M289 15l-8 -16h-85q-180 254 -180 566q0 123 36 267h180v-85h-113q-19 -88 -19 -182q0 -305 189 -550zM202 -63q0 -37 -25.5 -62t-61.5 -25h-28l-21 61h49q26 0 26 26t-26 26h-56l-13 37l91 161l53 -31l-61 -108q31 -4 52 -28.5t21 -56.5z" />
    <glyph glyph-name="Egrave" unicode="&#xc8;" horiz-adv-x="305" 
d="M289 16l-8 -17h-85q-180 254 -180 566q0 123 36 267h180v-85h-113q-10 -49 -15 -101h143v-84h-147q3 -304 189 -546zM251 910l-26 -60l-172 74l26 60z" />
    <glyph glyph-name="Eacute" unicode="&#xc9;" horiz-adv-x="305" 
d="M289 16l-8 -17h-85q-180 254 -180 566q0 123 36 267h180v-85h-113q-10 -49 -15 -101h143v-84h-147q3 -304 189 -546zM251 928l-172 -74l-26 60l172 74z" />
    <glyph glyph-name="Ecircumflex" unicode="&#xca;" horiz-adv-x="305" 
d="M289 16l-8 -17h-85q-180 254 -180 566q0 123 36 267h180v-85h-113q-10 -49 -15 -101h143v-84h-147q3 -304 189 -546zM271 905l-33 -56l-85 50l-86 -50l-33 56l119 70z" />
    <glyph glyph-name="Edieresis" unicode="&#xcb;" horiz-adv-x="305" 
d="M289 16l-8 -17h-85q-180 254 -180 566q0 123 36 267h180v-85h-113q-10 -49 -15 -101h143v-84h-147q3 -304 189 -546zM260 897l-50 -50l-50 50l50 50zM145 897l-50 -50l-50 50l50 50z" />
    <glyph glyph-name="Igrave" unicode="&#xcc;" horiz-adv-x="116" 
d="M100 -1h-84v833h84v-833zM157 910l-26 -60l-172 74l26 60z" />
    <glyph glyph-name="Iacute" unicode="&#xcd;" horiz-adv-x="116" 
d="M100 -1h-84v833h84v-833zM157 928l-172 -74l-26 60l172 74z" />
    <glyph glyph-name="Icircumflex" unicode="&#xce;" horiz-adv-x="116" 
d="M100 -1h-84v833h84v-833zM177 905l-33 -56l-85 50l-86 -50l-33 56l119 70z" />
    <glyph glyph-name="Idieresis" unicode="&#xcf;" horiz-adv-x="116" 
d="M100 -1h-84v833h84v-833zM166 897l-50 -50l-50 50l50 50zM51 897l-50 -50l-50 50l50 50z" />
    <glyph glyph-name="Eth" unicode="&#xd0;" 
d="M326 565q0 -313 -159 -566h-115v563h-36v84h36v186h242q32 -148 32 -267zM241 565q0 95 -16 182h-89v-101h35v-84h-35v-445q105 210 105 448z" />
    <glyph glyph-name="Ntilde" unicode="&#xd1;" horiz-adv-x="292" 
d="M276 -1h-85v571q-35 57 -90 108v-679h-85v847q7 -5 35.5 -24.5t39.5 -28t32.5 -25t37 -31t30.5 -30.5v125h85v-833zM270 952q0 -43 -18.5 -72.5t-58.5 -29.5q-29 0 -58 22t-34 22q-14 0 -14 -37h-66q0 43 19 72.5t59 29.5q26 0 57.5 -21.5t35.5 -21.5q12 0 12 36h66z" />
    <glyph glyph-name="Ograve" unicode="&#xd2;" horiz-adv-x="389" 
d="M373 513q0 -144 -39.5 -267t-122.5 -247h-33q-83 124 -122.5 247t-39.5 267q0 156 58 319h241q58 -163 58 -319zM289 513q0 118 -35 234h-119q-35 -116 -35 -234q0 -198 95 -379q94 179 94 379zM293 910l-26 -60l-172 74l26 60z" />
    <glyph glyph-name="Oacute" unicode="&#xd3;" horiz-adv-x="389" 
d="M373 513q0 -144 -39.5 -267t-122.5 -247h-33q-83 124 -122.5 247t-39.5 267q0 156 58 319h241q58 -163 58 -319zM289 513q0 118 -35 234h-119q-35 -116 -35 -234q0 -198 95 -379q94 179 94 379zM293 928l-172 -74l-26 60l172 74z" />
    <glyph glyph-name="Ocircumflex" unicode="&#xd4;" horiz-adv-x="389" 
d="M373 513q0 -144 -39.5 -267t-122.5 -247h-33q-83 124 -122.5 247t-39.5 267q0 156 58 319h241q58 -163 58 -319zM289 513q0 118 -35 234h-119q-35 -116 -35 -234q0 -198 95 -379q94 179 94 379zM313 905l-33 -56l-85 50l-86 -50l-33 56l119 70z" />
    <glyph glyph-name="Otilde" unicode="&#xd5;" horiz-adv-x="389" 
d="M373 513q0 -144 -39.5 -267t-122.5 -247h-33q-83 124 -122.5 247t-39.5 267q0 156 58 319h241q58 -163 58 -319zM289 513q0 118 -35 234h-119q-35 -116 -35 -234q0 -198 95 -379q94 179 94 379zM319 952q0 -43 -18.5 -72.5t-58.5 -29.5q-21 0 -40.5 11t-32.5 22t-19 11
q-14 0 -14 -37h-66q0 43 19 72.5t59 29.5q26 0 57.5 -21.5t35.5 -21.5q12 0 12 36h66z" />
    <glyph glyph-name="Odieresis" unicode="&#xd6;" horiz-adv-x="389" 
d="M373 513q0 -144 -39.5 -267t-122.5 -247h-33q-83 124 -122.5 247t-39.5 267q0 156 58 319h241q58 -163 58 -319zM289 513q0 118 -35 234h-119q-35 -116 -35 -234q0 -198 95 -379q94 179 94 379zM302 897l-50 -50l-50 50l50 50zM187 897l-50 -50l-50 50l50 50z" />
    <glyph glyph-name="multiply" unicode="&#xd7;" horiz-adv-x="436" 
d="M16 247l147 146l-147 146l56 56l146 -147l146 147l56 -56l-147 -146l147 -146l-56 -56l-146 147l-146 -147z" />
    <glyph glyph-name="Oslash" unicode="&#xd8;" horiz-adv-x="389" 
d="M373 513q0 -145 -39.5 -267t-122.5 -247h-33q-32 47 -58 95l-30 -95h-59l54 169q-69 167 -69 345q0 159 58 318h284l-21 -66q36 -123 36 -252zM263 718l-9 29h-119q-35 -116 -35 -234q0 -104 28 -211zM289 513q0 40 -5 88l-126 -389q18 -44 37 -78q94 179 94 379z" />
    <glyph glyph-name="Ugrave" unicode="&#xd9;" horiz-adv-x="321" 
d="M305 -1h-101q-188 261 -188 599q0 116 26 234h87q-28 -112 -28 -234q0 -256 119 -468v702h85v-833zM259 910l-26 -60l-172 74l26 60z" />
    <glyph glyph-name="Uacute" unicode="&#xda;" horiz-adv-x="321" 
d="M305 -1h-101q-188 261 -188 599q0 116 26 234h87q-28 -112 -28 -234q0 -256 119 -468v702h85v-833zM259 928l-172 -74l-26 60l172 74z" />
    <glyph glyph-name="Ucircumflex" unicode="&#xdb;" horiz-adv-x="321" 
d="M305 -1h-101q-188 261 -188 599q0 116 26 234h87q-28 -112 -28 -234q0 -256 119 -468v702h85v-833zM279 905l-33 -56l-85 50l-86 -50l-33 56l119 70z" />
    <glyph glyph-name="Udieresis" unicode="&#xdc;" horiz-adv-x="321" 
d="M305 -1h-101q-188 261 -188 599q0 116 26 234h87q-28 -112 -28 -234q0 -256 119 -468v702h85v-833zM268 897l-50 -50l-50 50l50 50zM153 897l-50 -50l-50 50l50 50z" />
    <glyph glyph-name="Yacute" unicode="&#xdd;" horiz-adv-x="301" 
d="M285 -1h-85v525q-85 45 -134.5 128.5t-49.5 179.5h84q0 -128 100 -208v31q-81 69 -81 177h56q0 -47 25 -91v91h85v-833zM277 928l-172 -74l-26 60l172 74z" />
    <glyph glyph-name="Thorn" unicode="&#xde;" horiz-adv-x="316" 
d="M300 630q-37 -93 -80 -151.5t-119 -105.5v-374h-85v833h85v-185h190zM175 562h-74v-85q42 36 74 85z" />
    <glyph glyph-name="germandbls" unicode="&#xdf;" horiz-adv-x="403" 
d="M387 747q-67 0 -96 -46.5t-29 -117.5q0 -63 40.5 -177.5t40.5 -178.5q0 -122 -90 -228h-92l-8 16q106 102 106 211q0 58 -41 169t-41 188q0 94 42 161q-94 -24 -94 -161q0 -63 40.5 -177t40.5 -178q0 -123 -90 -229h-92l-8 16q105 105 105 212q0 65 -39 160
q-42 98 -42 196q0 107 53 178t157 71v-51q51 51 137 51v-85z" />
    <glyph glyph-name="agrave" unicode="&#xe0;" 
d="M326 -1h-84v395h-90q-18 -99 -18 -201q0 -101 16 -194h-85q-15 96 -15 194q0 105 16 201h-50v85h67q41 183 147 353h96v-833zM242 479v200q-42 -91 -72 -200h72zM322 910l-26 -60l-172 74l26 60z" />
    <glyph glyph-name="aacute" unicode="&#xe1;" 
d="M326 -1h-84v395h-90q-18 -99 -18 -201q0 -101 16 -194h-85q-15 96 -15 194q0 105 16 201h-50v85h67q41 183 147 353h96v-833zM242 479v200q-42 -91 -72 -200h72zM332 928l-172 -74l-26 60l172 74z" />
    <glyph glyph-name="acircumflex" unicode="&#xe2;" 
d="M326 -1h-84v395h-90q-18 -99 -18 -201q0 -101 16 -194h-85q-15 96 -15 194q0 105 16 201h-50v85h67q41 183 147 353h96v-833zM242 479v200q-42 -91 -72 -200h72zM335 905l-33 -56l-85 50l-86 -50l-33 56l119 70z" />
    <glyph glyph-name="atilde" unicode="&#xe3;" 
d="M326 -1h-84v395h-90q-18 -99 -18 -201q0 -101 16 -194h-85q-15 96 -15 194q0 105 16 201h-50v85h67q41 183 147 353h96v-833zM242 479v200q-42 -91 -72 -200h72zM339 952q0 -43 -18.5 -72.5t-58.5 -29.5q-21 0 -40.5 11t-32.5 22t-19 11q-14 0 -14 -37h-66q0 43 19 72.5
t59 29.5q26 0 57.5 -21.5t35.5 -21.5q12 0 12 36h66z" />
    <glyph glyph-name="adieresis" unicode="&#xe4;" 
d="M326 -1h-84v395h-90q-18 -99 -18 -201q0 -101 16 -194h-85q-15 96 -15 194q0 105 16 201h-50v85h67q41 183 147 353h96v-833zM242 479v200q-42 -91 -72 -200h72zM337 897l-50 -50l-50 50l50 50zM222 897l-50 -50l-50 50l50 50z" />
    <glyph glyph-name="aring" unicode="&#xe5;" 
d="M326 -1h-84v395h-90q-18 -99 -18 -201q0 -101 16 -194h-85q-15 96 -15 194q0 105 16 201h-50v85h67q41 183 147 353h96v-833zM242 479v200q-42 -91 -72 -200h72zM345 902q0 -30 -21 -51.5t-52 -21.5t-52.5 21.5t-21.5 51.5q0 31 21.5 52.5t52.5 21.5t52 -21.5t21 -52.5z
M300 902q0 12 -8 20t-20 8q-11 0 -19 -8t-8 -20q0 -11 8 -19t19 -8t19.5 8t8.5 19z" />
    <glyph glyph-name="ae" unicode="&#xe6;" horiz-adv-x="557" 
d="M541 16l-8 -17h-84q-59 81 -103 183v-183h-84v395h-91q-17 -102 -17 -201q0 -101 16 -194h-85q-15 96 -15 194q0 105 16 201h-70v85h87q40 189 147 353h235v-85h-114q-10 -49 -15 -101h144v-84h-147q0 -303 188 -546zM262 479v200q-40 -84 -73 -200h73z" />
    <glyph glyph-name="ccedilla" unicode="&#xe7;" horiz-adv-x="305" 
d="M289 15l-8 -16h-85q-180 254 -180 566q0 123 36 267h180v-85h-113q-19 -88 -19 -182q0 -305 189 -550zM191 -63q0 -37 -25.5 -62t-61.5 -25h-28l-21 61h49q26 0 26 26t-26 26h-56l-13 37l91 161l53 -31l-61 -108q31 -4 52 -28.5t21 -56.5z" />
    <glyph glyph-name="egrave" unicode="&#xe8;" horiz-adv-x="305" 
d="M289 16l-8 -17h-85q-180 254 -180 566q0 123 36 267h180v-85h-113q-10 -49 -15 -101h143v-84h-147q3 -304 189 -546zM251 910l-26 -60l-172 74l26 60z" />
    <glyph glyph-name="eacute" unicode="&#xe9;" horiz-adv-x="305" 
d="M289 16l-8 -17h-85q-180 254 -180 566q0 123 36 267h180v-85h-113q-10 -49 -15 -101h143v-84h-147q3 -304 189 -546zM251 928l-172 -74l-26 60l172 74z" />
    <glyph glyph-name="ecircumflex" unicode="&#xea;" horiz-adv-x="305" 
d="M289 16l-8 -17h-85q-180 254 -180 566q0 123 36 267h180v-85h-113q-10 -49 -15 -101h143v-84h-147q3 -304 189 -546zM271 905l-33 -56l-85 50l-86 -50l-33 56l119 70z" />
    <glyph glyph-name="edieresis" unicode="&#xeb;" horiz-adv-x="305" 
d="M289 16l-8 -17h-85q-180 254 -180 566q0 123 36 267h180v-85h-113q-10 -49 -15 -101h143v-84h-147q3 -304 189 -546zM260 897l-50 -50l-50 50l50 50zM145 897l-50 -50l-50 50l50 50z" />
    <glyph glyph-name="igrave" unicode="&#xec;" horiz-adv-x="116" 
d="M100 -1h-84v833h84v-833zM157 910l-26 -60l-172 74l26 60z" />
    <glyph glyph-name="iacute" unicode="&#xed;" horiz-adv-x="116" 
d="M100 -1h-84v833h84v-833zM157 928l-172 -74l-26 60l172 74z" />
    <glyph glyph-name="icircumflex" unicode="&#xee;" horiz-adv-x="116" 
d="M100 -1h-84v833h84v-833zM177 905l-33 -56l-85 50l-86 -50l-33 56l119 70z" />
    <glyph glyph-name="idieresis" unicode="&#xef;" horiz-adv-x="116" 
d="M100 -1h-84v833h84v-833zM166 897l-50 -50l-50 50l50 50zM51 897l-50 -50l-50 50l50 50z" />
    <glyph glyph-name="eth" unicode="&#xf0;" 
d="M326 565q0 -313 -159 -566h-115v563h-36v84h36v186h242q32 -148 32 -267zM241 565q0 95 -16 182h-89v-101h35v-84h-35v-445q105 210 105 448z" />
    <glyph glyph-name="ntilde" unicode="&#xf1;" horiz-adv-x="292" 
d="M276 -1h-85v571q-35 57 -90 108v-679h-85v847q7 -5 35.5 -24.5t39.5 -28t32.5 -25t37 -31t30.5 -30.5v125h85v-833zM270 952q0 -43 -18.5 -72.5t-58.5 -29.5q-29 0 -58 22t-34 22q-14 0 -14 -37h-66q0 43 19 72.5t59 29.5q26 0 57.5 -21.5t35.5 -21.5q12 0 12 36h66z" />
    <glyph glyph-name="ograve" unicode="&#xf2;" horiz-adv-x="389" 
d="M373 513q0 -144 -39.5 -267t-122.5 -247h-33q-83 124 -122.5 247t-39.5 267q0 156 58 319h241q58 -163 58 -319zM289 513q0 118 -35 234h-119q-35 -116 -35 -234q0 -198 95 -379q94 179 94 379zM293 910l-26 -60l-172 74l26 60z" />
    <glyph glyph-name="oacute" unicode="&#xf3;" horiz-adv-x="389" 
d="M373 513q0 -144 -39.5 -267t-122.5 -247h-33q-83 124 -122.5 247t-39.5 267q0 156 58 319h241q58 -163 58 -319zM289 513q0 118 -35 234h-119q-35 -116 -35 -234q0 -198 95 -379q94 179 94 379zM293 928l-172 -74l-26 60l172 74z" />
    <glyph glyph-name="ocircumflex" unicode="&#xf4;" horiz-adv-x="389" 
d="M373 513q0 -144 -39.5 -267t-122.5 -247h-33q-83 124 -122.5 247t-39.5 267q0 156 58 319h241q58 -163 58 -319zM289 513q0 118 -35 234h-119q-35 -116 -35 -234q0 -198 95 -379q94 179 94 379zM313 905l-33 -56l-85 50l-86 -50l-33 56l119 70z" />
    <glyph glyph-name="otilde" unicode="&#xf5;" horiz-adv-x="389" 
d="M373 513q0 -144 -39.5 -267t-122.5 -247h-33q-83 124 -122.5 247t-39.5 267q0 156 58 319h241q58 -163 58 -319zM289 513q0 118 -35 234h-119q-35 -116 -35 -234q0 -198 95 -379q94 179 94 379zM319 952q0 -43 -18.5 -72.5t-58.5 -29.5q-21 0 -40.5 11t-32.5 22t-19 11
q-14 0 -14 -37h-66q0 43 19 72.5t59 29.5q26 0 57.5 -21.5t35.5 -21.5q12 0 12 36h66z" />
    <glyph glyph-name="odieresis" unicode="&#xf6;" horiz-adv-x="389" 
d="M373 513q0 -144 -39.5 -267t-122.5 -247h-33q-83 124 -122.5 247t-39.5 267q0 156 58 319h241q58 -163 58 -319zM289 513q0 118 -35 234h-119q-35 -116 -35 -234q0 -198 95 -379q94 179 94 379zM302 897l-50 -50l-50 50l50 50zM187 897l-50 -50l-50 50l50 50z" />
    <glyph glyph-name="divide" unicode="&#xf7;" horiz-adv-x="478" 
d="M16 432h446v-78h-446v78zM239 566q22 0 37 -15t15 -37t-15 -37t-37 -15t-37.5 15t-15.5 37t15.5 37t37.5 15zM239 324q22 0 37 -15t15 -36q0 -22 -15 -37.5t-37 -15.5t-37.5 15.5t-15.5 37.5q0 21 15.5 36t37.5 15z" />
    <glyph glyph-name="oslash" unicode="&#xf8;" horiz-adv-x="389" 
d="M373 513q0 -145 -39.5 -267t-122.5 -247h-33q-32 47 -58 95l-30 -95h-59l54 169q-69 167 -69 345q0 159 58 318h284l-21 -66q36 -123 36 -252zM263 718l-9 29h-119q-35 -116 -35 -234q0 -104 28 -211zM289 513q0 40 -5 88l-126 -389q18 -44 37 -78q94 179 94 379z" />
    <glyph glyph-name="ugrave" unicode="&#xf9;" horiz-adv-x="321" 
d="M305 -1h-101q-188 261 -188 599q0 116 26 234h87q-28 -112 -28 -234q0 -256 119 -468v702h85v-833zM259 910l-26 -60l-172 74l26 60z" />
    <glyph glyph-name="uacute" unicode="&#xfa;" horiz-adv-x="321" 
d="M305 -1h-101q-188 261 -188 599q0 116 26 234h87q-28 -112 -28 -234q0 -256 119 -468v702h85v-833zM259 928l-172 -74l-26 60l172 74z" />
    <glyph glyph-name="ucircumflex" unicode="&#xfb;" horiz-adv-x="321" 
d="M305 -1h-101q-188 261 -188 599q0 116 26 234h87q-28 -112 -28 -234q0 -256 119 -468v702h85v-833zM279 905l-33 -56l-85 50l-86 -50l-33 56l119 70z" />
    <glyph glyph-name="udieresis" unicode="&#xfc;" horiz-adv-x="321" 
d="M305 -1h-101q-188 261 -188 599q0 116 26 234h87q-28 -112 -28 -234q0 -256 119 -468v702h85v-833zM268 897l-50 -50l-50 50l50 50zM153 897l-50 -50l-50 50l50 50z" />
    <glyph glyph-name="yacute" unicode="&#xfd;" horiz-adv-x="301" 
d="M285 -1h-85v525q-85 45 -134.5 128.5t-49.5 179.5h84q0 -128 100 -208v31q-81 69 -81 177h56q0 -47 25 -91v91h85v-833zM279 928l-172 -74l-26 60l172 74z" />
    <glyph glyph-name="thorn" unicode="&#xfe;" horiz-adv-x="316" 
d="M300 630q-37 -93 -80 -151.5t-119 -105.5v-374h-85v833h85v-185h190zM175 562h-74v-85q42 36 74 85z" />
    <glyph glyph-name="ydieresis" unicode="&#xff;" horiz-adv-x="301" 
d="M285 -1h-85v525q-85 45 -134.5 128.5t-49.5 179.5h84q0 -128 100 -208v31q-81 69 -81 177h56q0 -47 25 -91v91h85v-833zM258 897l-50 -50l-50 50l50 50zM143 897l-50 -50l-50 50l50 50z" />
    <glyph glyph-name="OE" unicode="&#x152;" horiz-adv-x="579" 
d="M563 16l-8 -17h-85q-89 123 -132 263q-36 -117 -126 -263h-34q-83 125 -122.5 247t-39.5 267q0 136 58 319h432v-85h-113q-10 -49 -15 -101h143v-84h-147q2 -309 189 -546zM289 513q0 122 -34 234h-120q-34 -112 -34 -234q0 -200 94 -379q94 179 94 379z" />
    <glyph glyph-name="oe" unicode="&#x153;" horiz-adv-x="579" 
d="M563 16l-8 -17h-85q-89 123 -132 263q-36 -117 -126 -263h-34q-83 125 -122.5 247t-39.5 267q0 136 58 319h432v-85h-113q-10 -49 -15 -101h143v-84h-147q2 -309 189 -546zM289 513q0 122 -34 234h-120q-34 -112 -34 -234q0 -200 94 -379q94 179 94 379z" />
    <glyph glyph-name="Scaron" unicode="&#x160;" horiz-adv-x="295" 
d="M279 456q0 -266 -163 -457h-92l-8 16q179 178 179 441q0 50 -8 106h-154v42q0 91 63.5 158.5t154.5 69.5v-85q-43 0 -79 -29t-47 -72h131q23 -110 23 -190zM286 909l-118 -70l-119 70l33 56l86 -50l85 50z" />
    <glyph glyph-name="scaron" unicode="&#x161;" horiz-adv-x="266" 
d="M250 747q-125 0 -125 -164q0 -63 40.5 -177t40.5 -178q0 -123 -90 -229h-92l-8 16q106 102 106 213q0 66 -39 159q-43 100 -43 196q0 106 53.5 177.5t156.5 71.5v-85zM275 909l-118 -70l-119 70l33 56l86 -50l85 50z" />
    <glyph glyph-name="Ydieresis" unicode="&#x178;" horiz-adv-x="301" 
d="M285 -1h-85v525q-85 45 -134.5 128.5t-49.5 179.5h84q0 -128 100 -208v31q-81 69 -81 177h56q0 -47 25 -91v91h85v-833zM258 897l-50 -50l-50 50l50 50zM143 897l-50 -50l-50 50l50 50z" />
    <glyph glyph-name="Zcaron" unicode="&#x17d;" horiz-adv-x="360" 
d="M344 816l-50 -55q-193 -212 -193 -501q0 -89 21 -176h136v-85h-201q-41 153 -41 261q0 272 158 487h-102v85h264zM317 909l-118 -70l-119 70l33 56l86 -50l85 50z" />
    <glyph glyph-name="zcaron" unicode="&#x17e;" horiz-adv-x="360" 
d="M344 816l-50 -55q-193 -212 -193 -501q0 -89 21 -176h136v-85h-201q-41 153 -41 261q0 272 158 487h-102v85h264zM317 909l-118 -70l-119 70l33 56l86 -50l85 50z" />
    <glyph glyph-name="florin" unicode="&#x192;" horiz-adv-x="880" 
d="M480 468h21q0 -10 -1 -15q10 2 18 2q26 0 47.5 -11t24.5 -33q22 9 56 9q38 0 64 -18t26 -52q0 -15 -10 -32q-5 -5 -10 -5q-11 0 -11 10q0 4 3 7q7 10 7 20q0 21 -16.5 34.5t-41.5 13.5q-48 0 -80 -23.5t-32 -46.5q0 -32 45 -32q20 0 33 5l3 1q12 0 12 -12q-4 -36 -37 -62
q-33 -24 -73 -24q-56 0 -88 38q-33 -38 -88 -38q-40 0 -74 24q-32 25 -36 62q0 12 10 12q3 0 4 -1q14 -5 33 -5q47 0 47 32q0 23 -33 46.5t-82 23.5q-24 0 -40 -13.5t-16 -34.5q0 -10 7 -20q3 -3 3 -7q0 -10 -12 -10q-6 0 -9 5q-11 18 -11 32q0 34 26.5 52t63.5 18
q35 0 56 -9q3 21 25 32.5t46 11.5q7 0 19 -2q-1 6 -1 19q0 29 6 47q4 19 13 19q7 0 13 -19q0 -1 1.5 -10.5t2.5 -15.5l-20 -25h21q0 -16 -3 -29q19 -14 19 -34q0 -29 -32 -42q-33 -17 -33 -28q0 -18 23.5 -27t50.5 -9q26 0 49 9t23 27q0 15 -32 28q-32 14 -32 42q0 20 19 34
q-2 20 -2 33q0 27 5 47q6 19 13 19q9 0 13 -19q2 -7 4 -27zM519 441q-24 0 -41 -12q-16 -10 -16 -24t16 -24q16 -11 41 -11t42 11q15 10 15 24t-15 24q-19 12 -42 12zM360 441q-24 0 -41 -12q-16 -10 -16 -24t16 -24q16 -11 41 -11t42 11q15 10 15 24t-15 24q-19 12 -42 12z
M514 300q-26 -22 -74 -22q-49 0 -74 22q-34 -26 -77 -26q-6 0 -22 2q10 -24 33.5 -37t51.5 -13q53 0 78 40q4 5 10 5q8 0 9 -5q25 -40 79 -40q27 0 51 13t33 37q-14 -2 -22 -2q-42 0 -76 26zM357 602q-132 -28 -132 -117q0 -5 1 -15.5t1 -17.5q0 -11 -11 -11q-9 0 -9 9
q-4 16 -4 35q0 75 54 131q-47 28 -57 76q0 11 11 11q9 0 10 -10q8 -33 38 -52.5t66 -19.5q33 0 61.5 17.5t38.5 47.5q3 7 11 7q9 0 10 -7q10 -30 39 -47.5t62 -17.5q35 0 65 19.5t38 52.5q1 10 10 10q11 0 11 -14q-10 -45 -51 -69q56 -59 56 -135q0 -17 -3 -35q-3 -9 -10 -9
q-11 0 -11 14q0 3 1 9.5t1.5 11.5t0.5 9q0 94 -115 115q-77 13 -104 58q-27 -43 -79 -56zM768 125q-56 -61 -141 -61q-41 -23 -92 -23h-12q-40 -19 -83 -19t-83 19h-12q-50 0 -94 23q-84 0 -139 61q-96 68 -96 156q0 67 59 126q-27 52 -27 106q0 121 116 206q115 84 276 84
q162 0 275 -84q117 -86 117 -206q0 -55 -28 -106q60 -58 60 -126q0 -88 -96 -156zM664 90q52 11 88 49.5t36 92.5q0 47 -28 81q-2 6 -2 7q0 11 10 11q5 0 10 -5q32 -43 32 -94q0 -22 -7 -48q39 46 39 97q0 63 -58 116q-4 2 -4 8q0 1 2 5q28 50 28 103q0 110 -108 189
q-109 80 -262 80q-154 0 -263 -80q-108 -80 -108 -189q0 -51 29 -103q1 -1 1 -5q0 -7 -3 -8q-59 -54 -59 -116q0 -50 40 -97q-7 26 -7 48q0 53 32 94q5 5 10 5q10 0 10 -11q0 -2 -3 -7q-27 -35 -27 -81q0 -54 36 -92.5t88 -49.5q-54 49 -54 118q0 55 37 98q3 5 8 5
q11 0 11 -10q0 -3 -3 -8q-31 -37 -31 -85q0 -56 40 -96t96 -48q-62 49 -62 125q0 12 10 12q11 0 11 -12q0 -62 49 -104t112 -42t112 42t49 104q0 12 11 12q10 0 10 -12q0 -76 -62 -125q56 8 96 48t40 96q0 47 -32 85q-2 6 -2 8q0 10 10 10q4 0 9 -5q36 -44 36 -98
q0 -70 -53 -118z" />
    <glyph glyph-name="circumflex" unicode="&#x2c6;" horiz-adv-x="269" 
d="M253 905l-33 -56l-85 50l-86 -50l-33 56l119 70z" />
    <glyph glyph-name="caron" unicode="&#x2c7;" horiz-adv-x="269" 
d="M253 909l-118 -70l-119 70l33 56l86 -50l85 50z" />
    <glyph glyph-name="ring" unicode="&#x2da;" horiz-adv-x="170" 
d="M158 902q0 -30 -21 -51.5t-52 -21.5t-52.5 21.5t-21.5 51.5q0 31 21.5 52.5t52.5 21.5t52 -21.5t21 -52.5zM113 902q0 12 -8 20t-20 8q-11 0 -19 -8t-8 -20q0 -11 8 -19t19 -8t19.5 8t8.5 19z" />
    <glyph glyph-name="tilde" unicode="&#x2dc;" horiz-adv-x="281" 
d="M265 952q0 -43 -18.5 -72.5t-58.5 -29.5q-21 0 -40.5 11t-32.5 22t-19 11q-14 0 -14 -37h-66q0 43 19 72.5t59 29.5q26 0 57.5 -21.5t35.5 -21.5q12 0 12 36h66z" />
    <glyph glyph-name="endash" unicode="&#x2013;" horiz-adv-x="385" 
d="M369 373h-353v84h353v-84z" />
    <glyph glyph-name="emdash" unicode="&#x2014;" horiz-adv-x="765" 
d="M749 373h-733v84h733v-84z" />
    <glyph glyph-name="quoteleft" unicode="&#x2018;" horiz-adv-x="123" 
d="M21 695q-5 23 -5 43q0 58 38 114h29l6 -8q-16 -29 -16 -64h34v-85h-86z" />
    <glyph glyph-name="quoteright" unicode="&#x2019;" horiz-adv-x="124" 
d="M102 842q6 -21 6 -43q0 -60 -39 -114h-29l-6 8q16 29 16 64h-34v85h86z" />
    <glyph glyph-name="quotesinglbase" unicode="&#x201a;" horiz-adv-x="124" 
d="M102 85q6 -21 6 -43q0 -60 -39 -114h-29l-6 8q16 29 16 64h-34v85h86z" />
    <glyph glyph-name="quotedblleft" unicode="&#x201c;" horiz-adv-x="233" 
d="M21 695q-5 23 -5 43q0 58 38 114h29l6 -8q-16 -29 -16 -64h34v-85h-86zM131 695q-5 23 -5 43q0 58 38 114h29l6 -8q-16 -29 -16 -64h34v-85h-86z" />
    <glyph glyph-name="quotedblright" unicode="&#x201d;" horiz-adv-x="233" 
d="M212 842q5 -23 5 -43q0 -58 -38 -114h-29l-6 8q16 29 16 64h-34v85h86zM102 842q5 -23 5 -43q0 -58 -38 -114h-29l-6 8q16 29 16 64h-34v85h86z" />
    <glyph glyph-name="quotedblbase" unicode="&#x201e;" horiz-adv-x="233" 
d="M212 85q5 -23 5 -43q0 -58 -38 -114h-29l-6 8q16 29 16 64h-34v85h86zM102 85q5 -23 5 -43q0 -58 -38 -114h-29l-6 8q16 29 16 64h-34v85h86z" />
    <glyph glyph-name="dagger" unicode="&#x2020;" horiz-adv-x="403" 
d="M128 830h147q-40 -23 -40 -67v-99h76q41 0 76 27l-24 -86h-128v-715h-67v715h-76q-43 0 -76 -28l24 87h128v99q0 44 -40 67z" />
    <glyph glyph-name="daggerdbl" unicode="&#x2021;" horiz-adv-x="403" 
d="M275 -108h-147q40 23 40 66v129h-76q-43 0 -76 -28l24 87h128v461h-76q-43 0 -76 -28l24 87h128v99q0 44 -40 67h147q-40 -23 -40 -67v-99h76q41 0 76 27l-24 -86h-128v-461h76q41 0 76 28l-24 -87h-128v-129q0 -43 40 -66z" />
    <glyph glyph-name="bullet" unicode="&#x2022;" horiz-adv-x="215" 
d="M199 400l-92 -91l-91 91l91 92z" />
    <glyph glyph-name="ellipsis" unicode="&#x2026;" horiz-adv-x="454" 
d="M438 60l-61 -61l-61 61l61 61zM288 60l-61 -61l-61 61l61 61zM138 60l-61 -61l-61 61l61 61z" />
    <glyph glyph-name="perthousand" unicode="&#x2030;" horiz-adv-x="571" 
d="M343 509q34 0 51 -33t17 -73q0 -77 -40 -153t-87 -76q-31 0 -49 31.5t-18 74.5q0 77 39.5 153t86.5 76zM361 407q0 37 -19 37q-32 0 -53.5 -63t-21.5 -105q0 -37 19 -37q32 0 53.5 63t21.5 105zM24 0l249 707q-23 -10 -51 -10h-14q1 -5 1 -15q0 -79 -39.5 -154.5
t-86.5 -75.5q-29 0 -48 28.5t-19 73.5q0 33 12 84t42.5 100t70.5 49q10 0 38 -12.5t43 -12.5q59 0 92 68h58l-293 -830h-55zM160 685q0 36 -20 36q-32 0 -53 -63t-21 -105q0 -36 19 -36q32 0 53.5 63.5t21.5 104.5zM487 333q34 0 51 -33t17 -73q0 -77 -40 -153t-87 -76
q-31 0 -49 31.5t-18 74.5q0 77 39.5 153t86.5 76zM505 231q0 37 -19 37q-32 0 -53.5 -63t-21.5 -105q0 -37 19 -37q32 0 53.5 63t21.5 105z" />
    <glyph glyph-name="guilsinglleft" unicode="&#x2039;" horiz-adv-x="195" 
d="M179 303l-73 -43l-90 155l90 155l73 -42l-65 -113z" />
    <glyph glyph-name="guilsinglright" unicode="&#x203a;" horiz-adv-x="195" 
d="M89 260l-73 43l65 112l-65 113l73 42l90 -155z" />
    <glyph glyph-name="Euro" unicode="&#x20ac;" horiz-adv-x="382" 
d="M366 15l-8 -16h-85q-160 226 -178 501h-79l41 85h37v33h-68l41 85h35q7 53 27 128h180v-84h-114l-7 -44h119l-41 -85h-88q0 -6 -0.5 -17t-0.5 -16h72l-41 -85h-29q20 -271 187 -485z" />
    <glyph glyph-name="trademark" unicode="&#x2122;" horiz-adv-x="323" 
d="M125 786h-34v-377h-42v377h-33v43h109v-43zM307 409h-43v345q-11 -13 -40 -62q-28 50 -40 62v-345h-43v426q32 -17 47.5 -28t35.5 -35q19 23 35 35t48 28v-426z" />
    <glyph glyph-name="minus" unicode="&#x2212;" horiz-adv-x="478" 
d="M16 432h446v-78h-446v78z" />
    </font>
</defs>
</svg>
